<svg id="Слой_1" data-name="Слой 1" xmlns="http://www.w3.org/2000/svg" viewBox="0 0 1510 450"><title>brand-6</title><path d="M94.67,12.64c-.47,4,1.69,5.42,5.3,6.3,19.58,4.77,39.18,9.52,58.64,14.75,9.83,2.65,19.78,5.48,29,9.76,7.61,3.54,16.24,5.1,23,9.26C220,58.52,231.17,59.92,240.12,67c6.72,5.28,15.59,7.82,23.45,11.7,2.93,1.45,5.74,3.16,8.54,4.87,6.16,3.75,12.1,7.89,18.43,11.31,16.86,9.11,32,20.65,46.72,32.76,17.41,14.35,33.59,30,46.41,48.79,4.87,7.13,10.75,13.82,14.27,21.57,5.84,12.88,14,25.16,13.05,40.41-.42,6.74.34,13.54.5,20.31a16.66,16.66,0,0,1-.35,4.69c-1.4,5.1-5.79,6.58-9.23,2.68-13.28-15-30.8-24.85-45.63-38-5.2-4.58-10.73-8.78-15.94-13.34-4.42-3.86-9.3-4.86-15-3.72q-26.38,5.34-52.83,10.44c-7.68,1.5-10.17-.25-14.06-7-7.05-12.24-14.2-24.46-22.05-36.18-7.17-10.71-15.2-20.85-23.12-31a29.07,29.07,0,0,0-8.09-7c-3.4-2-5.2-.53-4.27,3.39a46.65,46.65,0,0,0,3.94,10.58c7.94,15.36,16.34,30.48,24,46,2.48,5,3.72,10.74,4.72,16.29,1.42,7.91-1.71,11.88-9.73,13.11-10.27,1.58-20.59,2.85-30.87,4.42-12.75,1.94-25.53,3.79-38.2,6.17-11.76,2.21-23.34,5.35-35.1,7.55-7.26,1.35-14.7,1.83-22.08,2.45-5.48.47-8.31-1.9-8.89-7.43-.32-3.1.17-6.29.12-9.43-.56-31.83-.51-63.68-2-95.47-.7-14.87-4.69-29.55-6.72-44.39-1.33-9.73-2.75-19.3-6.86-28.37-1.6-3.54-1.87-7.65-3.14-11.36-1.56-4.58-3.48-9-5.33-13.5-.78-1.88-2.11-3.58-2.62-5.52-1.36-5.21-3.56-9.65-8.36-12.64-3.53-2.2-2.95-6-2.71-9.44Z"/><path d="M1471.12,230.37c-3.93-.41-5.87,1.79-7.56,5.06-5.71,11-11.62,21.92-17.58,32.79-4,7.41-4.19,15.37-3.8,23.45.21,4.4.68,8.82.48,13.2-.22,4.95-3.32,8.18-7.33,8.49a8.09,8.09,0,0,1-8.66-7.11c-.63-4.1-.22-8.44.2-12.62,1.07-10.55-2.55-19.76-7.58-28.66-2.39-4.21-4.81-8.42-7-12.74-3.41-6.74-6.84-13.48-9.87-20.39a21.63,21.63,0,0,1-2.14-9.51,8.39,8.39,0,0,1,4-6.11c1.64-.74,4.46,1,6.69,1.82a3.36,3.36,0,0,1,1.5,1.77q6.54,14.83,13,29.71c.68,1.59,1,3.34,1.76,4.88,1.77,3.6,5.15,5.29,8.61,4.06,2.36-.83,5.23-3.57,5.66-5.87a38,38,0,0,1,7.35-17.12c1.94-2.48,2.56-6.05,3.62-9.17,3.28-9.68,5.42-11.12,15.35-10.2,1.1.1,2.21.05,3.31.07Z"/><path d="M251.75,438.41q-22.47,0-44.95,0c-2.64,0-4.42-.32-5.81-3.39-.94-2.07-4.33-3.82-6.86-4.22-8.63-1.35-16-5.2-23.45-9.5-4.88-2.83-8-6.18-8.9-11.89-1.11-6.92-5.24-10.83-11.92-10.3-10.34.84-16.49-5.46-22.16-12.16-6.49-7.66-12.1-16-18.15-24.08-5-6.56-2.14-14.36,6.14-15.67,9.17-1.46,18.47-2.07,27.69-3.3,6.21-.84,12.7-1.24,18.48-3.4,10.25-3.83,20.78-5.24,31.49-5.83a99.81,99.81,0,0,0,29.56-5.8c5.21-1.94,11.05-2.41,16.67-2.93a16,16,0,0,0,11.71-6c20.68-24.79,41.55-49.42,62.32-74.13,3.55-4.22,7-8.54,10.39-12.87,5.61-7.13,10.39-7.85,17.6-2.18,6.06,4.76,11.9,9.8,17.86,14.7,11.79,9.68,23.56,19.38,35.41,29A36.72,36.72,0,0,0,401,278c5.94,3.12,9.49,8.09,9.71,14.68.29,8.65,1.35,17.71-.72,25.9-3,11.93-8.15,23.39-13,34.77-5.7,13.28-15,24.31-23.61,35.77a26.9,26.9,0,0,1-2.5,2.83c-2.52,2.53-5.93,4.43-8.82,2.19-2.06-1.59-3.41-5.24-3.48-8-.13-5.3,1.14-10.63,1.36-16,.44-10.86.59-21.74.82-32.61.19-8.52-3.23-12.32-11.83-12.17a61.8,61.8,0,0,0-29.72,8.49c-2.48,1.41-4.81,5.55-4.82,8.44,0,25.22.39,50.44.89,75.66.13,6.86-1.22,9.51-7.22,13-2.4,1.39-4.08,4-6.33,5.66a8.2,8.2,0,0,1-4.49,1.67c-15.14.12-30.28.07-45.43.07Zm-99.94-72.18c-5.8,0-12.54,5.48-12.38,10.11s6,9.31,11.41,9.3c5.71,0,12-5.63,11.86-10.64S157.94,366.25,151.81,366.23Zm41.06,2.94c0-5.3-2.82-8.24-8-8.22-7.38,0-12.43,4.29-12.41,10.51,0,5,4.41,9.53,9.17,9.46C187.57,380.82,192.83,375.31,192.87,369.17Zm-9.41,22c-6-.12-10.8,4.28-10.91,9.89-.1,5,4.54,9.17,10.39,9.28,6,.11,9.83-3.44,10-9.34S189.44,391.27,183.46,391.14Z"/><path d="M811.54,234c.5,21.11,1,42.23,1.45,63.34a44.33,44.33,0,0,1-.76,9.84c-.75,3.66-3,6.47-7.15,6.3-4.35-.17-5.94-3.53-6.11-7.16-.38-8.18-.44-16.38-.4-24.57,0-7.1.43-14.19.63-21.28,0-1.26.28-2.72-.25-3.74-1.24-2.36-2.88-4.51-4.36-6.75-1.47,2-3.5,3.76-4.31,6-3.9,10.64-6.71,21.75-11.44,32-3.18,6.89-7.74,13.12-10.19,20.54-1.42,4.32-6.85,5.46-10.81,2.93a11.57,11.57,0,0,1-4.2-4.34c-4.63-9.76-9.25-19.53-13.36-29.52-3.28-8-5.63-16.32-8.8-24.35-.72-1.83-3.12-3-4.75-4.46-1.46,1.84-3.6,3.49-4.2,5.58-.75,2.63-.32,5.62-.23,8.46.35,12.13.8,24.26,1.11,36.4.07,2.66.35,5.62-.64,7.93a11,11,0,0,1-5.35,5.54,5.55,5.55,0,0,1-7.23-3.76,36,36,0,0,1-1.66-11c.09-12.75.54-25.5.85-38.25.26-10.72.32-21.44.84-32.15.34-7.15,3.49-11.57,7.77-12.15,4.66-.63,9.87,3.2,12.49,9.18,4.63,10.58,8.55,21.54,14.12,31.59A124.64,124.64,0,0,1,754.42,280a10.21,10.21,0,0,0,4.85,5.34c4.48,2.31,7.33.6,9-4.15q6-16.83,12.34-33.55c.71-1.87,2.16-3.45,3.15-5.23,1.9-3.39,3.83-6.77,5.53-10.25,2.21-4.5,3.68-9.48,6.52-13.51,1.5-2.13,5.53-4.08,7.86-3.57,2.62.58,5.65,3.65,6.61,6.31,1.39,3.87,1.08,8.35,1.49,12.57Z"/><path d="M1352.06,267c8.81.4,17.63.83,26.44,1.2,4.52.18,7.4,2.78,7.64,6.9.23,3.76-.19,8.06-1.85,11.36a60,60,0,0,1-27.73,27.42,20.52,20.52,0,0,1-8.18,2c-8.35.26-16.7.13-25.06.12-8.09,0-13.76-5.24-19.53-9.71-10.93-8.48-16.83-20.22-19.41-33.6a30.73,30.73,0,0,1,.22-9.84c3.26-22.68,16.58-38.49,36.27-48.27,14.12-7,28.26-4.05,40.31,6.8,3.72,3.36,7.9,6.2,11.73,9.45,1.51,1.29,3.53,2.93,3.73,4.61.36,2.88.36,6.64-1.24,8.61-1,1.21-5.45.36-7.94-.62a22.54,22.54,0,0,1-8.23-5.38c-9.32-10.2-21-11-33.09-8-14.27,3.53-23.43,12.85-25.51,27.6a67,67,0,0,0,.37,21.57c.88,4.54,4.32,9.09,7.72,12.55,14,14.18,28.83,16.14,46.4,6.77,3-1.62,6.32-3,9-5.11,3.22-2.61,5-6.46,3.33-10.56-1.83-4.39-6-4.49-10.14-4.11-4.86.46-9.71,1-14.58,1.36a43,43,0,0,1-7.09,0c-4.84-.42-8.36-3.55-8.14-7s3.6-5.79,8.49-5.9c5.36-.11,10.73,0,16.09,0C1352.05,267.16,1352.05,267.07,1352.06,267Z"/><path d="M640.45,316c-19.16,2.72-30.93-8.32-42.08-21.45s-9.6-27.78-7.16-42.63c.72-4.35,4-8.44,6.67-12.28a75.52,75.52,0,0,1,23.85-22.5c15.25-9,31.25-7.53,44.47,4.17,3.07,2.71,6,5.55,9.2,8.15,12.71,10.47,21.93,35.15,13.69,54.71-5.79,13.73-15.39,22.72-27.55,29.1-6,3.18-14,2.77-21.07,4C640.46,316.87,640.46,316.45,640.45,316Zm36.3-50.35c0-.23,0-1.65,0-3.07,0-15-13.67-30-26.47-32.51-12.18-2.43-23.24-1.69-32.88,7.69-7.66,7.45-13,15.84-14.3,26.41-1.75,14,10.8,32.35,27.57,38.38C649.3,309.29,679.3,292.7,676.75,265.68Z"/><path d="M1110.29,255.84v44.43c0,.79,0,1.58-.07,2.37-.46,6.55-2.86,10.3-7.46,11.35-5.47,1.24-8.39-2.29-11.23-6.09-8.38-11.19-17-22.2-25.17-33.55-3.76-5.22-6.67-11.05-9.91-16.63-.87-1.5-1.51-3.13-2.36-4.65-1.52-2.69-3.3-5.45-6.93-4.36s-4.76,4.23-4.55,7.89c.79,13.2,1.62,26.4,2.23,39.6a42.46,42.46,0,0,1-.75,10.32c-.79,3.89-3.25,6.42-7.64,6.34s-6.79-2.61-7.79-6.36a33.45,33.45,0,0,1-.64-8.45c0-13.24-.08-26.5.28-39.74.3-11,1.14-22,1.83-33,.1-1.54.26-3.44,1.17-4.5,1.72-2,3.84-4.61,6.12-5,2-.33,5,1.56,6.59,3.34,2.68,3,4.53,6.77,6.83,10.14q17.31,25.32,34.69,50.58a13.32,13.32,0,0,0,3.88,4c5.16,3,8.84.83,8.54-5.1-.69-13.68-1.63-27.35-2.23-41a73.44,73.44,0,0,1,.69-13.17c.54-3.93,2.27-7.46,7.09-7.43s6.47,3.57,6.89,7.56c.51,4.84.59,9.74.68,14.61.11,5.52,0,11,0,16.55Z"/><path d="M572.75,240q0,29.79,0,59.57a49.71,49.71,0,0,1-.39,8c-.53,3.14-2.16,5.71-5.76,5.94-3.82.25-6.14-2.18-6.62-5.49a95.26,95.26,0,0,1-.69-14.54c0-3.13,1-6.26,1-9.38,0-6.68-3.74-10.82-10.38-11.1-8.34-.35-16.72-.32-25.07-.05-6.16.2-9.67,4.28-9.71,11.13,0,5.5.59,11,.78,16.51a29.14,29.14,0,0,1-.42,6.12c-.77,4.4-3.33,7.18-7.93,7.38s-8.22-1.8-9.37-6.34a44.24,44.24,0,0,1-.93-10.74q0-30.74.24-61.48a73.29,73.29,0,0,1,.95-12.21c.88-5,4.56-8.14,8.57-8,5,.12,7.69,3.61,8.07,7.81a135.28,135.28,0,0,1,.26,22.14c-.75,10.25,1.61,13.35,11.81,13.38,7.26,0,14.52.16,21.77-.06,9.13-.27,11.26-3,10.84-12-.32-7.08-.4-14.19-.16-21.28.2-5.67,3.25-9.71,6.56-9.71s6.1,3.86,6.42,9.76c.27,4.87.06,9.77.06,14.66Z"/><path d="M1230.86,214.24c7.83,0,15.61-.74,23,3.54,15.42,8.95,22.72,25.57,17.73,42.64a27.63,27.63,0,0,1-12.35,16.15c-6.91,4.2-7.86,10.14-2.52,16.44a79,79,0,0,1,8,10.36c2,3.28,3.19,7.41-1.09,10.06-3.94,2.44-7.4.55-9.9-2.71-3.43-4.5-6.56-9.22-9.79-13.87-1.87-2.7-3.49-5.61-5.55-8.16-6.68-8.25-3.82-16.55,6.52-18.55,12.7-2.47,19.44-19.91,11.3-29.83-2.9-3.52-6.29-8.08-10.2-9-6.17-1.44-13-.75-19.48.07-4.69.6-7.2,4.57-7.17,9.32.12,18.09.48,36.18.69,54.26,0,3.92.25,7.92-.44,11.74s-3.2,6.48-7.68,6.13c-4.2-.32-5.71-3.33-5.93-6.77-.33-5.16,0-10.36,0-15.55,0-16.55-.13-33.1,0-49.65a99.25,99.25,0,0,1,1.16-15.51c1.31-8,4.86-10.8,12.84-11.09C1223.61,214.13,1227.24,214.24,1230.86,214.24Z"/><path d="M1161.22,214c5.2,0,10.41-.15,15.6,0,5.94.22,8.93,3,9.11,8.08.18,5.27-2.83,8.59-8.92,8.74a132.13,132.13,0,0,1-16.5-.9c-9.17-.92-13.55,2.48-14.58,11.68-1.6,14.28,1.12,17.24,15.44,17,5.52-.1,11-.18,16.56,0,5.14.16,8,2.74,8,6.81,0,4.32-2.94,7.45-7.94,7.56a122.92,122.92,0,0,1-16.51-.59c-8.1-.92-13.39,2.15-15.86,9.92-3.86,12.16,5.6,22.85,18.09,20.78a64.93,64.93,0,0,1,13.66-.49c4.79.22,7.82,3.21,7.5,6.86-.39,4.46-3.85,5.73-7.42,5.75-11.33.06-22.68.11-34-.56-7.63-.45-11.59-4.35-12.31-12-.7-7.34-.33-14.78-.35-22.18,0-9.25-.16-18.51.12-27.76.27-9.09.33-18.28,1.75-27.22,1.31-8.28,5.83-11.23,14.32-11.51C1151.76,213.89,1156.49,214,1161.22,214Z"/><path d="M988.71,258.55c3.47,0,6.93-.05,10.4,0,5.39.09,8.56,2.54,8.69,6.62.16,4.57-3.69,8.5-8.93,8.45-5.5-.06-11-.56-16.49-1.09-7.63-.74-11.64,1.82-13.54,9.19-1.57,6.08-.94,12.16,2.54,17.27,1.5,2.2,5,3.9,7.73,4.21,4.47.49,9.09-.43,13.65-.6a42.13,42.13,0,0,1,8.92.18c3.36.61,4.88,3.18,4.78,6.63s-2.11,5.14-5.19,5.79a19.89,19.89,0,0,1-4.23.28c-9,0-17.94-.09-26.91-.11-11.31,0-16.8-4.94-17-16.2-.14-8.65.7-17.3.89-25.95.12-5.48-.34-11-.22-16.44.21-10.34-.35-20.83,1.28-31,1.58-9.87,7.18-12.5,17.19-12,7.53.42,15.1-.08,22.66-.18a34.46,34.46,0,0,1,5.18,0,8.9,8.9,0,0,1,7.77,9.21c-.19,4.84-3.42,8.22-8.55,8.2-6.14,0-12.27-.67-18.4-.89-8.73-.31-12,2.83-12.46,11.57-.76,15.52.57,16.93,16,16.84h4.26Z"/><path d="M836,288.05c0-17.8-.1-35.59.07-53.39a75.28,75.28,0,0,1,1.53-13.1c.87-4.59,4-7.1,8.66-7.25,10.39-.33,20.79-.76,31.18-.68a15.25,15.25,0,0,1,8.28,2.77c5.44,3.94,4.46,11.36-1.9,13.41-3.74,1.21-8,.88-12.06,1-4.55.09-9.16-.59-13.65-.1-5.73.62-8.51,4.08-9,9.82-.12,1.41-.16,2.83-.29,4.25-1,10.51,1.86,13.73,12.52,13.9,5.36.08,10.72-.16,16.08,0a22.83,22.83,0,0,1,6.95,1.06c5.32,1.88,6.23,6.95,2,10.72s-9.16,3.53-14.3,3.07A100.15,100.15,0,0,0,858,273c-4.77.25-8.19,3.2-8.74,7.89a41.11,41.11,0,0,0,.42,13.83c1.3,5.68,6,8.35,11.66,8.62,3,.13,6-.36,8.94-.52a76.2,76.2,0,0,1,9.42-.34c4.67.32,8.44,3.73,8,7.12-.57,4.61-4.33,5.79-8,5.79-11.82,0-23.63-.3-35.43-.72-4.39-.16-7-3-7.44-7.25-.68-6.41-.92-12.87-1.34-19.31Z"/></svg>