<svg id="Слой_1" data-name="Слой 1" xmlns="http://www.w3.org/2000/svg" viewBox="0 0 1470 800"><title>brand-3</title><path d="M739.34,14.62h689.31c1.61,0,3.23.11,4.84,0,2.43-.11,3.21,1.11,4.42,3.26,4.23,7.52,3.54,15.53,3.54,23.55q0,167.13,0,334.26,0,192.25,0,384.51c0,3.54.19,7.09.06,10.63-.32,8.3-4.92,12.69-13.28,12.71-7.39,0-14.79-.17-22.18-.17q-177.77,0-355.54,0-342.94-.24-685.89-.58c-97.71,0-195.41.4-293.11.56-8,0-16.09-.18-24.11-.66s-11.28-4.11-11.35-12.07c0-6.76.53-13.52.53-20.29q.06-353.59,0-707.2A95.26,95.26,0,0,0,36,33c-.69-6.33,2.33-11.54,5-16.8.45-.9,2.41-1.41,3.68-1.44,6.13-.16,12.26-.11,18.38-.11H739.34ZM734.5,36.4H84.88c-6.6,0-13.22-.35-19.81,0-7.85.4-10.91,3.74-10.94,11.7,0,5.79.75,11.58.75,17.37Q55,213.24,54.89,361c0,6.28-.69,12.56-.53,18.83.2,7.73,3.44,10.8,11.11,11,6.28.15,12.57-.07,18.86-.07l964,0q173.18,0,346.34,0c5.64,0,11.28.2,16.92.1,8.55-.16,12-3.43,12.31-12.05.18-5-.52-10-.53-15q0-150.43,0-300.87c0-5,.75-10,.59-14.95-.23-7.56-3.34-11-10.84-11.59-6.07-.48-12.21,0-18.33,0ZM535.07,409.33q-188.63,0-377.26,0c-30.15,0-60.3-.14-90.45-.15-9.62,0-13.23,3.6-13.15,13.2,0,6.6.69,13.2.66,19.81Q54.65,499,54.2,555.82c-.07,11,2.91,14.13,13.91,14.13q150.87-.06,301.76-.11,308.58,0,617.17,0c5.64,0,11.29.19,16.93.08,7.07-.14,10.66-3.61,11-10.74.21-5-.06-10-.06-15q.09-60.69.2-121.4c0-10.07-3.63-13.72-13.73-13.65-5.64,0-11.29.19-16.93.19Zm693.53-.17q-90.43,0-180.88,0c-11.39,0-14.67,3.25-14.66,14.19q.07,89.68.14,179.36,0,67.95,0,135.9c0,5-.75,10-.56,15,.25,6.38,2.79,9,9.06,9.91a74.94,74.94,0,0,0,10.6.6q174.1,0,348.21,0c4.19,0,8.4.22,12.56-.19,7.69-.76,10.87-4.26,11-12,.06-4.5-.66-9-.66-13.51q0-142.43,0-284.85c0-9.5.32-19,.67-28.51.45-12-3.14-15.84-15-15.84ZM684.28,763.31h315.8c10.62,0,14-3.36,14-13.83q-.13-54.65-.22-109.29c0-13.38.24-26.76.09-40.14-.09-8.64-3.63-12-12.17-12.12-7.25-.08-14.51.13-21.76.13q-293.33,0-586.64,0c-9,0-18.06-.23-27.08,0-8,.18-11.06,3.36-11.26,11.37-.16,6.12.16,12.25.15,18.37Q355,684,354.9,750.28c0,9.7,3,12.79,12.6,13,1.13,0,2.26,0,3.39,0Zm-488.54.79v0H323.88c9.74,0,13.53-3.62,13.62-13.36,0-5-.59-10-.57-15q.24-66,.61-132c.06-12.67-3.38-16-16-16q-52.95.17-105.9.2-74,0-147.95-.13c-10.4,0-13.68,3.23-13.61,13.59,0,5.14.75,10.29.76,15.43q.1,60.19,0,120.4c0,5.14-.78,10.29-.75,15.43,0,7.29,3.71,10.85,11.06,11.26,1.93.11,3.87.07,5.8.07Z"/><path d="M443.06,221.42q0-21.51,0-43c0-10.48,3.46-14,13.87-14.06,5,0,10,.19,15-.11,14.86-.89,26.12,5.34,32.11,18.58,5.53,12.22,4.69,24.84-3.59,36.2-1,1.43-2.19,2.79-3.36,4.12-6.54,7.45-6.68,9.72-2,18.48,4.22,7.94,8.2,16,12.17,24.1,1.64,3.34,2.57,7.41-.52,9.86-2.3,1.83-6.1,2.55-9.19,2.44-4.81-.18-8.5-3.21-10.45-7.58-2.83-6.31-5-12.9-7.84-19.22-1.68-3.77-3.49-7.71-6.18-10.74-3.84-4.3-9.13-2.71-9.79,3-.6,5.35.29,10.88.6,16.32.12,2.09.62,4.15.68,6.24.25,7.62-3.18,11.47-10.24,11.65-7.39.19-11.21-3.54-11.25-11.29-.07-15,0-30,0-45ZM463.4,198.1c.3,2.29.55,4.53.9,6.75.64,4.16,2,8,6.51,9.3a12,12,0,0,0,12.4-3.35c6.29-6.31,5.84-20.1-.87-25.9s-16.21-2.51-17.91,6.07C464,193.33,463.74,195.73,463.4,198.1Z"/><path d="M258.4,222q0,22.72,0,45.44c0,4.83-2,8.52-6.78,10-5.16,1.59-10.58-.18-12.55-4.53a21.77,21.77,0,0,1-1.55-8.87c0-9.5.56-19,.55-28.5,0-6.61-3.8-10.05-10.33-10.13s-10.13,3.45-10.17,10.22c-.06,10.47.34,21,.3,31.42,0,8.44-6.38,12.92-14.37,10.44-4.75-1.47-7.17-4.88-7.18-10.75,0-10.15.18-20.3.17-30.45,0-19-.26-38,0-57.05a26.1,26.1,0,0,1,3-11.35c1.9-3.66,5.83-5,10-4.14a9.42,9.42,0,0,1,7.67,7.81,58.93,58.93,0,0,1,.61,10.56c0,5.48-.4,11-.17,16.43.27,6.24,4.21,9.56,10.5,9.46,6-.1,9.74-3.44,9.92-9.55.18-5.62-.51-11.26-.42-16.89A42.63,42.63,0,0,1,239,170.18c1.26-4.19,4.68-6.53,9.2-6.52a8.74,8.74,0,0,1,9,6.73,36,36,0,0,1,1.15,9.5c.12,14,.05,28.05.05,42.07Z"/><path d="M1293.69,221.91c0,9.51.11,19,0,28.52-.19,13.43-7.81,21.7-19.42,26.85-12,5.32-22.51,2.45-32.1-6-6.42-5.64-9-12.5-8.88-21,.26-19.65,1.27-39.4-.26-58.94-1.45-18.53,26.88-34.75,42.17-25.58,13.32,8,19.93,17.9,18.73,33.39-.58,7.52-.1,15.13-.1,22.7Zm-21.18,0c0-7.73,0-15.46,0-23.19a51,51,0,0,0-.5-8.66c-1-5.31-4.41-8.2-9.21-8.21-4.56,0-8.4,3.14-9.44,8.13a36,36,0,0,0-.56,7.2c0,16.1,0,32.2.07,48.3a29.88,29.88,0,0,0,1.15,8.54c1.39,4.46,4.8,6.8,9.5,6.77,4,0,7.6-3.46,8.5-8a36.8,36.8,0,0,0,.49-6.73C1272.54,238,1272.51,230,1272.51,221.94Z"/><path d="M383.24,268.37c0,5.7-2.94,9.12-7.65,9.69-6,.73-11.2-2.6-12.43-8.3-.58-2.66-.59-5.44-1.06-8.14-1-5.7-3.94-8.59-9.06-9.07-6-.56-10.89,2.24-12.59,7.56-.93,2.89-1.25,6-1.92,9-1.51,6.7-6.77,10-13.4,8.41-5.11-1.21-7.52-6.57-6.09-12.92q8.56-37.89,17-75.82c.8-3.61.76-7.46,1.93-10.93a34,34,0,0,1,5.41-10.56c4.26-5.21,11.34-5.47,15.54-.26A34.22,34.22,0,0,1,365,179.79c2.56,10.12,4.29,20.46,6.41,30.7q5.68,27.4,11.41,54.8C383.08,266.55,383.17,267.84,383.24,268.37Zm-27-42.71c0-5-2.54-9.56-5.46-9.62s-5.5,4.45-5.36,9.62c.11,3.61,1,7.1,5.41,7.05S356.22,229.39,356.24,225.66Z"/><path d="M597.56,277.76c-6.43,0-10.59-2.87-12.72-9.07a70.78,70.78,0,0,1-2-7.46q-9.15-40.77-18.23-81.56a27.35,27.35,0,0,1-.64-4.77c-.28-6,1.65-9.38,6-10.85a11.25,11.25,0,0,1,13,5,25.41,25.41,0,0,1,3,8.57c1.88,11.76,3.42,23.58,5.13,35.37.42,2.87.48,5.94,1.65,8.49,1,2.2,3.36,3.79,5.12,5.65,1.63-1.76,4.24-3.3,4.72-5.33,2-8.45,3.48-17,4.89-25.61.92-5.55,1.39-11.18,2.07-16.78.62-5.1,2.06-9.79,6.34-13.12,4-3.15,9.24-3.65,13.11-1.28s5.33,6.6,4,12c-3.16,13-6.62,25.87-9.69,38.87q-5.8,24.66-11.13,49.44C610.53,273.35,605.71,277.72,597.56,277.76Z"/><path d="M832.74,279.58c-13.34.06-26.33-9.72-29.93-22.59a15.79,15.79,0,0,1-.55-3.81c-.14-5.26,3.18-10.36,7.59-11.81,4.15-1.36,9.3.94,12.14,5.8,1.53,2.63,2.46,5.6,3.8,8.34,1.78,3.66,4.5,5.95,8.84,5.1s6-3.92,6.31-8a16.25,16.25,0,0,0-4.74-13.16q-12.19-12.72-24-25.77c-9.83-10.79-12-24.66-5.8-35.62a29,29,0,0,1,40.09-10.58c6.73,4,12.36,8.66,14.58,16.53,1.51,5.37-.42,10.82-4.7,13-4.53,2.26-10.39.62-13.59-4a51.33,51.33,0,0,1-3.16-6c-2-3.89-5.1-5.9-9.48-4.86s-6.72,4.37-5.87,8.63c.78,3.93,2.1,8.23,4.55,11.25,7.72,9.48,16.23,18.31,24.12,27.66A51.38,51.38,0,0,1,860.07,241c6.22,13.33,2.28,25.86-10.6,33-5.08,2.83-10.81,4.5-16.25,6.69Z"/><path d="M1135.64,221.91c0,7.73-.07,15.47,0,23.2a41.83,41.83,0,0,0,.81,9.1,8.34,8.34,0,0,0,7.33,6.78,8.78,8.78,0,0,0,9.38-4.55c1.31-2.21,2.19-4.66,3.42-6.93,3.19-5.87,8.82-7.88,14.73-5.35a10.83,10.83,0,0,1,5.24,14.37c-5.51,12.27-15.37,19.92-28.53,21.14-12.17,1.13-22.18-4.65-29.07-15-4.32-6.48-3.23-13.9-3.17-21.13.12-15.14.54-30.3,0-45.42-.58-16.12,2.13-24.49,20.52-33.33,13.09-6.3,23.57.42,32.79,8.7,3.59,3.22,5.87,8.37,7.58,13.06a9.65,9.65,0,0,1-5.48,12.46,10.66,10.66,0,0,1-13.86-4.38,58.81,58.81,0,0,1-2.9-6.1c-2.34-4.93-6.17-7.23-10.71-6.44-4,.71-7.21,4.34-7.76,9.35a81.13,81.13,0,0,0-.25,8.69c0,7.25,0,14.5,0,21.76Z"/><path d="M694.52,220.91q0-21,0-42c0-11.27,3.48-14.62,14.77-14.69,6.91,0,13.82-.52,20.73-.53a22.75,22.75,0,0,1,8,1.28,8.78,8.78,0,0,1,5.57,10.54c-1,4.38-4.24,7-9.05,7.12-3.37.06-6.78-.47-10.11-.1-6.49.71-9.34,4.38-9.67,11.66-.34,7.88,2,11.44,8.43,13.13a46.77,46.77,0,0,1,7.81,2.39c3.29,1.51,6,4.44,4.87,8-.88,2.83-3.77,5.07-5.91,7.45-.46.5-1.5.49-2.28.69-12.08,3.08-12.68,3.86-12.7,16.46,0,1.77,0,3.54,0,5.31.38,9.08,4.33,12.78,13.3,12.6a82.49,82.49,0,0,1,9.17,0c4.73.45,8.81,4.5,9.12,8.61s-2.7,7.72-7.93,8.9a32.76,32.76,0,0,1-7.67.61c-8-.15-16.08-.45-24.12-.71-9.32-.3-12.41-3.52-12.38-12.72Q694.56,242.89,694.52,220.91Z"/><path d="M938.47,264.42q0-33.84,0-67.67c0-10.63-1.5-12.63-11.81-15.58-6.39-1.83-8.7-4.24-8.47-8.82s3.66-7.9,9.69-8.33c5.42-.38,10.91.52,16.37.51,5.93,0,11.86-.59,17.79-.6a47.88,47.88,0,0,1,11.86,1c3.66.95,5.83,4,5.75,8.06s-2.65,6-6,7.36c-14.14,5.51-14,5.5-13.91,20.53.15,16.76.06,33.53.17,50.29,0,4.18.35,8.36.62,12.54.57,8.84-3.19,13.69-10.87,13.92C941.44,277.87,937.41,273.46,938.47,264.42Z"/><path d="M970.25,488.48c0,5.11,0,11.2,0,17.29,0,7.25-6.7,15.69-13.75,17.24-6.59,1.44-13.24-2.59-13.65-9.55-.67-11.68-.65-23.44-.15-35.13.27-6.31,6.51-9.95,13.15-8.87C964.1,470.81,970.41,478.72,970.25,488.48Z"/><path d="M569.46,491.83c.38,5,.67,9.94,1.14,14.9,1,10.68-3.72,15.16-14.26,13.4-1.74-.29-3.48-.65-5.23-.94-8.4-1.39-9.57-3.05-9.34-11.43.22-8.17,0-16.35,0-24.52-.06-8.5,2-10.73,10.24-11.15,15-.76,19.09.88,17.91,17.3,0,.8,0,1.61,0,2.41Z"/><path d="M506.38,472.2c1.93,0,3.87-.15,5.79,0,4.69.44,7.93,3.38,8.13,8,.44,10.1.84,20.22.7,30.32-.1,7.22-4.25,10.27-11.52,9.52q-4.55-.47-9.11-.84c-5-.4-7.57-2.57-7.69-7.49q-.37-15.64-.17-31.29c.08-5.56,2.5-7.76,8.08-8.15,1.92-.14,3.86,0,5.79,0Z"/><path d="M365.46,500.29c0-2.9.44-5.88-.08-8.68-1.64-8.92,2.27-15.34,8.76-20.65,4-3.25,9.11-3.37,13.6-.84a8,8,0,0,1,4,9.47,14.51,14.51,0,0,1-3.93,6.33c-3.22,3.2-3.48,6,.09,8.9a3.7,3.7,0,0,1,.36.33c9.83,9.32,9.09,18.48-2.19,26.39-3.92,2.75-8.06,2.43-11.74-.24-5.58-4-9.58-9.13-8.81-16.66a42.05,42.05,0,0,0,0-4.35Z"/><path d="M813.82,469.38c9.7-.16,22.51,12.5,14.39,23.31-3.55,4.72-2.37,10.33-.83,15.81.76,2.7.28,5.75.36,8.63-3,.06-6.3.81-9.07,0-3.34-1-6-1.11-9.16.51-4.85,2.46-8.26.24-8.45-5.2-.34-9.6-.64-19.21-.69-28.82C800.32,474.54,805.45,469.29,813.82,469.38Z"/><path d="M440.92,485.19c0,7.21,0,14.42,0,21.63a26.1,26.1,0,0,1-.49,4.3c-1.27,7.15-5.89,11.93-11.7,12.18s-12.48-5-14.23-11.11a5.76,5.76,0,0,1-.32-1.41c-.24-10.57-.8-21.15-.54-31.72.14-5.52,3.79-7.18,9.26-5.5,2.09.64,4.59,1.68,6.44,1.08C437.62,472,441.07,476,440.92,485.19Z"/><path d="M130.26,486.07c1.22,6,2.25,12.07,3.71,18,1.61,6.56-1.18,11.2-5.84,15.24-4.2,3.66-8.89,5.33-14.2,2.79-5.55-2.65-7.7-7.36-7.55-13.4.19-7.51.55-15,.19-22.54-.49-10.06,3.14-16,10.72-16.17,8.59-.22,14.43,6.23,14.26,15.78Z"/><path d="M778.07,490.53c.74,4.56,1.3,9.17,2.25,13.69a16,16,0,0,1-8.25,17.49c-5.5,2.75-11.5,1.61-15.41-3.87a18.06,18.06,0,0,1-2.91-9.36c-.34-8.18,0-16.38.08-24.57.13-9.45,4-13.94,11.69-13.86,8,.08,13.33,5.89,13.43,14.56,0,1.93,0,3.87,0,5.8Z"/><path d="M646.28,468.91c6.67.33,10.43,2.34,12.48,7,1.45,3.27.65,5.93-2.21,8-5,3.71-5.86,7.72-2.58,13a26.19,26.19,0,0,0,3.37,4.08c6,6.38,6,12.22-.28,17.89-6.7,6.08-14.09,6.07-19.54,0-3.38-3.78-3.36-6.72.06-10.6,5.28-6,5.35-7.6.6-14.13-6.61-9.09-6.42-16.42,1-21.95C641.63,470.34,644.85,469.54,646.28,468.91Z"/><path d="M289.48,495.94c0-5.15-.2-10.31.06-15.45s2.57-7.16,7.57-7.61c3.52-.32,7.06-.83,10.58-.8,5.53,0,7.49,3.08,5.53,8.32a47.23,47.23,0,0,1-2.86,5.57c-3.34,6.16-2.77,11.92,1.23,17.68a31.06,31.06,0,0,1,4.6,9.41c1,3.72-.94,6.34-5.08,6.38-5.15,0-10.31,0-15.45-.31-4.63-.3-6.16-3.68-6.28-7.74-.16-5.14,0-10.3,0-15.45Z"/><path d="M694.69,468c2.92,2,6.32,3.45,8.65,6,2.77,3,2.41,6.35-1.1,9.16-6.18,4.95-6.44,9.56-1.11,15.32.32.36.65.71,1,1.05,9.37,9.06,7.79,15.74-4.77,22.78-5.26,2.95-11.67.49-14.49-4.82-1.75-3.29-.8-6,1.77-8.67,5.8-5.92,5.72-6.78.75-13.33a39.25,39.25,0,0,1-4.08-6.51C676.75,479.51,683.48,469.05,694.69,468Z"/><path d="M239.94,494.36c-1.58-8.47.85-16.3,8.27-22.47,4.74-3.94,12.19-4.34,16.19.1,1.84,2,3.35,5.42,3.05,7.95-.21,1.72-3.64,3.68-6,4.39-7.79,2.41-9.82,4.9-10,12.91-.1,4.25,1.77,7,5.33,8.94a27.49,27.49,0,0,0,3.09,1.35c7.61,3,9.27,5.11,7.19,9.31-2.89,5.8-10.9,8.54-16.06,5.22-6.57-4.23-10.75-10.1-11.06-18.19C239.85,501,239.94,498.09,239.94,494.36Z"/><path d="M922.15,512.9c-.06,6.06-2.11,7-7.09,5.5-3.28-1-7-.55-10.54-.77-3.06-.19-7.33.73-8.85-.9-1.8-1.93-2.39-6.49-1.44-9.19A75.31,75.31,0,0,0,899,481.65c0-5.22,3.4-8.95,7.36-9.47s7.27,2,9.07,7.65a69.82,69.82,0,0,1,1.59,7.05q2.33,11.26,4.59,22.54C921.9,510.83,922.05,512.26,922.15,512.9Z"/><path d="M223.46,512.42c.08,4.41-1.53,5.86-5.72,5.69-4.48-.17-9-.24-13.44,0-6.29.33-9.6-2.84-8.5-9.07,1.76-9.94,3.76-19.83,5.84-29.7.81-3.87,2.89-6.89,7.32-7.18s7.12,2.38,8,6.24c1.41,6.09,2.08,12.34,3.22,18.5C221.17,502.09,222.36,507.25,223.46,512.42Z"/><path d="M849.61,506.6q0-11.53,0-23.08c0-9.6,8.29-15.88,17.49-13.26,3.5,1,5,4.42,2.59,7.62-2.9,3.9-3.11,7.7-2.25,12.27.49,2.61-.36,5.74-1.39,8.32-1.66,4.15-1.5,7.75,1.14,11.37s5.86,7.72,2.08,11.66c-3.59,3.74-8.49,1.66-12.61-.3C851.47,518.74,849.23,514,849.61,506.6Z"/><path d="M589.3,508c0-8.31-.07-16.63,0-24.94.09-9.18,7.3-14.85,16.26-12.92,4.07.88,5.74,3.95,3.42,7.52-2.66,4.09-3.41,7.91-2,12.69.68,2.3-.12,5.52-1.29,7.78-2.23,4.29-1.89,8,.91,11.66a14.13,14.13,0,0,1,.79,1.22c1.88,3.16,4.59,6.41,1.58,10.07s-7,2.35-10.72,1.11C591.94,520,589.07,515.41,589.3,508Z"/><path d="M152.89,502.48c-.21-3.53-.51-7.05-.62-10.57a94.85,94.85,0,0,1,0-12c.38-3.75,1.61-7.63,6.43-7.61,4.58,0,6.52,3.4,6.74,7.37a60,60,0,0,1-.49,13.87c-1,5.72,0,10.4,3.85,14.73a19.29,19.29,0,0,1,4,6.48c1.54,4.83-1.26,8.24-6.32,8.34a13.21,13.21,0,0,1-13.32-10.95,92.81,92.81,0,0,1-.58-9.6Z"/><path d="M461.45,495.89c0-5.15-.12-10.31,0-15.45.13-3.94,1.28-7.79,5.88-8.11s6.37,3.21,7,7.13a50.63,50.63,0,0,1,.45,7.7c.07,6.57.11,13.15,0,19.73a28,28,0,0,1-.74,7.15c-.92,3.33-3,5.77-6.93,5.42s-5.5-3.23-5.65-6.67c-.24-5.62-.06-11.26-.06-16.9Z"/><path d="M1250.22,602.59c-8.08-1.55-13.25,2.77-17.59,10.81-8.41,15.58-17.87,30.58-30.07,43.67-15.79,16.94-35.24,27.2-58,30.25-14.86,2-28.42-4.19-40.38-12.26-16.42-11.09-26.24-26.95-25.36-47.27,1-22,12-38.67,30.5-50.44a20.16,20.16,0,0,1,6.77-2.47c4.23-.85,8.14-.12,10.44,4.06,1.87,3.39.87,9.26-2.19,12.1a56.39,56.39,0,0,1-6.24,4.52A48.31,48.31,0,0,0,1100.65,617c-5.81,14.33-.78,28.26,12.13,39.54,14,12.2,39.94,11,55.24,2.09,17.09-9.9,29.44-24.36,39.23-41.16,10.46-17.94,20.61-36.07,31-54.05,1.92-3.32,4.91-6.09,6.49-9.54,1-2.16,1.26-6,0-7.47s-5.14-1.78-7.39-1.08c-12.9,4-25.64,8.58-38.47,12.86a33.3,33.3,0,0,0-17.49,13c-4,5.76-3.7,12,.94,17.27a45.91,45.91,0,0,1,3.82,4.35,9.69,9.69,0,0,1-1.07,12.42,8.62,8.62,0,0,1-11.88.23c-8.56-7.7-16.39-16.16-14.14-28.94a40.59,40.59,0,0,1,5.59-14.09c7.27-11.66,17.85-19.25,31.08-23.12,16.69-4.9,33.44-9.61,50-14.94,5-1.6,9.33-5,13.93-7.6,6.47-3.69,10.52-2.73,14.9,3.26,4.75,6.49,5.91,12.42.77,19.79-8,11.45-14.92,23.67-22.29,35.56-4.6,7.42-2.14,13.23,6.33,15,11.46,2.39,19.49-1.85,25.17-12,8.64-15.47,17.54-30.8,26.91-45.83a57.53,57.53,0,0,1,22.7-20.61c13.8-7.07,26.27-1.9,35.59,7.44,1.77,1.77,2.11,6.77.91,9.19s-5,4.12-8,4.87c-2,.49-4.63-1-6.71-2.08-9.75-5.18-16.8-4.1-23,5.1-7.24,10.64-13.85,21.72-20.35,32.84-12.35,21.12-24.44,42.39-36.6,63.62-4.72,8.24-9.34,16.55-14,24.84-3.45,6.14-7.19,12.34-14.81,13.42-3.27.46-7.6-.37-10.11-2.33-3.26-2.54-2-6.94,0-10.22,8.38-13.73,17.08-27.28,25.34-41.09,1.75-2.93,3.55-7,2.82-10-1.13-4.62-6-5.14-10.43-5C1253.63,602.61,1252.5,602.59,1250.22,602.59Z"/><path d="M428.37,700.91c-3.34.39-6.68.9-10,1.15-7.35.54-11.06-3.07-11.19-10.44-.13-6.89-.46-13.78-.69-20.67,0-1.28-.1-2.57,0-3.86.37-7.14,5.83-10.66,12-7.16,4.64,2.65,8.26,2.77,12.77-.37,5.2-3.62,9.87-1.27,9.88,5.14,0,10.09-.62,20.21-1.59,30.26C439,700.25,436.47,701.25,428.37,700.91Z"/><path d="M969.35,680.41c.5,8.56-1.71,15.19-7.65,20.31-4.11,3.54-9.9,4.37-13.93,2.08A11.21,11.21,0,0,1,943,689.73c1.74-5.86,2.56-11.45.61-17.45-.8-2.48-.45-5.44-.18-8.14.39-3.88,2-7.29,6-8.61a10.41,10.41,0,0,1,10.77,2.33C967.17,664.15,969.71,672.17,969.35,680.41Z"/><path d="M663.44,676.58c.31,4.17.54,8.34.94,12.5,1,10-3.41,14.29-13.24,12.87-1-.14-1.91-.35-2.86-.5-8.28-1.33-9.95-3.61-9.63-11.85.25-6.39,0-12.81-.07-19.22-.11-10.09,2.65-12.64,14-12.89,7.77-.17,11,3.4,11.15,12.31,0,2.26,0,4.51,0,6.76Z"/><path d="M525.58,671q.67,9.06,1.36,18.11c.62,8.31-3.87,14.25-11.15,14.75-7.84.53-13.28-4.51-13.72-12.86-.33-6.27-1.08-12.6-.55-18.8a31,31,0,0,1,4.16-12.46c2.47-4.25,7-5.5,11.88-4.28s7.12,4.77,8.2,9.24a51.11,51.11,0,0,1,.75,6.21Zm-4.15,9.56c-2.59-1.94-4-3.82-5.63-3.94-1.14-.09-3.64,2.42-3.45,3.33a6,6,0,0,0,3.63,3.9C517.13,684.17,518.83,682.25,521.43,680.59Z"/><path d="M921.6,676.21c.36,4.64.68,9.29,1.09,13.93.69,7.93-2.09,11.1-9.91,11.22-13.41.2-14.79-1.24-14.86-14.77,0-4.82-.35-9.64-.67-14.45-.69-10,2.56-13.58,12.47-13.49,10.9.09,12.47,1.72,12.32,12.72,0,1.6,0,3.21,0,4.82Z"/><path d="M745.9,655.43c7.37.13,14,7.81,12.13,15.51s-3,15-.82,22.79c1.06,3.82-1.5,6-5.42,6.25-3.68.19-7.37.17-11,.37-4.19.24-6.43-1.58-6.52-5.83-.16-8.37-.54-16.74-.36-25.1C734.05,660.44,738.73,655.31,745.9,655.43Z"/><path d="M469.24,700.27c-7.5,0-9.91-3-8.85-9.5,1.2-7.45,2.16-14.93,3.34-22.38.3-1.88.5-4.18,1.67-5.43,1.7-1.83,4.19-3.89,6.42-4,2-.09,4.32,2.11,6,3.79,1,1,1.38,2.89,1.67,4.45,1.44,7.76,2.92,15.51,4.07,23.32,1,6.74-.46,8.3-7.15,8.89C473.72,699.67,471,700.06,469.24,700.27Z"/><path d="M871.27,699.65c-3.33-.45-6.67-.89-10-1.36-4.29-.62-6.28-3.27-5.69-7.41,1.14-8.11,2.37-16.22,4-24.24,1.12-5.52,4.69-8.3,8.81-7.8,3.89.47,5.73,3.78,6.49,9.42A206.93,206.93,0,0,0,879,690.8C880.79,697.87,879.53,699.61,871.27,699.65Z"/><path d="M546.54,690.92c0-7.72-.18-15.45.05-23.16.2-6.85,4.64-12,10.43-12.64,6.12-.73,8.7,3,6.9,8.92a127.67,127.67,0,0,0-4.38,19.68c-.33,2.33,1.39,5.1,2.59,7.46,1.56,3.07,5.15,6,2.55,9.49-1.4,1.9-4.81,3.21-7.33,3.23a10.28,10.28,0,0,1-10.17-6.83,37.35,37.35,0,0,1-1.29-6.12Z"/><path d="M778.79,688.74c0-7.21-.23-14.44.07-21.64s5.23-12.1,11.25-12.16c4.73-.05,6.87,2.29,6,7-1.07,5.82-2.1,11.68-3.68,17.37-1.27,4.57-.76,8.52,1.93,12.32.65.92,1.57,1.89,1.66,2.9.21,2.41.91,5.52-.27,7.1s-4.46,2.44-6.71,2.26C782.3,703.35,777.91,697,778.79,688.74Z"/><path d="M608.61,680.31c0-4.18-.26-8.38.11-12.52a12.94,12.94,0,0,1,2.35-6.62c2.93-3.72,7.69-2.7,9.53,1.74a9.19,9.19,0,0,1,.84,3.26c.21,9.44.53,18.9.36,28.34-.06,3.63-2.21,6.59-6.37,6.46s-6.63-2.56-6.85-6.68c-.24-4.65-.05-9.32-.05-14Z"/><path d="M816.61,679.57c0-4.17-.25-8.36.07-12.51.27-3.53,1.81-7.08,5.9-6.95s4.61,3.8,4.76,7.17a15.1,15.1,0,0,1,0,3.36c-1.63,8.71-.89,16.7,5.25,23.87,1.19,1.4.82,6.14-.52,7.21a9.93,9.93,0,0,1-8.17,1.34c-4.75-1.64-7-6-7.3-11-.22-4.16,0-8.34,0-12.52Z"/><path d="M716.92,678.92c0,6.21.18,10.4-.06,14.57-.21,3.66-1.65,6.8-6,6.65-4.14-.13-6.16-3.07-6.16-6.73,0-9.32.2-18.66,1-27.93.17-2,3.2-5.11,5-5.14s5,2.78,5.39,4.77C717,670.26,716.76,675.64,716.92,678.92Z"/><path d="M172.46,680.68c-1.31,5.65-1.79,11.06-3.85,15.77a10.83,10.83,0,0,1-18,3.12c-2.67-2.87-2.74-6.08-1.56-9.45a11.17,11.17,0,0,0-1.42-10.5c-6.1-9.45-.52-17.79,6.46-22.86,4.4-3.2,11.35-.81,13.58,5C170,667.84,170.93,674.4,172.46,680.68Z"/><path d="M212.77,689.41a12.06,12.06,0,0,1-13.89,13.75c-2.59-.38-6.08-2.49-6.91-4.67s.28-6.16,2-8.13c6.79-8,7.15-10.26,1.08-19-3.62-5.23-3.58-10.38.12-13.45,3.9-3.24,9.37-2.36,13.52,2.64,1.78,2.15,3.73,4.87,3.93,7.46C213.12,675.08,212.77,682.26,212.77,689.41Z"/><path d="M252.61,671.36c1,4.16,1.94,8.33,2.95,12.48.26,1.09.76,2.12,1,3.22,1.13,4.71.76,9.23-3.55,12.1s-8.39,1.15-12.06-1.58a52.87,52.87,0,0,1-6.52-5.72,9.59,9.59,0,0,1-2.08-11.13c2.12-5,4.16-10.1,6.42-15.07.78-1.71,1.79-3.81,3.28-4.59,2.22-1.17,5.31-2.33,7.39-1.62,1.79.62,3.06,3.72,3.86,6,.61,1.71.12,3.81.12,5.74Z"/><path d="M127.28,676.57q.43,6.51.86,13c0,.48.13,1,.15,1.44.21,5.71-2.81,10.05-6.89,9.91s-7.13-4.34-7.11-9.87c0-7.52-.14-15-.19-22.58,0-2.09-.37-4.37.33-6.22s2.33-4.4,4-4.77a7.58,7.58,0,0,1,6.26,2c1.65,1.88,2.47,4.81,2.86,7.4.46,3.15.11,6.43.11,9.65Z"/></svg>