<svg id="Слой_1" data-name="Слой 1" xmlns="http://www.w3.org/2000/svg" viewBox="0 0 1190 790"><title>brand-2</title><path d="M1173.24,224.71c-2.19,1.07-4.86,1.65-6.49,3.28-17.76,17.61-34.6,36.25-55.59,50.23-11.12,7.42-23.26,13-36.84,13.44-14.36.46-27.85-9.86-31-23.76a23.79,23.79,0,0,1,1.42-14.06c5.11-11.47,11-22.63,17.07-33.62,9.15-16.5,18.9-32.67,28.1-49.15a15.77,15.77,0,0,0-2.16-18.9c-3.53-3.74-7.7-4.08-11.54-.66a26.25,26.25,0,0,0-4.32,5.18c-22.73,34.16-48.48,65.86-78.42,93.9C971.66,271,946.76,286.42,916.54,291c-18.18,2.77-34.33-2.18-47.43-15.25-3.07-3.07-5-7.44-6.86-11.5-3.56-7.82-9.59-9.35-16.12-3.7-5.85,5.05-11.18,10.94-17.68,14.93-9,5.53-18.75,9.95-28.45,14.24-14.65,6.49-35.2-2.71-40.61-16.23-3.18-7.94-7.87-8.95-14.25-3.26A93.4,93.4,0,0,1,709,290.2c-11.66,3.46-22.2,1.22-31.38-6.32-3.08-2.52-5.4-6.38-7.1-10.07-3.59-7.78-7.57-9.24-14.76-4.42-2.81,1.89-5.41,4.09-8.14,6.09-12.19,8.93-25.43,15.74-40.78,16.07-10.52.22-19.32-4.47-25.43-13.49-4.86-7.17-11.67-8.54-18-2.51-8.61,8.15-19.33,11.61-30,15.1-12.57,4.1-28.74-2.44-35.29-14-1.52-2.68-2-6.07-2.46-9.2s.08-6.14-.09-9.2c-.32-5.45-2.65-8.21-8-8.39-8.87-.31-16.55-2.73-23.58-8.53-5.84-4.83-12.55-2.33-16.66,5.34a126.51,126.51,0,0,1-22.89,30.44c-7.73,7.61-17.68,10.54-27.57,13.39-8.84,2.53-25.83-6.92-26.13-19.12a16.1,16.1,0,0,0-.75-4.29c-1.39-4.57-4.61-6.37-8.95-4.52a22.29,22.29,0,0,0-7.18,4.76c-11,11.36-24.68,18.06-39.51,22.68-14.44,4.49-28.34-.24-37.19-12.44-5.23-7.21-10.33-8.27-17-2.36-8.65,7.6-18.91,11.63-29.55,15.09-12.84,4.16-23.53-.52-32.92-8.85-2.24-2-3.27-5.48-4.46-8.44-3.23-8.11-9.66-10.33-16.39-4.81-20.82,17.05-45.4,23.39-71.36,23.14-38.2-.37-57.13-34.13-49.58-64.8,3.36-13.64,8.54-26.35,16.74-37.84,3.52-4.94,3-9.25-1.22-13.53a49.57,49.57,0,0,0-7-5.87c-25.58-17.73-40.55-55.87-28.33-88.18C41,67.42,49.35,56.25,58.74,45.56c4.19-4.78,9.51-4.51,13.81.25,6.55,7.24,6.23,13.61-.4,20.86-12.49,13.65-20.1,29.45-15.68,48.16,2.05,8.68,7.24,16.75,11.73,24.69,2.33,4.12,6.1,7.49,9.47,11,6.59,6.82,14.42,5.4,19-2.88,8.9-16.08,18-32,27.12-48C131.14,86.73,138.47,73.81,146,61c7.2-12.16,15.67-23.19,27.13-31.89a35.9,35.9,0,0,1,22.36-7.84c7.1,0,14.2.23,21.3,0,9.8-.34,17.31,3.56,23.73,10.84,10.3,11.69,13.65,25.62,13,40.49-1.44,30.61-16.25,55.23-36.19,77.31a115.79,115.79,0,0,1-49.89,32.31c-15.39,5.17-31.39,9.17-48,6.14-6.73-1.23-12,.83-16,6.51C95.22,206.53,89.76,219.33,86,233c-4.43,16.1,10.9,36.61,29.09,36.75,19.45.14,35.92-7,51.87-16.5,16.85-10,30.64-23.73,43.43-38.33,4.83-5.52,8.37-12.26,12.08-18.68,7.68-13.27,15-26.76,22.62-40.05,10-17.4,23-32,41.11-41.31a49.41,49.41,0,0,1,31.54-5.12c13.59,2.4,22.21,11.52,27.6,23.54,3,6.66,6.11,11.64,14.26,12.44,5.58.56,7.17,5.59,4,10.72-2.67,4.41-5.84,8.52-8.43,13q-18.92,32.67-37.64,65.47c-3.45,6-7,12-10.21,18.13-2,3.92-3.45,8.29-.38,12.37s7.87,4.37,12.38,3.48a26.79,26.79,0,0,0,9.31-3.75c19.22-12.59,35.19-28.73,50.36-45.85,10.66-12,14.7-27.11,20.58-41.34,7.21-17.45,13.82-35.15,20.84-52.68,4.27-10.66,8.35-13.19,19.93-13,4,.06,8.1-.12,12.1.34,5.09.58,6.9,3.5,5.79,8.54a19.23,19.23,0,0,1-1,3.22Q442.64,159.21,428,194c-6.11,14.42-12.46,28.74-18.54,43.17a26.08,26.08,0,0,0-1.94,8.43,5.32,5.32,0,0,0,2.23,4.28c1.17.56,3.63,0,4.67-1,3.61-3.45,7.36-6.94,10.11-11.05,7.71-11.53,14.84-23.45,22.38-35.09,8-12.33,16.16-24.53,24.26-36.78q12.42-18.76,24.84-37.53c1.16-1.75,2.39-3.46,3.4-5.29,6.21-11.24,16.8-11.89,27.72-11.29,5.43.3,7.62,4.07,5.71,9.23a27.78,27.78,0,0,1-3.65,6.23c-8.26,11.54-16.82,22.88-24.84,34.58-8.48,12.37-16.84,24.86-24.48,37.76A54,54,0,0,0,473.3,218c-1.16,7,3.48,11.5,10.63,12.28,6.81.74,12.71-1.77,18.18-5.48,9.27-6.3,16.23-14.77,21.83-24.32,10.13-17.26,19.52-35,30.07-52,10.75-17.3,25.39-30.54,45.14-37.06,22.61-7.46,42.35,1.83,51,24,2.05,5.27,5.45,7.93,10.79,9.17,8.26,1.93,10.13,7.48,5.38,14.35-5,7.15-10.05,14.23-14.4,21.73-8.26,14.24-15.92,28.81-24,43.14-5,8.84-10.35,17.48-15.55,26.21-.57,1-1.3,1.87-1.78,2.89-2,4.27-2.92,8.75-.17,12.94s7.25,4,11.42,3.27a23.94,23.94,0,0,0,8.61-3c14.42-9.05,27.84-19.4,39.07-32.31,8.37-9.61,16.67-19.29,24.65-29.23,3.2-4,5.53-8.7,8.09-13.18,9.22-16.1,18.28-32.29,27.57-48.35,11-19,22.19-37.85,33.21-56.81,7.7-13.26,15.5-26.47,22.79-39.95,4.08-7.55,9.7-11.3,18.3-10.81,4.18.23,8.4-.22,12.6-.06,5.37.2,7.54,3.1,6.35,8.35A17.12,17.12,0,0,1,821,48.74c-9.78,16.5-19.67,32.92-29.42,49.43-10.91,18.48-21.82,37-32.52,55.55-11.59,20.14-22.89,40.45-34.42,60.63-6.89,12.05-14,24-21,36-4,6.95-4.33,12.23-1.09,15.74,3.49,3.76,10.94,4.64,17.21.95A148.41,148.41,0,0,0,741,252.59c14.8-12.57,28.5-26.34,39.73-42.27,4.92-7,9.15-14.46,13.43-21.87q19.29-33.3,38.33-66.76c3.74-6.59,8.91-9.93,16.56-9.49,4.51.26,9.07-.12,13.56.29,6.32.56,8.42,4.79,5.21,10.2-10.37,17.49-21,34.84-31.18,52.44C825.11,195,814,215,802.64,234.92c-2.64,4.63-5.63,9.06-8.18,13.74a37.63,37.63,0,0,0-3.89,9.33c-1.37,6,1.77,10.82,7.83,10.8,4.92,0,10.51-1,14.63-3.52,15.87-9.6,28.6-23,41.76-35.9,16.58-16.29,26.46-36.85,38.45-56.13,9.26-14.9,16.69-31.15,30-43.23,16.63-15.15,36.11-22.16,58.7-19.77,16.72,1.77,34.4,19.52,27.37,40.94-7.38,22.48-19.83,41.41-39,55.79-11.14,8.37-23.33,13.92-37.2,15a64.59,64.59,0,0,1-17.69-1.31c-9-1.84-12.35-1.24-17.35,6.35a50.88,50.88,0,0,0-6.26,13c-4.34,14.31,4.42,27.42,19.34,29.13a55.71,55.71,0,0,0,32-5.34c25.41-12.61,46.2-30.87,63.95-52.49,18-21.94,34.92-44.81,52.32-67.27,1-1.28,2-2.51,3.11-3.71,6.28-7,6.9-14.06,1.11-21.4-8.25-10.47-7.52-21.1-1.43-32a77.91,77.91,0,0,1,6.17-9.85c3.78-4.9,9.51-5.15,13.83-.69,5.95,6.13,10.55,12.58,6.54,22-2,4.8-.13,9.32,3.18,13.44,9.09,11.32,18.26,22.6,26.79,34.33,7.49,10.29,7.26,21.61,1.31,32.52-12.21,22.4-24.76,44.61-37.22,66.86-1.26,2.25-3,4.2-4.33,6.42-2.49,4.26-3.62,8.87-.77,13.29,3,4.62,7.87,4.79,12.62,3.82a25.17,25.17,0,0,0,8-3.18c18.67-11.41,34.26-26.32,48.15-43.11a43.44,43.44,0,0,1,5.26-5.66c4.57-3.86,9.32-3.42,14,.31,2.09,1.67,5,2.36,7.49,3.49ZM229.3,71.85l-.78-.49c-.75-3.45-1.12-7-2.32-10.31-4.68-12.78-17.47-17.56-29.46-11.32-9.53,5-16.23,13-21.62,21.75-11.05,18-21.15,36.58-31.88,54.78-4.57,7.76-9.87,15.08-14.54,22.78a32.21,32.21,0,0,0-4.26,10.09c-.94,4.67,1.88,7.78,6.62,8.26a14.68,14.68,0,0,0,5.77-.17c10-3.17,20.56-5.3,29.69-10.13,24.76-13.09,42.8-33.08,54.13-58.7C224.39,89.92,226.46,80.72,229.3,71.85Zm400.48,82.38c-.37-9.2-6.74-16.09-16-16.64-7.15-.43-13.17,2.36-18.52,7-8.84,7.66-14.77,17.49-20.48,27.42-13.91,24.19-27.59,48.5-41.34,72.78a85.69,85.69,0,0,0-5.15,9.87c-3.27,8.08,1,14.83,9.67,14.35a29.42,29.42,0,0,0,13.13-4.09c17.75-10.77,31.28-25.82,42-43.45,4.36-7.15,8.4-14.5,12.6-21.74,7.21-12.42,14.52-24.77,21.56-37.28C628.62,160,629,157,629.78,154.23ZM232.42,270.46c4.69-1.6,8.62-2.29,11.86-4.18a132.46,132.46,0,0,0,16.79-11.44c12.8-10.41,22.09-23.89,31-37.52,5.65-8.61,10.51-17.75,15.57-26.75s10.5-18.16,15-27.62c4-8.4,2.33-17.15-3.45-21.83-6.8-5.52-14.75-5-21.29-.58A74.33,74.33,0,0,0,280.55,157c-5.35,7-9.05,15.21-13.49,22.88q-16.73,28.91-33.47,57.78c-2.82,4.88-5.72,9.72-8.51,14.62-2.37,4.15-3.55,8.87-.81,12.85C226,267.61,229.72,268.77,232.42,270.46Zm696.69-66.18.18.56c4-1.12,8.22-1.79,12-3.44,20.62-9,31.05-26.86,39.3-46.4.89-2.11.76-4.78.62-7.17-.42-7.39-5.47-12.12-12.91-12.42-7-.27-12.64,3-17.11,7.82a171.44,171.44,0,0,0-15.55,19c-6.25,9-12.09,18.33-17.49,27.86-4.22,7.44-1.35,12.39,7.11,13.77C926.53,204.08,927.83,204.15,929.11,204.28Z"/><path d="M590.27,630.27c-6.54-3.25-13.53-6.43-20.22-10.12-15.54-8.55-30.86-17.5-46.41-26-13.29-7.27-26.9-14-40.09-21.41a13.72,13.72,0,0,1-5.74-8.1c-.87-3.79,2.89-5.6,6-7.24,16.2-8.66,32.41-17.3,48.55-26.09,17-9.25,33.9-18.69,50.89-28,5.7-3.11,11.25-2.71,17,.52q44.13,24.7,88.44,49.08c2.82,1.55,5.88,2.66,8.81,4,3.45,1.62,6.69,3.45,6.6,8s-3.19,6.43-6.56,8.21c-6,3.15-12,6.18-18,9.44-26.43,14.54-52.81,29.17-79.27,43.67C597.53,627.79,594.41,628.64,590.27,630.27Z"/><path d="M1039.59,417.86q0,10.65,0,21.3c0,8.36-3.67,14.56-11,18.56-7.64,4.18-15.28,4-22.42-1-7.71-5.31-12.49-12.47-12.46-22.26,0-12.1,0-24.2,0-36.3.05-10.67,5.6-18.08,14.69-22.72,12.69-6.47,30,4,30.89,18.66.46,7.88.08,15.81.08,23.72Zm-14.45-.3h-.28c0-1.94,0-3.87,0-5.81,0-4.36.32-8.73,0-13.06-.33-5.14-3.81-8.7-8-8.85s-7.52,3.39-8.26,8.57a27.57,27.57,0,0,0-.18,3.86c0,9.35-.31,18.71.13,28a23.88,23.88,0,0,0,3.22,11.31c3.21,5.05,10.2,3.77,12.15-1.93a28.67,28.67,0,0,0,1.12-8.08C1025.26,426.92,1025.14,422.24,1025.14,417.56Z"/><path d="M272.2,414.1c-.34,6.6-.52,13.22-1,19.8-.88,11.24-8.4,17.18-18,20.51-8.93,3.1-16.7-.49-22.45-7.36a20.12,20.12,0,0,1-4.51-11.26c-.54-13.84-.53-27.73-.13-41.59.42-14.77,17.8-25,31.12-18.65C267.33,380.36,273,388,272.46,399.6c-.22,4.82,0,9.67,0,14.51Zm-31.83.19h.42c0,6-.34,12,.13,17.9.3,3.95,2.77,7.16,7.12,7.3s7-2.85,8.19-6.93a12.61,12.61,0,0,0,.48-3.35c.08-9.85.28-19.7.11-29.55-.1-6.06-4-10.76-8.35-10.87s-7.84,4.62-8.07,11C240.23,404.6,240.37,409.45,240.37,414.29Z"/><path d="M148.61,437.64c0-12.42.21-24.84-.06-37.25-.24-10.61,4.46-18.62,13.11-23.78a22,22,0,0,1,13.76-2.51c7.22,1.17,13.74,4.89,17.57,11.68,2.67,4.71,2,9.43-1.08,12s-6.7,1.74-11.19-2.2c-.6-.53-1.22-1.06-1.81-1.61-2.82-2.65-5.93-5-9.92-2.89s-4.84,5.75-4.79,9.89c.11,10.31.13,20.63.23,30.94a25.3,25.3,0,0,0,.51,5.29c1.61,7,7.27,8.8,12.62,4,2.16-1.94,4-4.28,6.29-6,4.7-3.52,10-1.13,10.54,4.72a14.46,14.46,0,0,1-.93,6.13c-3.36,8.91-17.56,16-27.46,14C156.3,457.93,148.47,447.89,148.61,437.64Z"/><path d="M915.49,425.68c0-7.2-.13-18.16,0-29.11.19-11.81,8.1-20.82,19.7-22.87,7.86-1.39,20.39,4.32,24.26,11.25,1,1.79,2.09,4,1.84,5.87-.35,2.47-1.39,5.6-3.23,6.87-1.6,1.1-5,.68-7.08-.3-2.51-1.19-4.42-3.66-6.59-5.58-5.56-4.94-12.76-3-13.18,4.34a353,353,0,0,0,.07,37.09c.28,6,6.47,8.42,11.65,5.26,2-1.24,3.63-3.18,5.55-4.63,3.26-2.46,6.83-4.22,10.52-1.05,3.5,3,3,6.88,1.28,10.65-3.17,6.81-13.85,12.46-21.9,11.71C924.85,453.91,915.1,443,915.49,425.68Z"/><path d="M765.54,381.44c-.76,3.36-1.08,5.44-1.7,7.43-4.5,14.47-9,28.94-13.65,43.37a37,37,0,0,1-3.87,8.82c-3.64,5.58-10.58,5.74-14.61.39a23.37,23.37,0,0,1-3.35-6.9c-4.44-13.83-8.81-27.67-13-41.57-1-3.36-1.94-7-1.59-10.41.25-2.44,2.26-5.95,4.28-6.63,2.31-.78,6.27.2,8.12,1.93,2.12,2,3.13,5.5,3.87,8.53,1.16,4.84,1.08,10.06,2.75,14.68,1,2.68,4.05,5.86,6.67,6.4,3.85.78,5-3.45,5.67-6.56,1.06-4.72,1.37-9.61,2.59-14.27.82-3.19,1.92-7,4.23-8.91,2.16-1.81,6.29-2.51,9.14-1.87C763.08,376.31,764.36,379.85,765.54,381.44Z"/><path d="M526.93,406.34c-.32,4.33-.58,8.68-1,13s.43,8.61,4.56,10.93,7.71,0,10.83-2.87c.83-.77,1.65-1.55,2.53-2.26,3.17-2.52,6.53-3.7,10.09-.83,3,2.38,3.13,6.54.62,10.55-3.91,6.25-17.08,12.07-24.19,10.69-13.28-2.58-19.49-10.06-19.5-23.48,0-8.39,0-16.78,0-25.17-.09-15.31,13.69-26.54,28.5-22.27,5.29,1.52,10.1,5.41,14.53,9,3,2.42,3.29,6.3.47,9.51-2.67,3-6,2.9-9.22,1-2.08-1.22-3.91-2.86-6-4.12-5.88-3.61-11.62-1.12-12.58,5.71-.49,3.47-.09,7.07-.09,10.61Z"/><path d="M798.24,433.31c0-16.18,0-29.9,0-43.61,0-10.37,3.8-14.36,14.15-14.8,3.22-.14,6.44-.51,9.67-.55,2.23,0,5-.42,6.58.69,2.06,1.46,4.3,4.24,4.32,6.47,0,1.67-3.14,3.73-5.27,4.93-1.39.79-3.79-.21-5.18.57-2.47,1.39-5.71,3.16-6.39,5.45s.86,5.7,2.33,8.06c1.09,1.74,3.69,2.49,5.48,3.86,4.16,3.21,4,6.85-.41,9.72-1.75,1.15-3.72,2-5.38,3.25-3.67,2.81-5.26,6.44-3.81,11.08,1.4,4.47,4.26,7.1,9.06,7.45,2.26.16,5-.25,6.63.86,2.26,1.53,4.78,4,5.27,6.51.68,3.49-2.78,5.16-5.76,5A181.09,181.09,0,0,1,806,446C800.53,445,798.19,439.28,798.24,433.31Z"/><path d="M246.22,674.35c-2.65-1.5-4.59-2.52-6.45-3.69-6-3.73-11.75-7.84-17.94-11.2-7.26-4-8.36-8.88-3.2-15.14,4.51-5.46,8.52-11.32,12.74-17,.76-1,1.36-2.2,2.15-3.22,2.63-3.38,5.42-6.88,10.37-5.41,4.6,1.36,4.73,5.63,5.17,9.5.61,5.24,1.79,6.15,6.85,5.15,1.43-.28,2.83-.7,4.26-.9,3.3-.48,7.23-.76,8.4,2.83a12.4,12.4,0,0,1-.95,9c-4.79,8.37-10.18,16.4-15.58,24.4C250.62,670.78,248.35,672.32,246.22,674.35Z"/><path d="M442.9,422.59c0-10.8,0-21.6,0-32.39.07-11.68,3.3-14.95,14.88-15.36,3.86-.13,7.74-.66,11.58-.49,3.53.16,7,1.43,7.28,5.66s-3.16,5.54-6.61,6.38c-1.88.45-4.12.35-5.58,1.37-1.94,1.36-4.38,3.46-4.58,5.45-.22,2.21,1.49,4.9,3,6.92.95,1.28,3.07,1.66,4.59,2.57,4.75,2.83,4.8,6.7.12,9.72-1.48,1-3.21,1.55-4.66,2.55-3.62,2.5-5.62,5.92-4.56,10.38a9.51,9.51,0,0,0,8.34,7.69c2.4.36,5.12.12,7.09,1.22s5,3.76,4.82,5.48c-.19,2.18-2.77,4.68-5,6-1.71,1-4.39.6-6.62.45-4.34-.28-8.67-.81-13-1.23-6.8-.65-10.26-3.9-10.83-10.73-.32-3.85-.06-7.74-.06-11.61Z"/><path d="M677.2,761.47c-4.77.6-7.61-2.2-8.54-6.49-2-9.13-3.83-18.3-5.1-27.55-1-7.48,4.21-10.87,11-7.6,1.6.77,3.1,1.75,4.71,2.47,2.74,1.21,5,.66,6.65-2a27.85,27.85,0,0,1,3-4.38c3.88-4.17,9.55-3.16,11.71,2.11a24.7,24.7,0,0,1,1.21,5.16c1.43,8.4,2.65,16.84,4.26,25.21,1.16,6-.55,9-6.52,9.94C692.14,759.45,684.67,760.43,677.2,761.47Z"/><path d="M599.85,419.27c0-5.63-.21-11.28.06-16.9.29-6-1.56-10.75-6.59-14.15-.54-.36-1.1-.69-1.6-1.1-2.64-2.13-5.83-4.19-4.49-8.24s5-4,8.46-4.05q12.51-.16,25-.36c3.41-.05,6.68.54,7.95,4.16,1.35,3.84-.7,6.88-3.94,8.4-8.61,4-10.38,10.79-9.56,19.57s.67,17.39.66,26.09c0,6.44-3.09,10.19-7.85,10.3-5,.11-8.35-3.66-8.68-10.18-.22-4.5,0-9,0-13.54Z"/><path d="M306.32,411.92q0-10.43,0-20.84c0-2.26-.09-4.53.11-6.78.49-5.6,3.85-9.28,8.15-9.12,4.08.15,7.25,3.7,7.3,9.32.12,11.63-.22,23.25-.31,34.88a67.73,67.73,0,0,0,.35,8.67c.55,4.47,3.14,7.31,7.57,8.4,1.41.35,3.23.39,4.09,1.3,1.83,1.94,4.34,4.36,4.33,6.58,0,1.88-3,5.12-5,5.36a83,83,0,0,1-18.77.26c-5.08-.54-7.5-4.74-7.62-11.38-.16-8.88,0-17.77,0-26.65Z"/><path d="M878.56,93c-10.44,0-21.44-10.58-21.4-20.63,0-9.8,11.38-21,21.25-21,9.08,0,21.05,11.84,21.11,20.85C899.58,81.69,888.13,93,878.56,93Z"/><path d="M374.15,409.42c0-7.43-.12-14.86.06-22.28.06-2.53.1-5.61,1.49-7.4,1.66-2.13,4.84-4.45,7.19-4.29s5.3,2.92,6.42,5.28c1.3,2.74,1.21,6.29,1.17,9.48-.12,9.84-.52,19.68-.79,29.53-.25,9.35,2,12.46,10.83,15.12,1.38.42,3.18.59,4,1.56,1.52,1.83,3.63,4.33,3.33,6.2s-3.28,4.59-5.1,4.6a118.24,118.24,0,0,1-21.61-1.53c-5.18-.93-6.6-5.79-6.67-10.6-.13-8.55,0-17.11,0-25.67Z"/><path d="M369.5,695.49c-.62,9.58-6.34,18.49-13.31,26.65-1.46,1.71-4.84,3.26-6.8,2.76a72.62,72.62,0,0,1-16.47-6.22c-3.43-1.85-3.77-6.16-2.18-9.59,4.68-10,9.56-20,14.74-29.8,2.12-4,6.12-5,10.5-3.79C362.61,677.38,369.7,687,369.5,695.49Zm-9.62,4c-1.87-2.62-3.1-6.12-5.09-6.64s-4.81,1.87-7,3.4a5.75,5.75,0,0,0-2,3.76,69.18,69.18,0,0,0,.13,8c3.06-.26,6.55.3,9-1C357.1,705.84,358,702.52,359.88,699.48Z"/><path d="M790.43,687.11c8.43.15,15.24,6.29,15.13,13-.13,8.45,1.14,16,8,21.76a4.9,4.9,0,0,1,.8,4.67c-.65,1.17-3.25,2.4-4.36,2-7.07-2.74-12.54-2-16.22,5.44-.31.65-4.32.46-5.56-.58-1.54-1.31-2.15-3.85-2.89-5.95-2.88-8.18-5.62-16.42-8.49-24.6-1.91-5.46-.85-9.15,4.19-11.82A90,90,0,0,1,790.43,687.11Z"/><path d="M515.37,754.71c.62-8.67,1.15-17.34,1.89-26,.38-4.51,3.09-7.29,7.6-7.12a86.6,86.6,0,0,1,14.34,1.86c4,.83,5.84,3.7,5.66,7.86-.37,8-.66,16.08-1,24.12-.37,9.58-4.19,11.92-13,8.41-2.28-.91-5-.92-7.54-.89C516.9,763,514.89,761.14,515.37,754.71Z"/><path d="M680.43,390.17c0,13.22.06,26.44,0,39.65,0,2.55.08,5.59-1.21,7.51a13.83,13.83,0,0,1-7,5.47c-3.67,1-6.62-1.66-7.7-5.14a31.63,31.63,0,0,1-1-9c-.11-12.24-.09-24.49,0-36.73a51.34,51.34,0,0,1,.56-9.62c.83-4.12,3.31-7,8-7s6.65,2.93,7.63,6.79a72.59,72.59,0,0,1,1.14,8.11Z"/><path d="M925.4,623.42c1.31.72,3.66,1.52,5.38,3,6.76,5.94,13.35,12.08,20,18.21a23.43,23.43,0,0,1,3.84,4.31c3,4.7,1.23,8.41-4.32,8.29-5.71-.12-9.33,1.89-11.7,7.27-2.28,5.15-6.47,5.17-9.44.37a31,31,0,0,1-2.51-6.24c-2.55-7.41-5.1-14.83-7.53-22.28a18.83,18.83,0,0,1-1.36-6.52C917.91,625.94,920.45,623.89,925.4,623.42Z"/><path d="M312.5,661.79c-.8,3.52-1.34,5.88-1.88,8.23-1.5,6.61-2.93,13.24-4.56,19.82a31.24,31.24,0,0,1-2.82,8.17c-2.39,4.14-6.63,4.54-9.49.73-3.36-4.47-7.3-6.84-13-7.19-4.17-.26-5.25-3.31-3.12-7a12.34,12.34,0,0,1,1.4-2c7-8.05,13.79-16.27,21.15-24,1.72-1.79,5.58-2.76,8-2.21C310.12,656.82,311.34,660.21,312.5,661.79Z"/><path d="M864.54,663.85c.76-2,1.09-4.47,2.43-6.07a64.66,64.66,0,0,1,9.29-9.13,8,8,0,0,1,11.54,1.84c2.26,3.31,1.24,6.66-3,9.83-7,5.24-7.8,9.25-3.33,16.28,3.12,4.91,6.45,6,12,3.95.9-.34,1.76-.8,2.66-1.14,3-1.13,6.71-2.32,8.13,1,.88,2.1-1.06,5.43-1.86,8.17-.15.54-.85.94-1.32,1.38-10.22,9.46-18.79,8.32-26-3.69-3.14-5.25-5.89-10.74-8.62-16.21A39.73,39.73,0,0,1,864.54,663.85Z"/><path d="M611.58,757.75c1.17-9.27,2.13-18.56,3.6-27.78.66-4.16,2.88-7.72,7.89-7.71,4.7,0,6,3.55,7.1,7.27,2.2,7.54,4.52,15,6.71,22.58a36.25,36.25,0,0,1,1.59,7c.35,4.39-2.42,6.69-6.37,4.84a18.84,18.84,0,0,0-14.47-.78C613.12,764.63,610.91,762.44,611.58,757.75Z"/><path d="M385.87,730.92c4.69-11.24,9-22.66,14.25-33.63,1.93-4,8.25-4.18,12.12-1.55s4.11,5.14,1.57,10.5c-3,6.38-5.45,12.91-10.78,18.11-1.64,1.61-.38,6.23-.34,9.47,0,2.87.2,5.74.32,8.61-3.22-.25-6.69.18-9.6-.9C389,739.9,386.58,736.26,385.87,730.92Z"/><path d="M743.67,709.62c-1.55,4.43-.49,9,2.61,13.44a7.82,7.82,0,0,1,.83,5.56c-1.23,5.37.89,8.89,5,12,1.7,1.29,4,4.43,3.52,5.41a11,11,0,0,1-6,4.85c-6.58,2.1-11.66-.33-13.86-6.92-3.06-9.17-5.78-18.49-8-27.9-1.64-7,2.47-12.05,9.47-13.07C742.05,702.34,743.89,704,743.67,709.62Z"/><path d="M854.22,708.21c-1.26,1.84-2.24,4.85-3.88,5.26-2,.51-5.47-.45-6.68-2-2.8-3.64-4.76-8-6.8-12.13-2.47-5.06-4.67-10.25-7-15.38-.4-.88-1.21-1.82-1.1-2.64.37-2.66.23-6.14,1.85-7.7,2.44-2.37,5.88-1.1,8.11,1.43a25.78,25.78,0,0,1,3.47,5.7c3.1,6.34,6.15,12.7,9.06,19.12C852.38,702.29,853.08,704.93,854.22,708.21Z"/><path d="M474,750.17c2-8.86,3.93-19,6.52-28.94.84-3.24,3.43-6.41,7.5-5.35,3.92,1,3.92,4.77,3.61,8a70.51,70.51,0,0,1-1.59,8c-1.17,5.49-2.38,11-3.53,16.48-.3,1.41-.36,2.88-.69,4.29-.84,3.63-2.17,7.34-6.67,6.85S474.22,755.13,474,750.17Z"/><path d="M784.29,563.94c0,6.12-3.31,10-8.57,10.31s-9.07-3.59-9.64-9.42c-.83-8.51,2.39-13.88,8.56-14.28S784.35,555,784.29,563.94Z"/><path d="M375,562.63c.13-6.67,2.55-10.78,6.45-10.94,4.16-.16,7.3,4.7,7.34,11.34,0,5.91-3.16,10.48-7.21,10.32S374.91,569,375,562.63Z"/><path d="M323,562c1-2.45,1.51-5.29,3.1-7.26a6,6,0,0,1,10.54,1.63,21.6,21.6,0,0,1,1.38,8c0,4.59-3,7.49-7,7.59-4.23.1-6.83-2.48-7.28-7.27-.07-.8,0-1.61,0-2.41Z"/><path d="M403.29,562c.14-1.55-.16-3.86.65-5.65s2.66-4.24,4.25-4.39c1.93-.19,5.49,1.38,5.83,2.79a37.45,37.45,0,0,1,1,13.48c-.47,3.36-3.78,5.13-7.52,4.38S403.36,569,403.3,566C403.28,564.84,403.29,563.71,403.29,562Z"/><path d="M824.9,562.38c.22-2.57.12-5.22.73-7.69,1-4.06,4.21-4.79,7.21-1.88,4.78,4.66,5.25,13.41.65,18-1.32,1.3-3.84,2.63-5.27,2.19s-2.54-3-3.07-4.8-.11-3.84-.11-5.77Z"/><path d="M797.44,566.11c.12-4.72,2.81-8.51,5.61-8.42s5.57,3.76,5.43,7.49-1.72,6.34-5.69,6.43S797.6,569.06,797.44,566.11Z"/><path d="M350.55,566.31c.89-4.72.4-9.25,4.91-9.27,3.91,0,4.55,4.07,4.77,7.32.24,3.45-1.28,6.55-5,6.13C353.33,570.28,351.73,567.44,350.55,566.31Z"/><path d="M856,565.3c-1.68,1.63-2.77,2.68-3.87,3.73-1.55-2-4-3.8-4.37-6-.31-1.67,1.92-3.81,3-5.74C852.39,559.77,854,562.23,856,565.3Z"/></svg>