<svg id="Слой_1" xmlns="http://www.w3.org/2000/svg" viewBox="0 0 1510 450"><title>brand-6</title><path d="M186.14,443.25c.55-4.49-2-6.84-5.95-7.14-9.48-.72-16.64-6.36-24.38-10.8-4-2.3-6.18-5.74-7.2-10.29-1.68-7.5-3.88-9.42-11.61-9.54-11.24-.16-17.46-7.79-23.62-15.36-5.95-7.3-11.22-15.15-17.13-22.49-3-3.7-4.35-7.46-3.06-12s4.65-7,9.11-7.53c10-1.19,20.12-2,30.17-3.11,4.14-.45,8.67-.25,12.28-1.93,13.54-6.29,28-6.52,42.38-7.85,5.69-.53,11.26-2.26,16.89-3.42,8.6-1.77,17.25-3.33,25.79-5.38,3.24-.78,7.17-1.83,9.16-4.15,13.58-15.8,26.69-32,40-48,6.68-8,13.61-15.81,20.33-23.78,5.38-6.37,10.73-12.78,15.91-19.32s10.62-7.73,17.38-2.57c7.13,5.44,13.95,11.29,20.87,17,11.26,9.26,22.48,18.58,33.78,27.8a19.36,19.36,0,0,0,5,2.84c9,3.58,13.33,10.48,13.46,19.79.13,9.46-.22,19-.95,28.39a34.28,34.28,0,0,1-3.39,11.47c-5.35,11.48-10.85,22.9-16.71,34.12-2.35,4.5-5.74,8.48-8.78,12.6-3.52,4.77-6.92,9.66-10.87,14a16.74,16.74,0,0,1-7.53,4.69c-4.91,1.38-8.49-1.43-9.16-6.51a31.13,31.13,0,0,1-.09-5.29q.86-20.19,1.8-40.36c.12-2.73.36-5.45.68-8.15.86-7.43-2.44-11.63-9.93-11.38-4.4.15-8.82,1.45-13.14,2.6-4,1.07-7.94,2.59-11.88,4-6.75,2.38-8.35,4.7-8.31,11.72.11,18.64.13,37.28.32,55.91.07,6.74.43,13.48.82,20.21.31,5.39-1.72,9.45-6.55,11.83-3.18,1.58-4.56,3.88-4.07,7.35ZM172.9,366.09c-5.89.09-9.75,3.67-9.61,8.9a7.32,7.32,0,0,0,7.67,7.48c4.8-.18,9.32-4.92,9.36-9.84C180.36,368.07,178,366,172.9,366.09Zm-1.23,46.49c5.73.1,8.63-2.47,8.75-7.76s-2.59-7.94-7.92-8c-5.51-.11-9.2,3.1-9.32,8.1C163.08,409.38,166.52,412.5,171.67,412.58ZM148.59,379c0-4.29-3.39-7.22-8.43-7.19-5.33,0-10,3.6-10,7.73,0,3.74,4.15,7.38,8.59,7.45C143.53,387.08,148.55,383,148.59,379Z"/><path d="M1484.28,234.93c-3.82-1-5.53.68-7.25,4.18-5.3,10.76-11,21.35-16.91,31.77-4.36,7.65-3.78,15.74-3.46,23.92.16,4.17.61,8.35.41,12.5-.3,6.24-4.09,10.23-9.27,10.39-6,.19-10.38-3.31-11.32-9.55a24.78,24.78,0,0,1,0-8.15c1.66-8.68.08-16.95-2.49-25.15a12.8,12.8,0,0,0-1.72-4c-9-11.74-13.19-26-20-38.8a26.15,26.15,0,0,1-2.81-8.65c-.57-4.07.61-7.81,5-9.36,4.63-1.64,10.19.06,11.37,4.5,3.06,11.55,12.56,20.27,13.84,32.58.22,2.08,2.08,4.44,3.85,5.81a5.72,5.72,0,0,0,9.45-3.95,34.79,34.79,0,0,1,7.47-17.89c1.8-2.28,2.44-5.56,3.29-8.48,3.29-11.31,5.63-13.11,17.28-12.94,1.13,0,2.25,0,3.38,0Z"/><path d="M63.34,9.55c7.87,0,15.75-.15,23.61.13,1.7.06,3.39,1.61,5,2.6,1.31.79,2.39,2.21,3.78,2.58,17.66,4.76,35.37,9.34,53,14.07,2.46.66,4.72,2,7.14,2.84,5.57,1.92,11.22,3.63,16.76,5.62,3.73,1.33,7.33,3,11,4.51,4.14,1.64,8.41,3,12.47,4.8,11.11,4.95,22.68,8.92,33,15.51a21.11,21.11,0,0,0,2,1.36c8.47,4.05,17,8,25.41,12.12a88.92,88.92,0,0,1,7.82,4.6c1.22.76,2.22,1.88,3.46,2.59,7.91,4.52,16.11,8.6,23.74,13.56,9.53,6.19,19.12,12.49,27.76,19.82,14.3,12.13,28.25,24.73,41.62,37.88a142.7,142.7,0,0,1,25.82,34.58c4.57,8.57,8.94,17.26,13.84,25.64,3.82,6.53,4.9,13.56,5.14,20.81.3,9,.33,18,.27,27a15.72,15.72,0,0,1-1.38,6.51c-2.14,4.43-7.4,5.19-10.13,1.14-8.24-12.24-21.43-18.62-32.16-27.88-9.59-8.28-19.95-15.67-29.54-24-5.25-4.53-10.45-5.91-17.22-4.47-17.74,3.76-35.57,7.11-53.4,10.39-7.72,1.42-10.65-1-14.5-7.94-4.83-8.77-10.49-17.09-15.78-25.6-3-4.91-5.75-10.07-9.19-14.68-7.56-10.13-15.45-20-23.35-29.91-.81-1-2.66-1.19-4-1.76-.27,1.6-1.26,3.56-.68,4.75,3.64,7.5,7.45,14.93,11.55,22.19,8.22,14.56,15.19,29.66,19.82,45.75,2.05,7.13-2.32,13.76-9.65,15.06q-27,4.8-54,9.33c-3.79.64-7.75.33-11.5,1.08-11.92,2.37-23.7,5.44-35.67,7.46-10.27,1.75-20.71,2.55-31.09,3.53-5.54.52-9.12-2.72-9.7-8.34a56.82,56.82,0,0,1-.1-6.26c0-21.68.09-43.35.06-65,0-22.73-2.9-45.16-7.14-67.45-1-5.35-.86-11-2.09-16.23-2.48-10.58-6.75-20.87-8-31.55-1.46-12-9.34-21.05-12-32.32-.46-2-3.14-3.42-4.83-5.08s-3.67-2.82-4.66-4.68c-2.2-4.11-.51-6.83,4.13-6.92,7.87-.14,15.74,0,23.62,0Z"/><path d="M798.31,288.28q0-11.79,0-23.59a4.39,4.39,0,0,0,0-1.44c-1.07-2.8-2.22-5.57-3.34-8.35-1.31,2.36-2.94,4.59-3.87,7.08-3.83,10.21-6.64,20.9-11.41,30.63-3.21,6.54-7.19,12.65-9.71,19.65-1.92,5.32-10,6.63-14.39,2.44-2.64-2.51-4.18-6.26-6-9.58-2-3.78-3.76-7.72-5.67-11.57-.5-1-1.4-1.82-1.79-2.85q-5.9-15.46-11.67-31c-.39-1-.3-2.41-1-3.19a22.64,22.64,0,0,0-3.75-3c-.84,1.24-2.35,2.46-2.39,3.73-.18,5.45.06,10.92.16,16.38.2,10.92.6,21.84.54,32.75,0,7.19-3.15,11.12-8,11.25-5.65.16-10.85-4.69-10.88-11.25-.05-10.42.79-20.85.91-31.28.15-13.16-.25-26.33,0-39.49a56.12,56.12,0,0,1,2.22-14.69c2.63-8.84,12.55-10.87,18.46-3.69,2.76,3.35,4.14,7.85,6.14,11.82,2.15,4.24,4.28,8.49,6.45,12.71.29.56.94.95,1.18,1.52,4.22,10.11,8.44,20.22,12.57,30.37,1.15,2.8,1.52,6.07,3.19,8.46a7.84,7.84,0,0,0,6,2.81c1.66-.12,3.9-2.25,4.59-4,4.2-10.69,8-21.53,12-32.29.67-1.8,1.28-3.87,2.57-5.13,5.11-5,6.46-11.65,8.89-17.91a29.42,29.42,0,0,1,6.17-10.09,9.53,9.53,0,0,1,16.05,3.7,43.82,43.82,0,0,1,2.21,13.21c.3,18,.17,36,.33,53.93,0,5.46.62,10.9.76,16.36a26.28,26.28,0,0,1-.61,6.68c-1.35,5.71-5.25,8.83-10.12,8.42-4.35-.36-7.18-3.77-7.4-9.74-.25-6.58-.06-13.18-.06-19.77Z"/><path d="M1360.66,267.87c9.78,0,19.58-.15,29.36.06,5.65.12,8.61,3,9.22,8.53a23.71,23.71,0,0,1-4.15,16.85c-6,8.68-12.52,16.79-22.14,21.56-4.34,2.15-9.09,4.28-13.8,4.71-8.45.75-17,.08-25.52.24-9.48.18-15.53-6.17-22.19-11.32-9.4-7.28-14.49-17.55-18.08-28.41a34.42,34.42,0,0,1-1-15.09c3.29-23.33,16.31-40.55,36.71-51.12,12.89-6.67,27-6.54,39.53,3.08,6,4.6,11.82,9.34,17.71,14,4.27,3.41,5.2,8,4.18,13-.88,4.35-6,6-10.64,3.37-3.73-2.16-7.81-4.32-10.53-7.51-6.39-7.5-14.82-8.37-23.58-8.66-18.24-.6-36,16.06-34.16,35a47.25,47.25,0,0,1,.08,7.71c-.5,7.63,2.25,13.73,8,18.7,13.71,11.8,27.57,16.43,44,7.09,1.79-1,4-1.36,5.74-2.42,2.29-1.36,5-2.71,6.3-4.83s1.76-5.53.82-7.56c-.74-1.61-4.17-2.78-6.4-2.77-7,.05-14.08.79-21.12,1.18a25.21,25.21,0,0,1-5.28-.25c-4.52-.71-7.84-4-7.93-7.78-.12-4.83,3.16-7.25,7.14-7.66,5.87-.59,11.84-.15,17.77-.15Z"/><path d="M1118.6,268.3c0,11.73.12,23.45,0,35.18-.12,8.59-2.63,12.7-8.12,14.32-5.12,1.51-9.28,0-12.66-4.47-9.4-12.54-19-24.91-28.12-37.69-4.16-5.85-7.21-12.5-10.73-18.81-1.44-2.58-3.16-5.94-6.37-4-1.78,1.06-2.79,4.79-2.74,7.29.29,15.53,1.18,31.06,1.44,46.6.12,7.07-3.66,10.78-9.63,10.84s-10.29-4-10.57-10.77c-.29-7.22-.15-14.46,0-21.68.53-19.89,1.07-39.79,1.84-59.67.31-7.85,3.52-11.4,9.36-11.8,4.5-.3,7,2.13,9.28,5.6,5.2,7.86,10.72,15.51,16.09,23.26,4.2,6.06,8.46,12.08,12.54,18.22,4.33,6.54,8.32,13.32,12.85,19.72,1,1.47,4.37,3,5.49,2.36,1.54-.85,2.81-3.72,2.75-5.69-.41-14.42-1.39-28.83-1.72-43.26a46.26,46.26,0,0,1,2.06-13.63c1.18-4.09,4.53-5.95,9-5.62,4.28.33,6.46,3.11,7.26,6.65a63.19,63.19,0,0,1,1.4,12.88c.18,11.4.06,22.8.06,34.2Z"/><path d="M638.38,319.89a31.55,31.55,0,0,0-3.37,0c-18.35,2-29.7-8.73-40.53-21.44-12.48-14.64-11.12-31.25-7.61-47.89,1.2-5.67,5.71-11.12,9.86-15.6a132.91,132.91,0,0,1,19.94-18c14.28-10.21,32.74-9.24,46.37,1.72a142.51,142.51,0,0,1,15.46,13.76c10.55,11.34,19.44,34.46,10.86,53.63-6.18,13.78-15.82,23.14-27.91,30.74-3,1.86-7,2.4-10.55,2.81-4.13.46-8.34.11-12.52.11ZM673.22,267c1.2-10.45-3.6-20.17-13.1-28.37-8.62-7.43-29.91-10.18-39.08-3.41-15.54,11.46-26.91,31.47-12.72,52.17,7.13,10.39,17,15.94,28.81,16.8C657.3,305.64,673,289.72,673.22,267Z"/><path d="M532.65,258.07c4.5,0,9,.17,13.5,0,6.35-.29,8.6-3.49,8.16-9.83-.51-7.35-.51-14.74-.67-22.12a14.62,14.62,0,0,1,.42-3.34c1.42-6.67,3.94-9.28,8.68-9.07,4.45.19,7.06,2.71,7.28,9.63.4,12.34-.21,24.7-.15,37.05,0,12.2.46,24.39.59,36.58a107.49,107.49,0,0,1-.46,13.91c-.47,4-2.72,6.93-7.25,7s-7.75-2.21-8.41-6.44c-.86-5.47-.81-11.1-.9-16.67,0-1.88.85-3.76,1-5.66.86-8.51-2.51-12.43-11-12.61q-10.85-.22-21.69,0c-6.82.15-9.7,3-9.69,9.87,0,7.05,1,14.12.63,21.14-.42,8.43-5.19,11.84-13.19,10.52-4.41-.72-7.54-3.12-8.42-7.5a56.75,56.75,0,0,1-.95-11c-.06-21.51-.08-43,.13-64.54a61.19,61.19,0,0,1,1.83-14.26c1.31-5.15,5.55-7.75,10.46-7.5s8.69,3.11,9.29,8.74c.76,7.14.59,14.38.7,21.59,0,2.23-.49,4.48-.47,6.72,0,5.4,2.2,7.64,7.57,7.82,4.33.15,8.67,0,13,0Z"/><path d="M1213.19,269.77c0-14.12-.56-28.26.17-42.34.59-11.41,4.1-14.15,15.31-14.81,6.08-.36,12.18-.59,18.27-.63,9.7-.07,17.79,3.69,24.29,10.86,3,3.32,6,6.69,8.94,10.07a11.24,11.24,0,0,1,1.62,2.38c6.75,13.44.2,36.71-12.47,44.36-6.79,4.1-7.22,8.8-1.82,14.89a71.76,71.76,0,0,1,8.82,11.83c2.8,4.95,1.8,8.73-1.82,11a9.34,9.34,0,0,1-11.82-2.07,136.63,136.63,0,0,1-9.2-11.72c-3.36-4.84-6.33-10-9.52-14.93-4.77-7.44-.86-17.23,8-18.68,9.51-1.57,12.36-9.18,16.12-16.14a5.55,5.55,0,0,0,.29-2.37c.15-7.64-10.08-18.46-17.7-18.66-4.15-.11-8.39-.59-12.43.05-6,.94-8.44,4.33-8.49,10.41-.12,12.65-.39,25.31-.2,38,.1,6.56,1.1,13.1,1.6,19.65.4,5.06.14,10-3.8,13.89-5.35,5.24-13,3.18-14.29-4.16-.87-4.84-.61-9.9-.66-14.86-.09-8.67,0-17.35,0-26Z"/><path d="M993.42,258.13c3.85,0,7.71-.07,11.56,0,4.21.1,7.6,1.58,8.61,6.14,1.11,5-.61,9.78-4.82,11.46a26.33,26.33,0,0,1-9.34,1.38c-4.32,0-8.64-.61-13-.76-9.27-.32-13.91,4.68-12.87,14a38.18,38.18,0,0,0,1.91,7.42c1.41,4.34,4.62,5.9,9,5.51,5.43-.49,10.88-1.43,16.29-1.22,3.4.13,7.54,1.12,10,3.28,5.38,4.83,2.8,12.44-4.33,13.73-3.1.56-6.38.2-9.57.18-8.35-.06-16.7-.11-25-.25-11-.2-16.17-4.2-17.21-15.25-.78-8.41.2-17,.19-25.45s0-17.26-.5-25.86c-.57-9.86-.5-19.59,2.58-29.07,2.62-8.07,6.8-11.28,15.24-11.41q15.38-.24,30.76-.06c7.36.07,11.49,4.42,11.27,11.44-.21,6.76-4.4,10.54-11.84,10.28-5.76-.2-11.52-.71-17.28-1.2-6.94-.6-10.61,2.53-10.95,9.51-.78,15.72-.27,16.24,15.5,16.2Z"/><path d="M1166.47,318.85c-5.3,0-10.61.23-15.9-.05-9-.49-14.17-5.24-14.41-14.21-.28-10.72.32-21.46.47-32.2.06-3.67,0-7.35-.13-11-.46-12.81-2-25.64,1.56-38.3,1.68-6.06,5.22-10.18,11.65-10.4,12.16-.42,24.34-.7,36.49-.36,6.34.17,9.81,5.14,9.49,11.61-.29,5.93-3.82,9.17-10.62,9.17-5.93,0-11.88-.24-17.79-.74-7.86-.67-11.69,2.54-12,10.55,0,.8,0,1.6-.1,2.4-.88,10.72,1.13,12.91,11.73,12.86,6.27,0,12.54-.16,18.8,0s9.79,3.21,10,8.19c.23,5.39-3.36,10.09-9.13,10.43a113.24,113.24,0,0,1-18.21-.72c-7.82-.81-13.9,3.45-13.76,11.33.08,4.22,1.87,8.66,3.82,12.54,2,4,6.25,3.63,10.26,3.28,5.58-.49,11.2-.81,16.8-.75s9.18,3.64,9.33,8.4-2.61,7.8-8.63,8.19c-6.55.42-13.14.09-19.71.09Z"/><path d="M858.21,212.86c6.25-.34,12.5-.89,18.75-.94a33.6,33.6,0,0,1,9.92,1.4,10.33,10.33,0,0,1,7,10.45,9.85,9.85,0,0,1-8.13,9,58.21,58.21,0,0,1-10.49.63c-4.81,0-9.64-.56-14.42-.27-5.5.34-7.62,2.71-8.45,8.1-2.25,14.64-.17,17,14.66,17,6.1,0,12.22,0,18.27.54,4.09.37,8,1.91,8.58,6.94A9.78,9.78,0,0,1,886.24,276c-4.13,1-8.53.88-12.82.95-3.36,0-6.72-.61-10.07-.58-6.93.05-10.92,3.47-12.06,10-1.19,6.79,2.2,14.16,8,15.78,3.57,1,7.56.57,11.36.62,4.76.06,9.59-.55,14.27.07s8.18,5,7.93,8.47c-.35,4.87-3.89,6.8-8,7.64a41.21,41.21,0,0,1-8.6.68c-9.31-.13-18.62-.44-27.92-.68-8.42-.22-11.84-3.2-12.14-11.58-.35-9.77-.1-19.56-.21-29.34-.14-11.39-.52-22.78-.53-34.17,0-6.1.36-12.2.86-18.28.81-9.77,4.38-12.91,14.18-12.94,2.57,0,5.14,0,7.71,0Z"/></svg>