<svg id="Слой_1" xmlns="http://www.w3.org/2000/svg" viewBox="0 0 1050 450"><title>brand-5</title><path d="M1023.35,379c-2.51.14-5,.16-7.53.44-6.13.71-11.55-2.31-12.26-8.36-.88-7.62-.42-15.38-.59-23.08-.14-6.29-.26-12.58-.59-18.86-.07-1.42-1-2.79-1.48-4.19l-1.6-.18a57.13,57.13,0,0,0-2.2,6.5c-2.42,11.37-4.51,22.82-7.12,34.14-2,8.87-7.73,14.2-14.26,14.29s-14-6-15.86-14.08c-2-8.55-3.07-17.32-4.61-26a68.33,68.33,0,0,0-1.78-7.8c-.26-.89-1.32-1.55-2-2.31a13.23,13.23,0,0,0-2.35,2.58,7.13,7.13,0,0,0-.54,3.23c.15,8.51.37,17,.58,25.52,0,1.1.21,2.2.22,3.3.1,9.61-4.37,14.88-12.59,14.86-8.8,0-14.89-6.51-14.73-15.47.36-19.7.71-39.4.87-59.09.06-6.93-.3-13.86-.71-20.78-.72-12.4,3.69-17.23,16-17.26,3.78,0,7.57,0,11.35,0,5,.07,8.29,2.58,9.85,7.33,4.64,14,10.63,27.71,9.34,43.08-.27,3.33.84,6.89,1.92,10.15.49,1.46,2.43,3.3,3.8,3.39s3.93-1.49,4.3-2.8c1.87-6.61,4.18-13.33,4.49-20.1a83.64,83.64,0,0,1,8.52-34.1c2.31-4.63,5.69-7.09,10.79-6.95,6.92.19,13.84.57,20.77.86Z"/><path d="M492.27,12.64c.3,6.9.81,13.81.85,20.71.05,8.94-3.77,13.77-12.61,14.66a105.42,105.42,0,0,1-22.11,0c-10.28-1.15-13.88-6.47-13.19-17,.41-6.11.46-12.25.67-18.37Z"/><path d="M845.37,12.64c0,7.88.14,15.76,0,23.63-.23,9.92-3.67,12.82-13.49,12.37-5.47-.26-11,0-16.44,0-7.69.09-10.8-2.2-11.33-10.05-.59-8.63-.27-17.32-.34-26Z"/><path d="M1023.35,241.73c-9.9,0-19.8.06-29.7,0-7.92-.05-10.85-3-10.95-10.81-.05-4.08-.09-8.17,0-12.25.21-8.18,4.25-12,12.35-12l28.28.06Z"/><path d="M1023.35,438.64c-7.23,0-14.46,0-21.69-.12-2.57,0-5.72.58-5.69-3.64,0-3.77.37-7.26,5-8.46a67.69,67.69,0,0,0,6.87-2.55c-2.26-.84-4.52-1.68-6.78-2.54-4.28-1.63-5.8-5.08-5.86-9.3-.07-4.88,2.79-9.16,7.66-10,6.76-1.17,13.67-1.5,20.52-2.19Z"/><path d="M661,320.45c0-13.72.1-27.44,0-41.16-.09-9,3.38-12.86,12.34-12.88,13.41,0,26.83.27,40.23,0s22.57,6.14,29.3,17.23c3.3,5.43,6.72,10.47,6.19,17.39-.43,5.43-1.73,10.16-5.37,14.27-4.9,5.53-5.29,11.45-2.6,18.43,2,5.11,2.14,10.91,3.09,16.4.67,3.82,1.27,7.64,2,11.45.52,2.76,1.59,5.48,1.7,8.24.19,5.21-3.08,8.82-8.28,9a53.61,53.61,0,0,1-12.19-1.08c-5.28-1.09-8.56-5.52-8.82-11.48-.22-5,.09-10.1-.06-15.14-.33-10.42-4.61-14.57-14.93-14.68-3.16,0-6.32-.11-9.46.07-6.36.37-8.9,3-8.65,9.29.22,5.51.8,11,1.37,16.49.77,7.51-2.83,14.19-9.09,16.53a11.88,11.88,0,0,1-15.89-8.3A33.75,33.75,0,0,1,661,363c-.08-14.19,0-28.38,0-42.57ZM702,313.67c3.31,0,6.63-.07,9.94,0,4.79.12,7.26-2.56,8.26-6.86A13.47,13.47,0,0,0,707.26,290c-2.37-.08-4.73-.09-7.1-.08-12.63,0-15.15,2.62-15,15.33,0,.47,0,.94,0,1.42.23,4.31,2.5,6.73,6.81,6.93C695.35,313.79,698.67,313.66,702,313.67Z"/><path d="M79.67,266.33c2.52,0,5.1.33,7.56-.06,13.46-2.12,21.87,5.68,29.59,14.84,2.32,2.76,4.84,5.49,6.49,8.65,4.2,8.06-.54,15.67-9.54,15.47-8.56-.19-15.65-3.09-19.72-11.39-.83-1.69-2.74-4-4.23-4a111.2,111.2,0,0,0-20.08.54c-3.58.51-6.92,4-5.86,7.93.69,2.56,3.87,5.08,6.54,6.34a150.52,150.52,0,0,0,18.06,6.87,45.09,45.09,0,0,0,11.06,2.19c10.67.62,17,8.19,24,14.61,1.23,1.13,1.86,3.43,1.92,5.22.23,7.55,1.12,15.27-.08,22.63-1.33,8.1-7.85,13.29-14.52,17.6a56.92,56.92,0,0,1-9.7,4.82,49.72,49.72,0,0,1-39.86-.75c-1.44-.63-2.69-1.88-4.16-2.19-9-1.89-12.93-9.74-18.14-15.76-3.56-4.13-3-10-.67-14.85a8.74,8.74,0,0,1,5.75-4.2c5.69-.8,11.32-.13,15.91,4.11,3.35,3.1,6.66,6.28,10.26,9.07,10.3,8,21.86,3.84,29.45-3.47,1.14-1.1,1.24-4.77.28-6.27-2.86-4.5-7-8.08-12.74-7.76-13.64.78-25.72-4.77-36.56-11.27-15.49-9.28-18.4-29.67-7.26-44.43C53,268.13,64.63,263.74,79.67,266.33Z"/><path d="M329.86,266.56c9.46,0,18.93-.29,28.37.08,10,.39,14.56,5.61,13.62,14.62-.6,5.75-3.67,8.75-9.69,8.78-12.29.07-24.59,0-36.88-.2-8.51-.11-11.57,3.35-9.9,11.62.85,4.23,3.18,6.73,7.82,6.55,8-.31,16.06-.45,24.08-.85,5.63-.28,11-.52,15,4.71a14.26,14.26,0,0,1,1,16c-2.81,5-7.33,6.5-12.8,6.2-9.28-.5-18.55-1-27.84-1.22-5-.12-7.85,4-8,10.86-.11,5.66,2.7,9.59,7.49,9.6,10.71,0,21.42-.29,32.13-.48.94,0,1.89-.15,2.83-.2,12.94-.55,19,8.64,13.53,20.55-2.17,4.75-6.22,5.84-10.94,5.74-13.86-.29-27.72-.6-41.58-.76a111.31,111.31,0,0,0-12.24.69c-9.67,1-16-5-15.87-14.62q.43-40.19.54-80.37c0-15.89,1.68-17.67,17.58-17.41,7.25.12,14.5,0,21.75,0Z"/><path d="M818,307.7c0,10.09.12,20.19,0,30.28-.14,9.52,5.9,14.41,13.25,18.43a7.4,7.4,0,0,0,2.73.71c8.71.9,18.07-7.67,18-16.36-.26-19.4-.56-38.79-.71-58.19-.11-13.78,5.41-18.26,18.93-15.69,8,1.52,11.16,5,11.13,13.32-.06,14-.48,28.06-.68,42.09-.1,6.76,1.15,13.8-.34,20.21-2.05,8.77-6.1,17.07-9.38,25.54a4.76,4.76,0,0,1-1.9,2.08c-8.95,5.47-17.42,12.11-28.77,11.78-4.57-.13-9.41.86-13.67-.31-12-3.3-23.84-8.08-30-19.49-3.19-5.88-3.71-13.67-3.88-20.64-.5-21.28-.33-42.59-.25-63.89,0-8,4.26-11.29,13.6-11.23,8.58.06,11.82,3,11.92,11.07.12,10.09,0,20.19,0,30.29Z"/><path d="M458.71,266.37c3.62,0,7.25,0,10.88,0,5.29-.06,9.83,1.45,13.59,5.45,1.69,1.79,4.19,2.79,6.06,4.45A47.45,47.45,0,0,1,495,282.3a50.45,50.45,0,0,1,5.6,8.08c1.59,3.12,3.27,6.5,3.57,9.89.41,4.62-2.54,7.42-7.16,7.67a86.79,86.79,0,0,1-12.28-.23,12.74,12.74,0,0,1-11.26-8.2c-3.36-8.23-9.52-11.52-18-10.3a20.48,20.48,0,0,0-7.53,3.2C433.5,301.31,437.5,316,436.75,329c-.24,4.18.79,8.47,1.56,12.65,1.71,9.36,14.42,16.56,23.49,13.53,5.38-1.79,9.78-4.29,12.48-9.88,3.15-6.5,13-10.68,20.21-9.64,4.1.59,7.17,2.72,8.49,6.61a11.24,11.24,0,0,1-1.73,11.17c-2.91,3.68-5.3,7.81-8.44,11.27a64.77,64.77,0,0,1-10.72,9.68A41.27,41.27,0,0,1,454,382c-6.1-.55-11.7-1.37-16.83-5.17-4.2-3.1-9.28-4.41-13.39-8.39-6.78-6.57-9.53-15.07-13.85-22.81a18.77,18.77,0,0,1-2.47-8.56c-.12-10.06-.06-20.15.65-30.18.23-3.17,2.63-6.22,4.13-9.27.9-1.83,2.32-3.46,3-5.36,3.79-11.51,13.47-17.54,22.56-24,2.22-1.58,5.69-1.68,8.63-1.89C450.49,266.14,454.61,266.37,458.71,266.37Z"/><path d="M197.88,266.16c8.18.37,16.43.18,24.51,1.25,12.4,1.63,26.38,18.28,26.58,30.71,0,2.52-.34,5.1.08,7.55,1.93,11.5-4.46,19.44-11.41,27.1a10.63,10.63,0,0,1-5.16,3.14c-9.94,2.2-19.54,6.12-30.1,5.26-7.48-.62-9.9,1.92-10.18,9.51-.18,5.19.13,10.4-.06,15.6-.32,8.81-4.41,13-12.27,12.81-8.17-.16-14.29-6-14.2-13.9.15-11.65.82-23.3.8-34.94,0-16.54-.57-33.08-.69-49.63-.07-9.89,4.23-14.08,14.12-14.2,6-.08,12,0,18,0Zm-5.94,36.5a58.94,58.94,0,0,0,.46,7.54c.64,3.55,2.61,6.34,6.61,6.1a75.75,75.75,0,0,0,14-1.77c6.74-1.68,9.71-8.48,7.07-14.9-2.72-6.64-7.14-10-14.84-9.88C192.91,290,192.2,290.2,191.94,302.66Z"/><path d="M567.1,331.67c0-10.89,0-21.77,0-32.66,0-7.37-2.07-9.32-9.32-9.16-4.1.1-8.21.59-12.27.28-6.66-.5-11.39-5.4-11.33-11.1a13,13,0,0,1,11.47-12.48,41.28,41.28,0,0,1,4.72-.15c18.78,0,37.55,0,56.32.08a43.16,43.16,0,0,1,9.38.85c8,1.81,11.5,7.69,9.52,15.66-1.25,5-5.29,6.48-9.68,6.87-4.23.37-8.52,0-12.77.17-7.39.27-10.56,3.77-10.41,11.06.33,14.81.54,29.63.89,44.44.13,5.35.36,10.7.82,16,.93,10.79-5.74,17.94-16.54,17.51-5.34-.21-8.58-2.55-10-7.75a32.51,32.51,0,0,1-.9-7.94c-.1-10.57,0-21.14,0-31.71Z"/><path d="M469.59,61.82c3.46,0,6.93-.16,10.38,0,7.54.42,12.45,4.91,13,12.36a134,134,0,0,1,0,16c-.21,4.63-2.81,8.14-7.46,8.36-10.64.48-21.34.76-32,.23-5.75-.29-7.68-3.42-7.76-9.35s-.52-11.65.24-17.35c.85-6.3,5.36-9.8,11.76-10.2,3.92-.25,7.86,0,11.8,0Z"/><path d="M644.69,99.6c-4.09,0-8.19.16-12.27,0-4.72-.22-8.19-3-8.33-7.42a156.06,156.06,0,0,1,.61-22.58c.7-6.26,4.11-8.56,10.4-8.66,6.61-.1,13.22-.08,19.83-.06,7.26,0,12,3,13.14,10.2a96.51,96.51,0,0,1,.65,20.61c-.25,4.67-4.42,7.31-10.33,7.9a13.52,13.52,0,0,1-1.42.08H644.69Z"/><path d="M230.22,147c-4.1,0-8.21.16-12.3,0-6.75-.33-9.7-3.44-9.78-10.09-.07-5.19-.37-10.41.06-15.57.51-6.28,4.17-9.78,10.48-10,8.19-.31,16.41-.44,24.58,0s12.4,5.48,12.4,13.61c0,3.94,0,7.88,0,11.83-.09,5.28-2.3,8.48-7.51,9.29-5.89.91-11.9,1-17.85,1.49Z"/><path d="M55.25,241.69c-7.09.37-15.31.67-22.67-3.81-1.31-.79-2.83-2.52-2.9-3.88a170.93,170.93,0,0,1,0-18.39c.08-1.46,1.77-3.18,3.16-4.16,10.75-7.6,23.07-4.13,34.77-4.51,7.09-.23,10.63,3.74,10.88,10.89.17,4.72.13,9.45-.09,14.16-.3,6.49-3.22,9.36-9.77,9.66C64.54,241.84,60.44,241.69,55.25,241.69Z"/><path d="M171.6,99.61c-4.09,0-8.19.15-12.27,0-5.31-.25-8.58-3.29-8.75-8.61a190.33,190.33,0,0,1,.22-20.27c.61-8.11,5-11.07,13.13-10.29a95.61,95.61,0,0,0,15.51.08c8.17-.54,13,3.21,13.65,11.34.42,5.64.64,11.3.74,17,.12,6.51-3.44,10.24-10,10.8-.32,0-.63,0-1,0H171.6Z"/><path d="M468.55,147.29c-5-.31-10.09-.25-15-1-6.12-1-8.48-4.52-8.21-10.68a75.83,75.83,0,0,0-.11-8.92c-.73-8.91,3.71-14.33,12.58-14.62,7.54-.25,15.12-.27,22.66,0,9.08.31,12.76,4.36,12.76,13.37,0,3.31,0,6.61-.05,9.92-.06,7.2-2.28,9.8-9.5,11.09a19.35,19.35,0,0,1-3.27.46c-3.94.06-7.87,0-11.81,0Z"/><path d="M882.06,147c-4.25,0-8.51.14-12.75,0-5.34-.22-8.5-3.27-8.71-8.62a151.71,151.71,0,0,1,.11-16.52c.52-7.23,4.46-10.59,11.71-10.76,6.28-.15,12.57-.36,18.86-.55,9.1-.28,15.53,5.94,15.56,15.11,0,3.46,0,6.93,0,10.39-.09,6-2.33,9.24-8.31,10.21-5.4.87-11,.79-16.44,1.13Z"/><path d="M230.06,194.33c-4.09,0-8.19.12-12.28,0-6.47-.23-9.53-3.32-9.64-9.69-.09-5.49-.26-11,0-16.47.26-4.69,3.19-7.82,7.83-8,9.72-.39,19.5-.8,29.18-.08,7.4.55,10.26,4.79,10.34,12.21,0,3.94.06,7.87-.05,11.81-.14,5.33-2.32,8.49-7.55,9.31-5.87.91-11.88.93-17.83,1.34Z"/><path d="M468.28,194.18c-4.25,0-8.53.29-12.75-.06-7.08-.59-9.69-3.64-9.74-10.72,0-4.41-.1-8.82,0-13.23.19-5.77,2.62-9.32,8.26-9.73a196.59,196.59,0,0,1,28.71-.34c7.66.56,10.41,4.8,10.4,12.59,0,3.78,0,7.56,0,11.34-.08,5.32-2.18,8.45-7.48,9.32-5.71.94-11.57,1-17.37,1.38Z"/><path d="M707.46,147.38c-5.45-.43-10.83-.54-16.08-1.36s-7.59-3.87-7.75-9.14c-.13-4.09-.13-8.19,0-12.28.17-8.19,4.59-13.07,12.79-13.45a209,209,0,0,1,21.24.08c8.24.47,12.38,5.29,12.39,13.54,0,4.41,0,8.82-.1,13.23s-2.3,7.35-6.58,8C718.06,146.77,712.7,147,707.46,147.38Z"/><path d="M293.82,194.66c-5.49-.33-11-.25-16.44-1.09-5.89-.92-7.58-3.47-7.61-9.46,0-4.56-.11-9.13.07-13.69.27-6.7,4.93-11.63,11.66-11.87,8-.28,16.05-.2,24.07,0,5.06.13,8.63,3.33,9.19,9.05a127,127,0,0,1,.23,19.31c-.24,4.44-3.68,7.14-8.41,7.34-4.24.19-8.49,0-12.74,0Z"/><path d="M230.41,207.67c4.41,0,8.84-.2,13.23.05,8.38.48,11.93,4.31,11.92,12.61,0,3.94-.07,7.88-.33,11.8-.32,4.84-2.91,8.44-7.76,8.68-10.66.52-21.36.66-32,.34-4.42-.13-6.85-3.57-7.16-8.07s-.67-9.11-.72-13.67c-.08-7.79,3.69-11.57,11.51-11.74C222.85,207.59,226.63,207.66,230.41,207.67Z"/><path d="M824.55,99.62c-3.94,0-7.89.13-11.82,0-5.6-.24-8.8-3.29-9-8.92-.2-6.15-.22-12.32.14-18.45.5-8.68,4.81-11.88,13.42-11.14a85.29,85.29,0,0,0,14.56,0c8.65-.72,13,2.62,13.41,11.17.27,6,.31,12,.16,18s-3.37,9.13-9.52,9.4c-.32,0-.63,0-.95,0H824.55Z"/><path d="M945.13,194.22c-4.1,0-8.22.28-12.29-.06-7.68-.63-10.84-4.31-10.79-11.94,0-3.31,0-6.62,0-9.94,0-7.25,4.5-13,11.76-13.47a152,152,0,0,1,24,.57c6.61.65,9.59,4.68,9.71,11.27.09,4.89.06,9.78,0,14.67s-2.52,7.89-7.27,8.44c-5,.57-10.06.58-15.09.83Z"/><path d="M707.43,194.7c-5.46-.38-10.7-.36-15.79-1.2-5.78-.95-8-4-8-9.9-.06-4.1-.12-8.2,0-12.3.19-6.2,2.94-10.5,9-10.91a234,234,0,0,1,29.6.24c5.1.3,7.52,4.31,7.67,9.28.17,5.2.11,10.4,0,15.6-.09,4.38-2.42,7.3-6.7,7.9C717.88,194.14,712.52,194.3,707.43,194.7Z"/><path d="M469.4,207.76c4.25,0,8.52-.28,12.73.07,7.56.62,11,4.47,11,12,0,4.55-.44,9.1-.83,13.64-.34,3.91-2.64,7-6.42,7.1-11.09.39-22.22.42-33.33.06-4.15-.14-6.07-3.7-6.47-7.61-.46-4.53-.75-9.09-.8-13.65-.07-6.78,2.77-10.4,9.54-11.23,4.8-.58,9.73-.11,14.6-.11Z"/><path d="M882.12,194.32c-4.26,0-8.52.13-12.77,0-5.37-.22-8.53-3.24-8.75-8.61s-.23-10.73.06-16.07c.36-6.42,3.81-9.84,10.27-10.07,7.72-.27,15.46-.33,23.18-.08,8.06.26,12,4.61,12,12.65,0,4,0,7.89,0,11.83,0,6.22-1.81,8.42-7.93,9.81a14.15,14.15,0,0,1-2.79.47c-4.41,0-8.83,0-13.24,0Z"/><path d="M644.87,147c-4.09,0-8.19.15-12.27,0-5.12-.23-8.39-3.18-8.65-8.21a133.6,133.6,0,0,1,.09-17c.57-7.49,4.44-10.46,11.92-10.3,6.11.13,12.24.11,18.35-.15,8.65-.37,14.06,4.52,14.14,13.17,0,4.41-.06,8.82,0,13.23.09,4.7-2.31,7.68-6.7,8.34-5.56.84-11.25.95-16.88,1.37Z"/><path d="M645.51,159.37c3.94,0,7.88-.15,11.81,0,7.17.34,10.95,4.28,11.12,11.39.11,4.25.1,8.5.18,12.75.12,6.11-2,9.74-8,10.18a269.94,269.94,0,0,1-29.7.25c-4.18-.16-6.74-3.53-6.9-7.78a155.43,155.43,0,0,1,.13-17.93c.45-6.05,3.87-8.77,10.07-8.9,3.78-.07,7.56,0,11.34,0Z"/><path d="M706.64,242c-4.59-.32-9.62-.47-14.6-1.06-4.62-.55-7.51-3.39-7.86-8.08a122.2,122.2,0,0,1-.41-16c.28-5.07,3.62-8.47,9.46-8.82a233.06,233.06,0,0,1,27.34,0c6.18.35,9.36,4.62,9.41,10.84,0,4.25,0,8.5-.17,12.75-.25,5.37-2.8,8.61-8.15,9.41C716.87,241.76,712,241.71,706.64,242Z"/><path d="M882.62,241.7c-4.09,0-8.2.14-12.28,0-6.37-.27-9.34-3-9.67-9.27a143.69,143.69,0,0,1,0-15.11c.33-6.47,3.5-9.5,9.85-9.62,7.87-.14,15.76-.23,23.63,0,9,.21,13.45,5.64,12.43,14.57-.34,3-.41,6-.5,8.95-.21,6.47-2.73,9.33-9.25,10.37a9.64,9.64,0,0,1-1.41.15H882.62Z"/><path d="M408.34,194.31c-4.1,0-8.2.14-12.29,0-5.38-.24-8.57-3.23-8.8-8.59a155.67,155.67,0,0,1,.1-17c.46-7,4.46-10.34,11.46-10.29,6.43,0,12.86,0,19.3,0,7.42,0,12.18,4.35,12.53,11.77.22,4.56.12,9.14.09,13.71-.05,6.79-3.19,10.09-10.09,10.4C416.55,194.46,412.44,194.31,408.34,194.31Z"/><path d="M293.16,241.68c-4.1,0-8.21.17-12.29,0-7.42-.36-10.9-4-11-11.32-.07-3.79-.16-7.57-.1-11.35.09-6.66,3.65-10.93,10.26-11.21,9-.38,18-.26,26.94,0,4.81.12,7.63,3.31,8,7.87a143.16,143.16,0,0,1,.15,18.41c-.26,4.71-3.66,7.33-8.65,7.69-.31,0-.63,0-.95,0H293.16Z"/><path d="M945.55,207.7c3.94,0,7.89-.17,11.81,0,6.88.37,10.07,3.66,10.2,10.41.09,4.57.05,9.14-.17,13.7-.29,5.71-2.53,8.83-8.16,9.2a216.73,216.73,0,0,1-27.8.18c-6.46-.4-9.19-4.36-9.32-10.88-.06-3.63-.12-7.25-.1-10.87,0-7.22,3.94-11.39,11.26-11.8,4.08-.23,8.19,0,12.28,0Z"/><path d="M645.2,241.71c-4.1,0-8.2.13-12.3,0-5.44-.21-8.7-3.11-9-8.4a144.86,144.86,0,0,1,.08-16.54c.41-6.18,3.65-9.06,9.81-9.15,7.72-.1,15.45-.14,23.17,0,8.12.14,12.72,5.56,12,13.61-.33,3.45-.39,6.92-.52,10.38-.24,6.38-3.09,9.6-9.51,10-4.56.3-9.14.06-13.71.06Z"/><path d="M745.87,177.32c0-17.76,2.43-19.84,20.2-18.32,3.71.32,7.5-.52,11.26-.59,6.31-.12,10.39,3,10.91,9.21a142.84,142.84,0,0,1,.17,18.85c-.22,4.57-3.43,7.6-8,7.73-8.49.23-17,.29-25.47,0-6.07-.22-8.92-3.66-9-9.78C745.84,182,745.87,179.68,745.87,177.32Z"/><path d="M114.29,194.3c-3.94,0-7.89.16-11.82,0-6.29-.3-9.4-3.22-9.5-9.41-.09-6-.18-12,.77-17.89,1.07-6.54,4.35-8.6,11-8.61l20.24,0c5.81,0,9,1.86,9.65,7.48a119.61,119.61,0,0,1,.37,21.66c-.3,4.4-3.91,6.67-8.38,6.8C122.49,194.4,118.39,194.3,114.29,194.3Z"/><path d="M171.57,147c-3.94,0-7.88.12-11.82,0-5.67-.21-8.95-3.16-9.19-8.69a148.31,148.31,0,0,1,.13-17c.55-7.71,4.25-10.45,11.83-10a160.13,160.13,0,0,0,17.39,0c8.54-.47,13.13,3.42,13.31,12,.1,4.57.09,9.14,0,13.71-.07,6.33-3,9.59-9.41,9.95-4.08.24-8.19.05-12.28.05Z"/><path d="M351,147c-3.94,0-7.88.15-11.82,0-5.59-.26-8.74-3.43-8.87-9-.14-5.35-.15-10.72.09-16.07.37-8.65,5.16-12.3,13.67-11.42a72.19,72.19,0,0,0,14.55,0c7.72-.77,12.36,2.17,13.12,9.88a131.63,131.63,0,0,1,.21,18.42c-.22,5-3.53,7.85-8.65,8.24l-1,0H351Z"/><path d="M530.65,241.68c-4.25,0-8.53.2-12.77-.06-6.13-.37-9.17-3.53-9.42-9.65-.19-4.57-.21-9.16-.06-13.73.24-7.34,4.31-11.41,11.58-11.53,7.1-.12,14.2-.09,21.29,0,6.07.1,9.93,3.36,10.4,9.42a134.3,134.3,0,0,1,.1,17.49c-.25,4.86-3.44,7.75-8.34,8C539.18,241.86,534.91,241.69,530.65,241.68Z"/><path d="M171.36,159.33c3.93,0,7.87-.14,11.8,0,6.14.26,9.51,3.21,9.89,9.22a178.49,178.49,0,0,1,.09,17.92c-.18,4.71-3.5,7.29-7.72,7.49-9.11.42-18.25.44-27.36.1-4.46-.17-7.21-3.38-7.41-7.82a152.46,152.46,0,0,1,.16-18.39c.45-5.93,3.77-8.55,9.69-8.61,3.62,0,7.24,0,10.86,0Z"/><path d="M587.53,194.32c-3.78,0-7.57.12-11.34,0-5.64-.23-8.87-3.21-9.1-8.79a150.62,150.62,0,0,1,.14-17c.55-7.47,3.91-10.2,11.37-10.15,6.42.05,12.85,0,19.27,0s9.85,2.46,10.45,9a135.67,135.67,0,0,1,.21,19.34c-.23,4.5-3.55,7.31-8.24,7.56-4.25.22-8.51,0-12.76,0Z"/><path d="M824.8,147c-4.09,0-8.19.14-12.27,0-5.33-.24-8.53-3.26-8.76-8.59a152.47,152.47,0,0,1,.1-17c.56-7.9,4.33-10.62,12.2-10.12a137.94,137.94,0,0,0,16.89,0c8-.49,11.85,2.49,12.32,10.58.3,5.33.3,10.7.12,16-.19,5.82-3.4,8.87-9.28,9.08-3.77.14-7.55,0-11.32,0Z"/><path d="M408.07,241.69c-4.09,0-8.2.17-12.28,0-5.1-.26-8.26-3.23-8.52-8.33a144.51,144.51,0,0,1,.06-16.52c.41-6.43,3.7-9.25,10.07-9.28,7.24,0,14.48-.06,21.73,0,7.65.08,11.52,4,11.61,11.75q.08,6.15-.05,12.28c-.15,6.6-3.19,9.68-9.87,10.13-.31,0-.62,0-.94,0H408.07Z"/><path d="M824.55,159.28c3.78,0,7.57-.06,11.34,0,5.3.11,8.57,2.46,9,7.7a143.92,143.92,0,0,1,.27,19.81c-.22,4.46-3.62,7.32-8.35,7.44-8.18.2-16.39.22-24.57,0-5.1-.14-8.26-3.25-8.48-8.38a154.44,154.44,0,0,1,.13-17.48c.44-6.4,3.76-9.1,10.23-9.12h10.39Z"/><path d="M351.31,159.27c3.62,0,7.24,0,10.87,0,5.59.08,8.95,2.43,9.42,7.81a140.84,140.84,0,0,1,.19,19.81,7.38,7.38,0,0,1-7.47,7.24q-13,.45-26,0c-4.72-.15-7.72-3.47-7.91-8.4a166.37,166.37,0,0,1,.09-17c.4-6.63,3.75-9.45,10.41-9.48C344.37,159.26,347.84,159.27,351.31,159.27Z"/><path d="M171.57,241.72c-3.94,0-7.88.11-11.81,0-5.69-.2-8.94-3.12-9.18-8.67a139.9,139.9,0,0,1,.12-16.51c.45-6.29,4-9.3,10.26-9.26q10.85.06,21.7.27c7,.14,10.38,3.44,10.58,10.49q.19,7.32-.05,14.64c-.17,5.5-3.28,8.69-8.88,9-4.23.22-8.49,0-12.74,0Z"/><path d="M767.42,241.7c-4.1,0-8.21.15-12.3,0-5.84-.25-9-3.42-9.18-9.26-.17-4.88-.16-9.78,0-14.66.22-6.8,3.6-10.11,10.37-10.2,7.56-.1,15.13-.07,22.7,0,5.45.06,8.77,2.63,9.23,8.06a131.52,131.52,0,0,1,.15,18.41c-.24,4.56-3.52,7.2-8.19,7.66-.31,0-.63,0-1,0H767.42Z"/><path d="M114.35,241.68c-4.26,0-8.52.13-12.77,0-4.49-.17-7.8-2.49-8.09-7a117.32,117.32,0,0,1,.13-19.3c.56-5.53,3.49-7.6,9-7.74q11.34-.28,22.68-.29c5.83,0,9.35,2.88,9.81,8.69a132.74,132.74,0,0,1,.1,18c-.27,4.76-3.59,7.41-8.56,7.8-.31,0-.63,0-.94,0H114.35Z"/><path d="M351.05,241.68c-4.09,0-8.19.18-12.27-.05-5.69-.31-8.24-2.94-8.42-8.67-.17-5.34-.19-10.7.07-16,.3-6.37,3.59-9.33,9.93-9.42,7.08-.09,14.15-.21,21.22-.25,6.24,0,9.84,2.95,10.28,9.23a139.25,139.25,0,0,1,.07,17c-.26,5.07-3.47,8-8.62,8.21-4.08.19-8.17,0-12.26,0Z"/><path d="M587.69,241.7c-3.94,0-7.88.15-11.81,0-5.37-.25-8.53-3.23-8.77-8.6a144.49,144.49,0,0,1,.12-16.52c.44-6.31,4-9.33,10.23-9.3q10.86.06,21.71.26c5.78.11,9.1,3.09,9.42,9,.3,5.49.32,11,.07,16.52s-3.47,8.49-9.16,8.7c-3.93.14-7.88,0-11.81,0Z"/><path d="M824.9,241.71c-4.1,0-8.2.14-12.29,0-5.39-.23-8.58-3.18-8.83-8.54a144.52,144.52,0,0,1,.11-16.52c.43-6.34,4-9.38,10.18-9.36,7.24,0,14.48.14,21.71.26,5.8.11,9.14,3.06,9.48,8.89.31,5.5.32,11,.1,16.53s-3.47,8.54-9.12,8.76C832.46,241.83,828.68,241.71,824.9,241.71Z"/><path d="M947.14,438.54c-3.94,0-7.9-.24-11.81.06-4.36.33-6.41-1.52-6.84-5.71-.82-8.13-2-16.24-2.48-24.4-.3-5.45,2.4-8.43,6.59-8.76,4.45-.36,7,1.88,8.19,7.29a2.3,2.3,0,0,0,.1.47c1.3,2.67,2.62,5.33,3.93,8,2.19-2.4,4.46-4.74,6.53-7.24.78-.94,1-2.33,1.63-3.39,2.1-3.43,5.29-5.13,9.19-4.42a7,7,0,0,1,5.92,7.55c-.3,7.05-1.08,14.1-2.07,21.09-1.41,9.95.31,9.43-10.84,9.44h-8Z"/><path d="M117.82,438.65h-.94c-14.55.15-14.61.19-21.33-12.26a13,13,0,0,1,.39-13.54,65.63,65.63,0,0,1,8.44-10.72c7.23-7.48,27.8-2.41,30.93,7.38,2.15,6.72,1.64,13.32-.25,19.95-2.62,9.15-2.59,9.16-12,9.17h-5.2Zm-2.18-11.28c5,.14,7.35-2.19,7.54-7.38s-2-7.82-6.42-7.95c-5.66-.17-9.56,3.07-9.57,8C107.17,424.5,110.3,427.23,115.64,427.37Z"/><path d="M404.6,438.55c-3.94,0-7.89.14-11.82-.08-1.19-.07-3.09-.88-3.37-1.77-3-9.35-5.59-18.71-1.47-28.56,2.13-5.08,5.4-8,10.92-8.24a8.77,8.77,0,0,0,2.36-.15c11.48-3.72,18.42,2.47,24.44,11a14.53,14.53,0,0,1-.89,18.28c-1.86,2.18-2.94,5-4.71,7.32a5.71,5.71,0,0,1-3.64,2.11C412.49,438.72,408.54,438.55,404.6,438.55Zm1.71-11.18c5.19-.08,8.77-3.26,8.78-7.83,0-4.88-3.06-7.52-8.76-7.5-4.57,0-7.6,3.08-7.63,7.67S401.78,427.43,406.31,427.37Z"/><path d="M487.55,428.1c0,10.94-.9,11.83-11.36,10.4-1.37-.19-2.65-1.92-3.7-3.17-.53-.64-.23-1.94-.71-2.68a37.17,37.17,0,0,0-3.09-3.8c-1.13,1.34-2.75,2.52-3.28,4.07-1,2.77-.69,5.81-5.19,5.76-4-.05-6.15-1-6.28-5.4-.25-8-.8-16-1.21-24a3.45,3.45,0,0,1,.19-1.86c1.58-2.51,2.75-5.91,5.06-7.17,3.3-1.81,6.15.79,8.3,3.6,5.2,6.77,5.17,6.64,11.58,1.6,1.39-1.1,4-1.88,5.46-1.31s2.86,3,3,4.7C487,415.43,487.22,422.05,487.55,428.1Z"/><path d="M52.64,438.62c-3.15,0-6.3.06-9.44,0-4.92-.13-6.94-2.08-4.74-6.41,3-6,2-10.62-.37-16.5-3.44-8.63,1.72-14.8,11-15,3-.05,6-.39,8.94-.52,6.45-.3,9.31,2.54,8.08,8.86-.81,4.12.52,7.47,1.4,11.29,1.18,5.15.45,10.78.13,16.18,0,.74-2.34,1.84-3.65,1.93-3.76.26-7.55.09-11.33.09Z"/><path d="M638.76,438.63c-3,0-6,.05-9,0-5.78-.11-7.47-2.6-5.42-8.1a10.81,10.81,0,0,1,2.28-3.54c2.08-2.18,1.92-4.08-.2-6.09-3.6-3.42-4-7.73-3.06-12.25,1.17-5.68,4.36-8.53,10.17-8.66a66.65,66.65,0,0,1,11.28.86c5.78.84,7.68,3.68,5.87,9.29-1.09,3.38-.79,5.78,1.6,8.55,4.77,5.54,2.54,12,1.24,18.07-.17.79-2.21,1.6-3.43,1.67-3.77.22-7.56.08-11.35.08Z"/><path d="M534.9,438.64c-3,0-6,0-9,0-6.11-.11-8.58-3.4-5.34-8.62,2.86-4.61,2.28-7.69-.07-12.26-4.67-9.09,1.2-17.79,11.37-17.82a48.15,48.15,0,0,1,9.36.93c5.53,1.09,7.54,4.66,5,9.7-1.63,3.22-.93,5,1.35,7.33,3.8,3.86,4.79,14.85,1.79,19.12-.64.91-2.37,1.39-3.64,1.45-3.6.19-7.23.07-10.85.07Z"/><path d="M761.72,438.63c-3,0-6,.05-9,0-5.65-.12-7.19-2.26-5.45-7.74a9.55,9.55,0,0,1,2.12-3.61c2.15-2.23,2.26-4.13.07-6.49-4.25-4.59-4.47-10-1.92-15.36,2.4-5.07,7.27-5.6,12.11-5.47a53.58,53.58,0,0,1,9.36,1.07c5,1,7,4.88,4.18,9.15-2.41,3.66-1.53,5.69,1.29,8.36,4.2,4,4.66,14.83,1,18.87-.7.77-2.24,1-3.41,1.06-3.46.13-6.92.05-10.39.05Z"/><path d="M239.22,438.71h-.47c-6.43-.1-12.05,1.07-15.81-7.76-3.25-7.61-4.67-14.33-3.35-22.09.68-4,2.94-6.29,7.08-6.05s6,3.2,6.16,7a60.08,60.08,0,0,1-.54,8.46c-.47,4.73,2.7,8.37,7.71,8.73,3.88.28,5.95-2.07,6.12-7.17.13-3.62-.14-7.26.16-10.86s1.69-6.81,5.77-6.87c3.93-.07,4.92,3.11,5.56,6.45a41.62,41.62,0,0,1-4.25,27.86,4.57,4.57,0,0,1-3.27,1.93c-3.61.25-7.25.09-10.87.09Z"/><path d="M878.94,438.6H876.1c-9.48-.07-10.05-.43-10.68-10a169.5,169.5,0,0,1,0-17c.21-6,3.07-9.3,9-10.34a25.29,25.29,0,0,1,7.52-.17c9.53,1.26,11.69,5.29,7,13.7-3,5.34-3.66,9.81.45,15.15,3.75,4.88,1.45,8.42-4.78,8.6-1.89.05-3.78,0-5.67,0Z"/><path d="M698.26,439.29c-3.65-.41-5.13-1.68-5.53-4.9-.47-3.74-1.63-7.38-2.17-11.11-.72-5-2.1-9.39-6.2-12.81-2.62-2.2-3.81-5.33-.78-8.2,2.87-2.71,5.39-1.22,7.78,1.12,5.32,5.22,7.11,5.33,12.82.86,2.69-2.1,5.47-3.53,8.53-1.06s1.87,5.31.46,8.13c-4,8-9.41,15.33-10.24,24.71C702.82,437.24,699.88,438.21,698.26,439.29Z"/><path d="M814.28,426.17a23.2,23.2,0,0,0-4.68-17.33c-2.63-3.53-1-7.7,3.2-8.42a47.68,47.68,0,0,1,14.92-.54c6.49,1,7.77,6,2.89,10.31-4.38,3.89-5.88,8.19-4.64,13.9a25.17,25.17,0,0,1,0,8.44c-.82,6.15-1.33,6.33-7.55,6-2.68-.13-4.19-1-4.14-3.87S814.28,429,814.28,426.17Z"/><path d="M293.5,426.08a22.14,22.14,0,0,0-4.38-16.9c-2.75-3.61-1.46-7.9,2.65-8.61a48.66,48.66,0,0,1,15.82-.52c5.93.94,7.13,5.95,2.62,9.86-4.74,4.11-6.11,8.69-4.85,14.74.63,3-.26,6.24-.27,9.37,0,3.86-2.23,4.44-5.54,4.61-4.51.24-6.42-1.43-6.08-5.93C293.64,430.51,293.5,428.29,293.5,426.08Z"/><path d="M177.36,438.56c-11.91.09-12.08.11-13.68-11.62a88.32,88.32,0,0,1-.62-15.08c.2-5.94,3.15-8.66,8.06-8.24,4.54.39,6.39,3.35,5.89,9.45,0,.63-.14,1.26-.24,1.88-1.4,8.52-1.34,8.55,6.17,12.5,1.65.87,3.59,1.84,4.49,3.31a10.34,10.34,0,0,1,1.33,6c-.07.72-2.75,1.5-4.31,1.69A59.82,59.82,0,0,1,177.36,438.56Z"/><path d="M357.52,419.41c-.53,5.29-1.08,10.59-1.58,15.88-.34,3.52-3,3.19-5.3,3.07s-5.65,1.14-6-2.73c-.71-8.42-1.5-16.86-1.48-25.29,0-4.76,3.17-6.94,7.44-6.74s6.16,2.47,6.31,7.71c.07,2.67,0,5.36,0,8Z"/></svg>