<svg id="Слой_1" data-name="Слой 1" xmlns="http://www.w3.org/2000/svg" viewBox="0 0 1440 830"><title>brand-4</title><path d="M18.52,436.1c3.18.35,4.95-1.12,6.45-4,12.29-23.36,41-34.44,65.86-25.73,11.25,3.94,22,8.69,31.3,16.37,6.61,5.42,10.06,4.48,14.53-2.69q11.72-18.8,23.41-37.59c2.86-4.59,1.53-8.49-3.62-12.42S146.32,362,141.5,357.7C130,347.43,123,334,118.55,319.77c-2.77-8.83-2.2-18.93-2-28.44.47-19.17,10.57-34.34,21.94-48.79,2.21-2.8,4.35-5.67,6.69-8.37,7.07-8.14,15.95-7.39,21.59,1.77.68,1.11,1.3,2.25,1.9,3.41,4.49,8.69,4,12.52-2.75,19.62-10.54,11.09-17.1,24-17.67,39.45-.46,12.67,6.08,23,12.3,33.24,2.24,3.69,5.46,6.88,8.62,9.89,5.29,5.05,11.15,3.89,14.81-2.41,15.24-26.21,30.39-52.47,45.9-78.52a285.4,285.4,0,0,1,18.89-28.26,92.93,92.93,0,0,1,16.3-15.83c6.46-5.1,14-8.4,21.72-11.62,20.28-8.45,46.52,5.43,56.38,21.56,15.12,24.75,12.53,49.12,1.84,74-11.55,26.94-29.66,48.55-53.58,65.4-21.3,15-45.05,22.53-71,23.33-4,.13-8.08-.75-12.13-.85-6.23-.16-10.51,2.61-13.74,8.22-9.72,16.86-19.92,33.44-29.86,50.17-4.59,7.74-4,12.21,2.44,18.66,15.94,16,31.68,32.19,48,47.81,11.13,10.67,22.85,21,37.24,27,21.4,9,42.17,7.28,61.54-6.14,1.59-1.1,3-2.43,4.54-3.68,4-3.31,8.85-4.15,12.61-1.15a57,57,0,0,1,12.54,13.81c3.14,5,1.58,10.08-3.07,13.93-15.67,13-33,22-53.85,23.64-16.2,1.29-31.94.61-46.66-6.55-17.59-8.55-34-19.06-47.79-33.11q-24.44-24.82-48.73-49.81c-6.61-6.77-11.14-7.61-18.79-2-14.33,10.44-31.29,13.32-47.92,16.55-5.74,1.11-12.32-1.84-18.47-3.17q-23-5-34.26-25.68c-.81-1.49-3.67-1.86-5.57-2.75Q18.52,455.11,18.52,436.1ZM318.86,263.59c0-1.46.09-2.93,0-4.38-.93-13-12.91-20.55-24.83-15.33-3.92,1.71-7.44,4.5-10.84,7.19-8.77,6.93-13.59,16.83-19.06,26.2-5.56,9.52-10.86,19.21-16.44,28.72-8.13,13.83-16.57,27.48-24.46,41.44-1.26,2.24-1.52,6.67-.14,8.32s5.55,2,8.28,1.6c4.6-.74,9-2.8,13.54-3.88,11.35-2.69,21.11-8.83,30-15.71,12.59-9.77,23.51-21.59,31.22-35.73C312.61,290.06,318.35,277.63,318.86,263.59ZM71.73,470.1c10.75,0,19.6-3.1,28-7.39,6.25-3.18,6.15-9.18-.09-12.69-4.93-2.77-9.87-5.77-15.17-7.56a53.51,53.51,0,0,0-17-3.12c-7.38,0-12,5.39-14.74,11.7-2.59,5.86,1.1,10,4.85,14.16C61.86,469.82,67.34,469.82,71.73,470.1Z"/><path d="M1275.94,446.42c0-3.73.33-7.51-.16-11.18a6.3,6.3,0,0,0-3.3-4.23c-.89-.38-3.2,1.2-4.1,2.45a107.58,107.58,0,0,0-7,11.13c-5.11,9.4-9.88,19-15.13,28.32a47.37,47.37,0,0,1-8.32,11.3,17.12,17.12,0,0,1-9.43,4.23c-6.6.68-13.31.33-20,.28-4.13,0-7-2.08-8.75-5.87-3-6.36-5.38-6.93-11.81-4.08-9.3,4.14-18.54,8.7-28.25,11.55-15.18,4.46-30.89,4.58-45.15-2.86-12.52-6.53-23.23-15.51-25.53-31.11-1-7-5.5-9.42-11.66-5.92-12.17,6.9-25.14,9.22-38.85,9.15-5,0-8.86,2.73-12.16,6.37a90.27,90.27,0,0,1-33.45,23c-14.4,5.86-29.39,7.23-44.25,1.72C938.09,486.69,930.52,479,925.4,469c-.67-1.3-1.08-2.73-1.76-4C921,460,917.19,459,912.88,462.5c-3.76,3.06-6.88,6.92-10.69,9.89-11.49,9-24,16.5-38.36,19.37-17.93,3.58-32-.53-40.69-16.18-4.9-8.82-10-7.93-16.92-1.9-12.76,11.12-27.3,18.65-44.73,19.09-12,.31-21.74-4-28.88-14-5.3-7.46-8.09-7.56-15.56-2-13.33,9.88-27.7,17.21-44.88,15.93-12.42-.93-22.31-6.53-28.21-18-3.34-6.5-8-7.28-13.63-2.4-11.07,9.6-23.46,16.93-38,19.64s-27.74-.08-38.07-11.85c-8.28-9.45-11.14-20.23-6-31.6,5.84-12.79,13.08-25,19.89-37.3,5.4-9.79,11-19.48,16.64-29.13,6.8-11.62,13.75-23.16,20.65-34.73,2.28-3.83,4.85-7.73,1-11.95-2.64-2.92-8.33-2.12-13,1.11C572,351.3,554.43,370,539.16,391c-3.81,5.24-6.91,11-10.14,16.63-11.55,20.12-23,40.29-34.52,60.42-2.26,3.94-4.64,7.81-7,11.68-3.38,5.51-8.2,8.74-14.76,8.9-6,.13-12.05.36-18-.06a17.5,17.5,0,0,1-8.59-2.91c-5.11-3.66-9.85-3.36-15-.44-9.37,5.33-19.26,8.46-30.25,7.51-9.8-.85-17.81-4.62-23.38-13a38.47,38.47,0,0,0-2.88-3.93c-3.88-4.42-7.08-4.74-11.86-1.36s-9,7-14,9.67c-13.44,7.27-27.35,11.86-42.87,6.31-18.59-6.65-28.07-26.05-20.08-44,5.26-11.81,12-23,18.43-34.24,11.76-20.74,23.45-41.53,35.7-62,11-18.28,24-35,43.58-44.75,7.77-3.87,16.37-6.28,24.82-8.49,3.33-.87,7.52-.08,10.89,1.15,8.49,3.08,17.51,5.56,23.21,13.48,2.81,3.9,5.92,7.73,7.95,12,2.89,6.14,6.56,10.46,13.72,11.66,6.81,1.14,9.3,6.28,6.83,12.73a40.27,40.27,0,0,1-3,6.12C456,374.28,444,394.3,432.14,414.39q-10.27,17.33-20.27,34.82c-2.12,3.72-2.63,7.78.24,11.44s6.82,3.27,10.19,1.41c7.36-4.07,15.36-7.65,21.42-13.25,13.55-12.55,26.87-25.54,38.74-39.64,8.28-9.83,14.19-21.69,20.81-32.84,13.43-22.59,26.59-45.34,40-68a13.12,13.12,0,0,1,11.7-6.75c6.66-.07,13.37-.51,20,.11a15.29,15.29,0,0,1,8.63,4.34c4.82,4.89,7.05,5.3,12.85,1.27,9.41-6.54,20.14-9.91,31.33-8.22,20.66,3.12,31.64,20.95,23.46,43.31-2.49,6.81-6.18,13.23-9.8,19.55-11.29,19.71-22.77,39.31-34.26,58.9-5.81,9.93-12,19.63-17.58,29.7-1.3,2.37-1.8,6.48-.58,8.55s5.29,3.55,7.72,3.12c4.83-.86,10-2.37,14-5.09a198,198,0,0,0,50.46-48.9c11.12-15.69,20.4-32.69,30.2-49.29,11.88-20.12,24.42-39.6,45.46-51.56A102,102,0,0,1,749.16,302c2-.79,4.29-.81,6-1.88,14.63-9,26-.59,37.44,6.94,1.35.88,2.38,2.25,3.75,3.09,4.09,2.5,8,1.53,10.38-2.56q15.6-27.24,31.15-54.51,5.8-10.12,11.67-20.22c4.38-7.51,10.83-11.39,19.67-11.17,5.68.15,11.4-.28,17,.17,8.19.66,11.4,7.21,7.15,14.3-6.25,10.43-12.82,20.67-19.07,31.1-5.34,8.9-10.42,17.95-15.64,26.92Q845.41,317.08,832.07,340c-3.74,6.45-7.36,13-11.11,19.44q-19.05,32.82-38.15,65.63-6.48,11.15-12.77,22.42a19.55,19.55,0,0,0-1.79,4.51c-2,7.32,2.63,12.29,9.82,9.95,5.17-1.68,10-4.53,14.77-7.27a46.15,46.15,0,0,0,8.5-6.5C823,427.78,844,407.08,857.69,379.85c10-19.94,22.54-38.64,33.81-58,4.73-8.12,9-16.5,13.7-24.64,8.09-14,16.35-28,24.55-42,4.36-7.42,9.23-14.57,13-22.28,3.89-8,10.27-10.88,18.4-11.23,5.36-.22,10.73-.22,16.09-.1,9.25.21,13.25,6.9,8.64,14.93-4.19,7.31-9.16,14.16-13.43,21.43-9.7,16.5-19.21,33.11-28.73,49.71q-19.62,34.2-39.12,68.45t-39.19,68.4c-1,1.81-2.58,3.34-3.71,5.11-2.16,3.38-2.89,7-.42,10.48s5.91,3.29,9.65,2.12c10.71-3.33,19.18-10.28,27.31-17.43,15.5-13.64,30-28.32,41.2-45.84,4.54-7.1,8.57-14.51,12.8-21.8,7.24-12.49,14-25.26,21.78-37.42,8.49-13.33,18.18-26.1,32.54-33.53,10.88-5.63,22.37-11.1,34.93-11.32,17.9-.31,31.8,8.22,41.87,22.62,11.49,16.46,11,33.79,1.88,51.1-7.94,15-16.15,30-24.47,44.81-2,3.64-5.38,6.57-7.25,10.26-1.07,2.13-1.42,6-.18,7.51s5.18,1.63,7.39.83a95,95,0,0,0,37.21-24.18c3.71-3.92,6.06-9.19,8.77-14,4.62-8.2,8.7-16.71,13.6-24.74,8.76-14.38,17-29.19,27.22-42.52,10-13,23.06-22.79,40-25.82a62.18,62.18,0,0,0,8.47-2.25c23.45-7.69,50,8.08,54.38,32.39.31,1.74.69,3.73.16,5.3-3,8.69-6,17.38-9.43,25.88-3.3,8.1-10.08,11.52-18.52,12a50,50,0,0,1-8.73.13c-11.38-1.35-13.48-5.33-8.64-15.56,1.74-3.67,3.25-7.44,4.74-11.22,1.64-4.19,1.63-8.22-1.47-11.9-3.3-3.9-7.4-4.24-12-3-8,2.23-13.23,8.16-18.15,14.16-3.45,4.22-6,9.22-8.79,14-3.79,6.42-7.44,12.93-11.17,19.39-8.1,14.05-16.47,28-24.21,42.22a73.59,73.59,0,0,0-6.64,17.73c-2.43,10.06,3,18.1,12.9,21.26a38.72,38.72,0,0,0,21.6.44c12.65-3.14,23.77-9.37,34.44-16.65,17.62-12,32-27.43,46-43.25,4.12-4.68,6.91-10.58,10-16.07,8.1-14.24,16-28.62,24.1-42.82,7.83-13.65,16-27.1,23.87-40.72,11.2-19.39,22.19-38.88,33.4-58.26,3.24-5.62,6.67-11.15,10.44-16.42,3.45-4.82,9.07-5.45,14.44-5.79s10.72-.19,16.08-.09c9.48.19,13.46,7.06,8.65,15.26-3.93,6.7-8.38,13.1-12.44,19.73-4.74,7.74-9.23,15.63-14,23.37-2.27,3.72-4.84,7.27-7.29,10.89-.45.67-1.28,1.25-1.4,2-.52,3.05-.85,6.13-1.25,9.2,3.06.11,6.17.61,9.15.19,2.14-.3,4.26-1.62,6.14-2.86,7-4.69,14-4.07,21.17-.25,3,1.61,6.32,2.68,9.14,4.55,11.53,7.63,15.9,18.75,13.58,32a74,74,0,0,1-6.65,19.72,254.05,254.05,0,0,1-16.79,29.64c-12.39,18.28-27.57,33.69-49,41.37-3.44,1.23-7.31,1.45-11,1.7-7.55.5-11.38,4-10.47,11.48A67.71,67.71,0,0,0,1317,456c1.66,4.22,5.54,6.17,10.15,6.41,6.51.35,12.16-2.06,17.23-5.76,17.26-12.59,32.9-26.88,46.09-43.83,2.3-2.95,5.93-5.83,9.43-6.64,5.26-1.23,10,1.61,12.43,6.58,2.58,5.36,2.23,11.08-2,15.47-10.63,10.94-21.36,21.8-32.47,32.24a157.47,157.47,0,0,1-33.2,24.48c-12.53,6.73-25.64,9.46-39.51,7.22-16.25-2.63-27.72-17.52-28.83-36.45-.18-3.08,0-6.18,0-9.26ZM779.07,350.5c.15-14.22-8.69-21.1-18.26-16-6.95,3.73-14.17,8.89-18.42,15.31-10.91,16.43-20.23,33.92-30.17,51-4.9,8.41-9.74,16.84-14.65,25.23-4.66,7.95-9.82,15.65-13.83,23.92-1.36,2.8-1,7.53.55,10.38,2.07,3.94,6.7,3.7,10.45,1.93a84,84,0,0,0,14-7.73c16.49-12.08,28.57-28.1,38.89-45.47q13.41-22.58,26-45.61C776.35,358.62,778,353.16,779.07,350.5ZM409,332.9a17.9,17.9,0,0,0-4.42,1.37c-10,5.54-18.15,12.94-23.82,23-8.28,14.68-16.56,29.36-25.08,43.9-9.74,16.65-19.9,33.05-29.45,49.8-1.33,2.34-1.42,6.89,0,8.88s6,3.44,8.41,2.69c6.09-1.9,12.33-4.36,17.48-8.05,16.47-11.8,28.68-27.48,38.59-45,3.59-6.35,7.33-12.62,10.82-19,6.91-12.66,13.95-25.25,20.43-38.12C426.28,343.77,419.43,333,409,332.9ZM973.17,460.56c13.91,0,23.79-11.92,22-25.65a22.58,22.58,0,0,1,2-13c3.21-6,8.59-10.19,14.68-13.77,5.3-3.11,10.65-7.25,14-12.26,8.23-12.22,15.55-25.06,22.73-37.94a51.53,51.53,0,0,0,5-14.66,14.26,14.26,0,0,0-6.13-14.95c-4.58-3.21-9.66-2.05-14.1,1.07a100,100,0,0,0-8.77,6.87c-13.33,11.8-19.52,28.45-28.85,43-5.78,9-11,18.36-16.2,27.67-6.43,11.45-13,22.84-18.85,34.58C955.89,451.14,962.38,460.54,973.17,460.56Zm379.41-128.39c-2.93.83-6.25,1.05-8.71,2.61-6,3.81-12.38,7.51-17.18,12.6-9.43,10-17.94,20.83-26.74,31.39-4.37,5.26-5.48,11.43-2.72,15.75,3.34,5.24,8.71,6,14.21,5.26,10.06-1.39,19-5.92,24.77-14.06,9-12.67,16.92-26.07,24.73-39.5C1365.12,339,1360.85,332.64,1352.58,332.17Z"/><path d="M769.38,158.49c-5.37-1.85-9.92-2.76-13.82-4.86-18.84-10.15-37.3-8.74-56,.52-11.15,5.53-22.16,4.78-33.68-.65-17.87-8.43-36.24-15.85-54.62-23.14-4.69-1.87-10.19-1.77-15.34-2.39-6.78-.8-10.58-3.5-12.08-8.86-1.4-5,.67-10,5.47-12.2,3.09-1.38,6.66-1.78,9.64-3.34,11.49-6,23-11.91,34.17-18.54,9.45-5.62,18.42-12.09,27.49-18.34q25.21-17.36,50.28-34.91c4.65-3.25,9-7,13.59-10.26,8.1-5.8,17.23-4.07,23.42,4.35,1.34,1.83,2.4,3.86,3.68,5.74,2.37,3.51,5.72,5.9,9.91,4.63,13.89-4.23,21.07,4.57,27.23,14.22a44.35,44.35,0,0,0,19.47,17c7.5,3.41,13.93,8.35,18.12,15.06,6.81,10.92,17.07,16,28.47,19.91,4.6,1.57,9.34,2.89,13.68,5,5.88,2.88,7.93,7.31,6.74,12.62-1.05,4.67-5.2,7.69-11.54,7.84-19.64.47-38.55,5.29-57.58,9.43-9.8,2.13-16.76,8.88-24.45,14.56C777.9,154.7,773.37,156.4,769.38,158.49ZM719.5,56.23c.32-5.49-1.38-6.79-6.06-5a19.07,19.07,0,0,0-4.7,2.49c-6.45,4.87-12.8,9.86-19.19,14.8-2.56,2-5.22,3.84-7.65,6-.86.75-1.15,2.15-1.71,3.26a14.6,14.6,0,0,0,3.29,1.49c7,1.23,13.95,2.24,20.89,3.52,3.88.72,7.64.51,9-3.61C715.78,71.47,717.57,63.56,719.5,56.23ZM761.62,67c0-4.06-1.44-6.07-4.55-6.2-4-.17-8.28,4.12-8.4,8.49-.1,3.67,1.39,5.92,5.35,6C758.46,75.38,761.58,72,761.62,67Z"/><path d="M723,661.34q51.9,0,103.81,0a31.54,31.54,0,0,1,7.72.68c5.22,1.35,8,5.22,7.94,10.3-.09,5.64-2.75,9.22-8.26,10.51a33.79,33.79,0,0,1-7.71.83q-103.08,0-206.17,0a44.78,44.78,0,0,1-9.18-.79c-6.11-1.29-8.72-4.87-8.63-11.12.08-5.47,2.89-8.68,8.92-9.7a55.5,55.5,0,0,1,9.21-.66q51.17-.06,102.35,0Z"/><path d="M527.52,764.28c.58-6.75,1-14.36,1.94-21.91.57-4.63,3-8.34,7.84-9.58s8.68.39,11.63,4.22c2.82,3.66,6.65,4.74,11,5.24,3.14.36,6.84.85,9.12,2.72,4.6,3.75,9.48,4.5,15,4.06,3.41-.27,7.83-.62,8.71,3.36a16.19,16.19,0,0,1-1.54,10.9c-4.24,7.05-9.5,13.5-14.47,20.1-7,9.35-13.62,9.88-21.56,1.5a10.7,10.7,0,0,0-10-3.61C533.46,782.84,527.45,777.28,527.52,764.28Z"/><path d="M461.72,47.89q24.84,0,49.66,0c2.11,0,4.23,0,6.32.2,5.36.51,8.29,3.06,8.8,7.45.53,4.62-2.31,8.8-7.15,10.24a16.84,16.84,0,0,1-4.79.66c-31.1-.25-62.21-.6-93.31-.79-5.18,0-10.39,1.12-15.51.73A22.32,22.32,0,0,1,395,62.75c-2-1.45-3.8-5.35-3.35-7.71s3.48-5,6-6c3.18-1.29,7-1.44,10.51-1.47,17.85-.13,35.7-.06,53.54-.06Z"/><path d="M459.76,128.91c-17.21,0-34.43,0-51.64,0A46.88,46.88,0,0,1,399,128c-4.17-.87-7.1-3.16-7-8a8,8,0,0,1,7-8.15,95,95,0,0,1,16.44-1.21c20.12.11,40.23.6,60.35.7,12.47.06,24.94-.36,37.41-.46a30.87,30.87,0,0,1,6.76.77c4,.86,6,3.61,6.48,7.54s-1.27,7.18-5,8.5a26.88,26.88,0,0,1-8.59,1.19C495.15,129,477.45,128.91,459.76,128.91Z"/><path d="M1051.26,65.63c-35.07,0-70.14.09-105.21-.12a23.26,23.26,0,0,1-11.28-3c-1.91-1.14-3.58-5.3-3-7.39.78-2.62,3.67-5.22,6.29-6.51s6-1.24,9.08-1.23q49,.18,97.94.55c4.36,0,8.77-.2,13.07.35,5.55.71,9.49,5,9.09,9.12s-5.17,7.91-10.17,8.21c-1.95.11-3.9,0-5.85,0Z"/><path d="M998.52,128.94c-17.54,0-35.07,0-52.61-.05a27.76,27.76,0,0,1-8.15-1c-3.72-1.15-5.78-3.87-5.78-8s1.88-7,5.55-8.28a21,21,0,0,1,7.16-1c32.62.18,65.24.46,97.87.67,4.84,0,9.74-.66,14.52-.14,5.61.62,9.3,4.74,9.27,9,0,4-3.88,7.47-9.4,8.37a36.39,36.39,0,0,1-5.82.32q-26.31,0-52.61,0Z"/><path d="M417.35,713.79c.23-1.77.56-3.53.66-5.31.29-5.23-2.48-7.23-7.27-5.29-1.65.67-3.22,1.56-4.88,2.18-3.74,1.39-7,.49-9.78-2.3s-3.8-6-2.41-9.75a25.9,25.9,0,0,1,3.11-6c4.35-6,8.54-12.23,13.48-17.75a18.1,18.1,0,0,1,9.13-4.94c6-1.36,9.58,1.68,10.25,7.88.28,2.56.15,5.18.25,7.77.15,4,2.26,5.08,5.86,3.94,2.47-.78,5.05-2.43,7.37-2.13,3.26.43,7.3,1.52,9.18,3.81,1.51,1.85,1.42,6.56.09,8.87-4.92,8.55-10.45,16.78-16.16,24.83-3,4.22-8.86,5.43-13.64,3.66C418.18,721.6,417.16,718,417.35,713.79Z"/><path d="M660,797.77c.73-7,1.13-14.49,2.45-21.81a19,19,0,0,1,4.77-8.73c3.56-3.9,9.76-3.58,13.49.18,1.81,1.84,3.27,4,5,5.91,3.72,4,6,4,9.8.24.81-.79,1.44-2,2.4-2.37,2.82-1.17,6.19-3.39,8.54-2.65s4.07,4.44,5.85,7a4.89,4.89,0,0,1,.35,2.86c-.55,8.4-1.06,16.8-1.79,25.19-.37,4.25-2,8-6.52,9.35a12.16,12.16,0,0,1-12.16-3.08l-.35-.34c-7.52-7-7.27-6.62-15.47-.66a13.06,13.06,0,0,1-10.25,1.67c-2.49-.79-4.17-4.72-5.74-7.53C659.65,801.71,660.07,799.81,660,797.77Z"/><path d="M1045.87,697.32c-.26,7-2.92,11.91-7.45,15.73-3.09,2.61-6.39,5-9.66,7.36-8.51,6.21-18.45,5-25.18-2.91q-5.19-6.11-10.41-12.18a17.43,17.43,0,0,1-1.19-1.53c-4.74-7-4-15,1.78-18.6,5.29-3.32,13.53.16,17.32,7.29a38.72,38.72,0,0,0,2.87,5.07c1.64,2.2,4.2,4.23,6.42,1.84,1.09-1.17.4-4.68-.43-6.75-.65-1.6-2.69-2.71-4.24-3.87-3.59-2.69-4.92-6.24-4.62-10.63.33-4.77,2.21-8.6,6.84-10.26,4.44-1.6,8.5-.14,11.31,3.48q7.61,9.78,14.61,20C1045.15,693.28,1045.41,695.9,1045.87,697.32Z"/><path d="M741.57,766.54c9.31.41,17.42,2.58,23.27,10.39,9.3,12.41,7.06,25.45-6.39,33.27a35,35,0,0,1-25.74,4.3c-4.93-1.09-8.56-4.11-8.94-9a214.79,214.79,0,0,1-.63-28c.34-6.11,5.33-9.32,13.35-10.53C738.25,766.65,740,766.65,741.57,766.54Z"/><path d="M1064,634.58c2.08.72,4.86,1,6.83,2.49a189.41,189.41,0,0,1,16.62,13.4c6,5.51,6,14.08.4,20q-6.49,6.88-13.27,13.51c-7,6.82-13.63,6.2-19.66-1.47-4.51-5.73-9.18-11.32-13.86-16.91-4.32-5.17-5.08-10.89-.5-15.36,5.4-5.28,11.68-9.68,17.77-14.22C1059.65,635,1061.73,635.12,1064,634.58Z"/><path d="M647.67,799.59c-1.4,2-2.89,5.85-5.67,7.87-3.62,2.62-7.54.6-10.37-2.54-5.17-5.74-11.2-6.47-18.15-3.85a21,21,0,0,1-7.12,1.38c-8,0-12.14-6.52-8.52-13.56,1.91-3.71,4.6-7,7-10.47,2.86-4.11,6-8,8.66-12.27,3.27-5.24,7.15-9.74,13.82-9s12.29,4.56,14.06,11.17C644,778,645.4,787.94,647.67,799.59Z"/><path d="M864.43,772.11c.67,1.88,1.39,5.59,3.22,8.64,5.31,8.85-.15,17.32-9.54,16.3-3.45-.38-7.36.85-10.67,2.26-9.63,4.1-16.93.71-19-9.55-1.41-7.15-2.5-14.38-3.43-21.61-.88-6.92,2.14-11.67,8.89-13.73,4-1.22,8.24-1.67,12.38-2.41C855.26,750.4,866.89,760.22,864.43,772.11Z"/><path d="M469.32,750.41c-8-3.15-16.16-6.46-21.95-13.24-3.15-3.69-2-9.43,1.3-14,3.57-5,6.85-10.15,10.25-15.23,7-10.47,12.73-12.21,21.53-5.88,3.24,2.33,6.82,4.33,9.61,7.11,3.52,3.51,3.17,7.94.94,12.15-4.08,7.7-8.33,15.32-12.35,23C476.67,748.17,474.11,750.68,469.32,750.41Z"/><path d="M930.75,772.42a18,18,0,0,1-15.1-6c-4.83-5.17-10.93-9.39-10.8-17.68.09-5.81,1.61-10.9,5.94-14.91,3.21-3,6.38-6,9.84-8.7a17.26,17.26,0,0,1,6.49-3.11c5.33-1.2,10.41,1.12,12.1,5s-.19,9-4.32,12.39c-2.75,2.28-7.52,4.45-5.12,8.68s6.93,1.64,10.51.39c6-2.1,10.22-1.2,12.54,2.81,2.53,4.36,1.47,9-3.28,12.88C944,768.74,938.37,773.33,930.75,772.42Z"/><path d="M799.8,760.46c9.07.44,13.16,4.08,13.12,12.93a38,38,0,0,0,4,17.74c4.33,8.63.77,15.44-8.58,17.57-2.68.62-5.43.93-8.15,1.34-10.31,1.55-15.75-2.64-17-13C782.33,790,781.4,783,780.44,776s2-11.63,8.91-13.38C792.79,761.7,796.31,761.15,799.8,760.46Z"/><path d="M370.88,678.9c-5.06.27-8.82-1.75-11-6-2.25-4.44-.78-8.55,2.14-12.2a44.7,44.7,0,0,1,4-4.22c3.82-3.68,6-8,5.39-13.46-.51-4.67.35-8.9,5.34-10.82s9.21-.37,13,3.08c4.05,3.72,8.11,7.46,12.18,11.17,3.49,3.18,5,7.62,3.06,11.43-1.44,2.77-5.38,5.32-8.58,5.89-6.54,1.18-11.47,3.86-15.16,9.39C378.84,676.75,375.51,679.37,370.88,678.9Z"/><path d="M936,584.11c.47,5.82-1.89,10.2-6.41,13.51-3.62,2.66-6.94,6.15-11,7.7-7.87,3-15.33,1.36-21.45-4.84-2.4-2.42-4.9-4.75-7.18-7.28-4.65-5.17-5.53-12.57-1.05-17.86a110.09,110.09,0,0,1,15.78-15c4.59-3.61,10.17-2.7,14.8,1.06,3.15,2.55,6.25,5.17,9.44,7.67C933.88,572.9,936.46,577.85,936,584.11Zm-12.62-1.26c0-8.06-4.89-14.11-11.55-14.22s-12.86,7-12.91,14.43c0,7.08,5.88,13.83,12.19,13.88C918.21,597,923.32,591.11,923.36,582.85Z"/><path d="M997.44,734.25c.32,4.63-3,7.14-6.34,9.46-3.05,2.11-6.3,4-9.53,5.82-7,4.05-13.36,2.57-17.46-4.31-3.9-6.53-7.54-13.22-11.17-19.91a18.91,18.91,0,0,1-1.9-5.47c-1-5.11,1.6-10.62,5.56-12.47,3.8-1.77,8.39-.46,12,3.91a43,43,0,0,1,5.57,8.51c2.44,5,5.86,6.57,11.4,5.36C992.7,723.59,997.47,727.49,997.44,734.25Z"/><path d="M578.43,559c6,.41,13,4.43,19.4,9.52,3.56,2.83,3.75,6.64.58,9.76-5.76,5.67-5.45,11.87-3,18.8.63,1.76-.3,4.07-.51,6.12-2.4-.42-4.81-.81-7.2-1.27-.27,0-.48-.43-.72-.64-7.48-6.84-7.48-6.84-15.94-.79-3.44,2.46-7.65,1.09-7.88-3.35a190.88,190.88,0,0,1,.24-28.6C564.09,561.84,569.12,558.87,578.43,559Zm7.5,13.78c-.06-4.13-2.51-7.29-5.59-7.19-3.45.11-6.08,3.1-6,6.85.06,4,3,7.76,6,7.68S586,576.38,585.93,572.76Z"/><path d="M611.87,595.87c2.54-4.57,4.81-8.73,7.14-12.85,2.11-3.72,4.31-7.38,6.39-11.11,1.56-2.8,2.56-6,4.58-8.43,3.51-4.13,8.88-3.67,11.3,1.14,5.13,10.17,9.89,20.53,14.42,31,.79,1.81.47,5.64-.7,6.37-1.7,1.07-4.93.84-7-.06-2.73-1.22-5-3.52-7.37-5.49-4.71-3.93-8.64-4.06-13.35-.17-1.49,1.24-2.63,3-4.25,4-2,1.23-4.93,3.2-6.46,2.54C614.67,601.92,613.72,598.77,611.87,595.87Z"/><path d="M709.28,568.51a74.08,74.08,0,0,1-2.73,7c-4,7.76-8.14,15.47-12.27,23.17-1.85,3.47-3.75,7.28-8.51,6.76-4.43-.49-6.07-4.14-7.81-7.8-3.59-7.55-7.39-15-11.46-22.34-2.49-4.47-3.44-9.82-.85-11.18,4.93-2.6,7.13,1.92,9.22,4.75s2.88,6.85,4.78,10c1.41,2.32,3.68,5.68,5.62,5.72,2.36,0,5.43-2.45,7-4.68,3.18-4.44,5.38-9.58,8.42-14.15.84-1.27,3.69-2.55,4.73-2C707.14,564.6,708.09,566.92,709.28,568.51Z"/><path d="M724.53,584.76c0-3.73-.22-7.47,0-11.19.62-8.87,6.47-15.14,14.18-14.91a9.49,9.49,0,0,1,6.19,2.8c.69.77-.9,3.59-1.46,5.49-.84,2.87-2.1,5.7-2.43,8.63a42.67,42.67,0,0,0,.06,11.12c.48,3.21,2.12,6.23,3.07,9.38.74,2.5,2.52,6.19,1.51,7.39a12.9,12.9,0,0,1-8.19,3.86c-5.73.46-14.08-5.75-13.19-13.33a79.05,79.05,0,0,0,.06-9.24Z"/><path d="M861.35,568.46c-3.88,1.87-9.26,2.74-11.31,5.82-3.47,5.22-2.88,11.88.06,17.68.74,1.47,2.89,2.68,4.61,3.11,2.8.7,5.86.32,8.65,1,2.1.52,4,2,5.92,3.06-1.21,2-2,5-3.72,5.6-3.52,1.25-8.19,2.73-11.16,1.38-8.23-3.72-16.14-8.6-19-18.16a16.48,16.48,0,0,1,6.2-17.7,77,77,0,0,0,9.6-8.11c3.58-3.77,7.74-3.89,12.09-2.67,3.54,1,6.21,3.63,5.71,7.49-.55,4.34-4.26,2.85-7,2.79Z"/><path d="M986,93.85c-5.33,0-10.66-.23-16,.07a108.41,108.41,0,0,0-14.82,1.78c-5.14,1-10,1-13.14-3.58-1.35-2-2.14-5.51-1.27-7.5s4-3.55,6.39-4.14c2.17-.53,4.72.56,7.12.85,2.71.33,5.54,1.17,8.13.7,4.59-.83,8.47-.53,12.21,2.66,3.07,2.63,5.66.52,8-1.85,2.86-2.94,6.38-4.14,9.22-.65,1.83,2.26,3.85,6.41,2.93,8.37-1.17,2.5-5.23,3.65-8,5.39Z"/><path d="M522.68,591.33c2.33-8,.17-16.29-4.56-24.37-2.44-4.16-.62-7.36,4.31-7.94a46.55,46.55,0,0,1,13,.42c4.27.71,4.66,4.6,3.47,7.7a49.56,49.56,0,0,0-2.79,26.7,3.53,3.53,0,0,1,0,1c-.47,5.45-3,8.83-6.56,8.85-3.75,0-6.49-3.68-6.79-9.18C522.65,593.83,522.68,593.18,522.68,591.33Z"/><path d="M781.88,574.81c-.17,1.3-.42,3.06-.64,4.83-.74,6,.06,11.33,5.53,15.05a15.58,15.58,0,0,1,3.13,3c2.73,3.29,1.83,6.9-2.09,8.66-7.45,3.34-16.64-.75-17.67-8.81-1.06-8.3-.83-16.8-.72-25.21.08-5.24,3-8.72,6.38-8.31,4.82.59,5.26,4.61,5.91,8.32C781.82,573,781.8,573.68,781.88,574.81Z"/><path d="M429.18,95.64c-5.29,0-8.89-3.26-8.86-8.14s4.41-9.66,9-9.78,9.24,4.82,9.4,10C438.86,92.49,435.14,95.59,429.18,95.64Z"/><path d="M1045,94.86h-1.17c-6.5,0-10.42-2.8-10.19-7.13s5.5-7.92,11.35-7.52c5.12.35,9.48,5,8.6,9.79C1052.59,95.21,1048.08,94.57,1045,94.86Z"/><path d="M460.16,95.09a46.52,46.52,0,0,1-5.85-.46c-4.1-.89-5.89-4.51-3.88-8.17,2.16-3.92,5.66-7.44,10.09-5.83,3.53,1.28,6.37,4.94,8.94,8,.5.6-1.26,4.22-2.76,5.06C464.58,94.91,461.74,94.81,460.16,95.09Z"/><path d="M1016.92,94.88c-5.17.07-8.58-2.67-8.76-7-.19-4.6,3.86-9.3,8.06-9.37,3.94-.07,9.13,5,9.32,9.19S1022.11,94.81,1016.92,94.88Z"/><path d="M512.55,94.83c-4.78-.09-8.45-3.16-8.36-7,.08-3.42,4.63-7.45,8.37-7.41,4,0,7.25,3.84,7.09,8.27C519.5,92.75,517,94.91,512.55,94.83Z"/><path d="M487.61,83.26c3.05.16,5.46,1.83,5.59,5.52.14,4.18-2.95,5-6.26,5-2.9,0-6.19.08-6.86-3.78C479.57,87.13,483.66,83.38,487.61,83.26Z"/><path d="M407.54,85.88c0,4.08-.87,6.82-4.72,6.9-4.16.08-5.13-2.77-5-6.25.16-3.24.94-6.77,4.74-6.83C406.76,79.63,407.47,83.23,407.54,85.88Z"/></svg>