<svg id="Слой_1" xmlns="http://www.w3.org/2000/svg" viewBox="0 0 1875 1470"><path d="M948.8 59.22c-.39 10.2 4.32 19 7.82 28.09a6.27 6.27 0 0 1 .41.82c4.37 20.74 16.34 38.86 20.51 59.69.79 4 3 7.64 4.52 11.45 2.5 6.22 5 12.42 7.47 18.67 2.81 7.23 5.62 14.46 8.24 21.76 2.17 6 3.92 12.19 6.09 18.22s4.16 12.49 7.2 18.23a60.74 60.74 0 0 1 6.8 23.19 38.44 38.44 0 0 0 1.79 9.44c1.84 5.15 6.3 6.38 10 2.46a35.56 35.56 0 0 0 6.69-10.62c1.57-3.76 1.69-8.11 3-12 1.16-3.43 3.07-6.6 4.71-9.85 2.66-5.29 5.43-10.52 8-15.84 2-4.1 3.83-8.31 5.76-12.45q4.34-9.28 8.7-18.55c1.49-3.18 2.48-6.78 4.62-9.43a36.37 36.37 0 0 0 7.89-18.83c1.71-14.24 11.6-23.29 20.7-32.7 1.54-1.6 6.43-2 8.32-.75 2.53 1.66 4.61 5.3 5.2 8.41 2.29 12.1-.21 24-2.08 36q-4.48 28.8-7.76 57.79c-2.19 19.45-3.67 39-5.42 58.49-.35 3.94-1.24 8.21 2.86 10.89s8.47 1.64 11.59-1.1c8.49-7.47 19.22-8.11 29.31-11 8.63-2.49 16.92-6.19 25.37-9.32 9.76-3.62 19.54-7.19 29.3-10.79 8.15-3 13.87.95 13.66 9.59-.16 6.42-2.63 11.55-7.61 16-7.39 6.64-14.12 14-21.11 21.11-6.45 6.53-12.83 13.13-19.32 19.62-6.18 6.18-5.72 10.16 1.67 14.94 9.22 6 18.26 12.23 27.58 18 3.61 2.24 7.78 3.57 11.68 5.35 9.47 4.31 10.61 13.65 8 21.41-1.63 4.83-7.28 7.65-13 6.2-16.31-4.14-32.88-3.06-49.39-3.07q-222.69 0-445.39.11c-7.72 0-15.44 1.81-23.16 2.8-8.24 1.07-13.71-1.59-15.3-7.48-2.2-8.13 1-16.81 8-19.6a80.34 80.34 0 0 0 19-10.92c6.8-5.13 14.59-8.93 21.87-13.43 6-3.68 6.59-8.29 1.84-13.18Q696.89 318 678.24 299a54.43 54.43 0 0 0-5.16-4.56c-6.44-5.09-7.7-12-6.43-19.47.84-4.92 6.59-7.83 11.61-5.95 14.9 5.57 29.64 11.62 44.61 17a193 193 0 0 0 21.67 5.9c6.33 1.48 12.56 2.92 17.42 7.68a5.33 5.33 0 0 0 2.75 1.6c3.48.44 7.34 1.65 10.43.64 4.12-1.35 3.72-5.87 3.4-9.59-1.52-17.52-2.89-35.06-4.7-52.56-1.87-18.12-4-36.22-6.37-54.29-1.37-10.62-4-21.11-4.84-31.75a59.24 59.24 0 0 1 2.13-19.79c1.47-5.43 8.5-6.85 12.32-2.71 9.17 10 18.9 19.53 20.85 34.25.75 5.62 4.41 10.87 6.85 16.25 1.64 3.6 3.54 7.09 5.16 10.7.74 1.67.81 3.65 1.62 5.27 7 13.85 14.28 27.53 21 41.52 2.86 6 4.23 12.68 6.76 18.85 1.81 4.42 3.78 9.06 6.83 12.6 4.28 5 9.51 3.39 11.13-3.07 1.16-4.58 1.07-9.47 2.25-14 1.45-5.58 3.58-11 5.55-16.43q4-10.95 8.15-21.81c2.39-6.24 5.06-12.39 7.34-18.68 2.34-6.44 4.33-13 6.55-19.52 1.58-4.62 2.57-9.65 5.11-13.69 4.53-7.21 6.47-15.08 8.65-23.09 1.83-6.72 5.12-13 7.56-19.59 2.23-6 4.2-12.1 6.25-18.16 1.67-4.92 3.14-9.91 5-14.76 3.53-9.27 8.35-18.16 8-28.52zM75.46 1220.61c7-.61 14-1.75 21-1.74 127.89.19 255.79.67 383.68.66 19.56 0 39.12-2.29 58.69-3.2a315.4 315.4 0 0 1 32.1-.35c16.23.9 31.72-1.86 47-7.07 13.75-4.71 28-6.32 42.46-6.78a19.36 19.36 0 0 1 14.29 5.26c7.26 6.71 16.54 8.66 25.68 10.26 7.44 1.31 13.08-4.19 18.15-8.5 7.42-6.3 15.32-9.84 24.81-7.61 4.42 1 8.43 3.87 12.55 6 1.05.55 1.7 1.81 2.7 2.48 7.32 4.89 13.18 6.12 18.35-2s13.45-12.45 21.35-17c3.22-1.86 7.69-1.8 11.62-2.15 12.27-1.07 24.59-1.23 36.6 1.68 11.19 2.71 19.43 10 26.3 19 .94 1.21 1.85 2.45 2.89 3.57 6 6.37 12.92 6.91 18.75.49 6.52-7.18 14.11-10.16 23.68-9.81a21.87 21.87 0 0 0 17.37-6.89c6.54-6.8 22.83-8.42 30.48-2.85 10 7.3 19.61 7.68 29.6.41 6.68-4.86 14.62-5.36 22.38-5.88 19.27-1.3 38.54-1.93 57.8.55 8.89 1.14 16.5 4.41 22.62 11 2 2.14 4.09 4.15 6.15 6.22 6 6 11.07 6.53 17.8 1.15 4.69-3.75 9.58-6.45 15.72-6.73 6.66-.3 12.59.91 17.94 5.37a108.66 108.66 0 0 0 15.11 10.41 11.36 11.36 0 0 0 7.49.89c9.87-2.2 19.6-4.62 27.42-12 2.35-2.22 6.7-3.12 10.17-3.22 16.87-.51 33.19 2.8 49.16 8.11a113 113 0 0 0 45.78 5.11c9.54-.8 19.27.29 28.9.83 11.16.63 22.29 2.26 33.44 2.3q196.22.67 392.42.95c4.89 0 9.8-.93 14.67-.73a165.27 165.27 0 0 1 17.72 2 3.76 3.76 0 0 1 2.45 2.63c.23 6.28.26 12.58 0 18.85a4.07 4.07 0 0 1-2.68 2.88c-8.65.81-17.32 1.5-26 1.84-4.41.18-8.86-.65-13.29-.65q-180.83-.06-361.65 0c-29.88 0-59.75 1.34-89.62 1.7-13 .16-26-.68-39.05-.86a65.45 65.45 0 0 0-27.33 5.24c-5.2 2.25-10.53 4.24-15.92 6-6.18 2-12 .94-16.38-4.11s-9.41-7.87-16.38-7.36a19.42 19.42 0 0 1-8.93-1.89c-11.71-5.29-22-.83-30 6.52-9.32 8.49-18 8.58-27.1.54-5.22-4.59-11.16-7.7-18.41-6.68-1.85.25-4.24.91-5.25 2.25-9.73 12.84-23.67 15.32-38.23 14.9a334.79 334.79 0 0 1-37-3.59c-8.29-1.17-19.7-14.4-20.75-22.71-.51-4.06 1.66-6 6.89-6.54 10.85-1 21 1.63 30.86 5.78a42.57 42.57 0 0 0 34.35 0c3.24-1.36 6.67-2.44 9.64-4.26 1.9-1.15 4.3-3.42 4.31-5.19s-2.41-4-4.3-5.2c-4.22-2.67-8.77-4.81-13.2-7.15a20.66 20.66 0 0 0-4.51-2.2c-14.83-3.57-29.73-4.2-44.59-.3-11 2.89-17.08 11.66-22.12 20.8-4.49 8.12-10.65 12.35-19.79 12.37-7.71 0-13.67 3-18.55 9.17-5.56 7.08-16.41 7.59-24.62 1.89-12-8.36-20.2-8.38-31.83.37-6.77 5.1-14.72 6.37-22.6 6.62-10.8.35-21.13 2.43-31.67 4.49-9.22 1.8-19.16.67-28.7-.12-8.35-.69-16.57-2.9-24.9-4.07-7.48-1-12.74-5.64-18-10.33a38.81 38.81 0 0 1-3.91-3.89c-8.67-10.16-10-8.16-21.63-1.13-3.65 2.2-6.75 5.28-10.2 7.83-5.88 4.35-13.44 4.32-19-.48a51.66 51.66 0 0 0-18.66-10.52 20.64 20.64 0 0 0-13.42.22 66.78 66.78 0 0 1-13.39 2.77c-5.06.57-9.41 2-13.08 5.8-7.16 7.43-12.48 8.17-21.84 3.88-19.16-8.77-39.26-11.4-60.11-9a56.56 56.56 0 0 1-6.89.32q-41.38-.45-82.77-1c-17.93-.23-35.85-.77-53.78-.79q-163.34-.12-326.68 0c-6.27 0-12.56.9-18.81.73-7.92-.21-15.81-1.1-23.72-1.7zm764.88 24.29c5.78-.45 11.6-.67 17.34-1.43 4.17-.54 8.71-2 9.55-6.61.91-5-3.1-8-6.76-10.62a14.87 14.87 0 0 0-2.48-1.18c-5.66-2.71-11.55-5-16.92-8.22-13.65-8.11-26.84-7-39.8 1.27-8.44 5.36-8.84 10-1.49 16.7a31.66 31.66 0 0 0 7.28 4.65c10.51 5.3 21.94 4.98 33.28 5.44zm-189.54-22.63c-2 .62-5.66 1.32-8.91 2.85-4.06 1.92-6.12 9.39-4.16 13.3 2.12 4.22 5.81 5.24 11.45 3a61.39 61.39 0 0 0 7.5-3.46c4.53-2.54 6.87-6.87 5.61-10.51-1.62-4.69-5.82-4.79-11.49-5.18zm575 .19h-2.3c-3.69.12-6.61 1.71-8 5.17a6.52 6.52 0 0 0 3.23 8.28 55.45 55.45 0 0 0 14.68 5.64c4.18.85 7.3-3.3 6.87-7.69-.67-7.41-5.66-11.34-14.48-11.4zm-83.42 10.61c1.51-2.72 3.2-4.38 3-5.73s-2.45-3.56-3.56-3.42c-1.44.18-3.74 2.36-3.68 3.56.07 1.52 2.14 3 4.24 5.59zm-401.18-5.86c-2.35-1.23-3.8-2.61-5.05-2.46s-2.13 1.93-3.19 3c1.21.91 2.41 2.52 3.63 2.54s2.47-1.56 4.61-3.08zM75.46 824.89c3.31-.84 6.58-2.08 9.94-2.44 5.73-.62 11.51-.82 17.27-.94 3-.07 6.11.6 9.16.6h1652.75c6.72 0 13.5-1.19 20.17-.68 5 .38 9.84 2.53 14.69 4.12.65.21 1.14 1.74 1.21 2.7.18 2.44 0 4.9.1 7.35.09 2.65-1 4-3.76 4a4.25 4.25 0 0 0-2.25.33c-8.32 5.55-17.22 2.27-25.94 1.81-2.14-.11-4.28-.27-6.43-.27H114.23c-6 0-11.9 1.1-17.85 1.26a60.69 60.69 0 0 1-10.81-1c-3.4-.52-6.74-1.41-10.11-2.14zM1157.81 896.89a22.63 22.63 0 0 0 2.81-2c5.37-5.84 10.61-11.81 16.07-17.55 4.76-5 10.58-7.93 17.66-7.32 8.82.77 18.06.36 26.3 3 13.29 4.24 18.08 12.25 17.12 23.88-.59 7.18-7 12.73-14 11.12-5.6-1.29-11-3.74-16.4-5.72-2.42-.88-4.85-2.68-7.2-2.57a8.4 8.4 0 0 0-6 3.56c-1.53 2.7.6 5.31 3.27 6 11.53 3.2 20.26 11.32 30.45 16.85a23 23 0 0 1 10.38 11.86 28.76 28.76 0 0 0 2.41 4.43c1.27 1.93 2.6 2.15 4.44.35 7.88-7.75 8.56-12.89 2.7-22.28-7.46-12-3.78-27.74 6.59-38.4 10.71-11 23.12-13.35 37.28-12 9.19.86 17.86 2.9 24.58 9.9 5.25 5.47 7.11 16.33 3.93 23.24-1.89 4.09-6.53 6.36-12.17 5.1-5.06-1.13-9.86-3.34-14.91-4.55-2.71-.65-7.18-1.37-8.26 0-2.62 3.31 1.63 4.91 3.72 6.42 7.83 5.64 15.61 11.42 23.9 16.31 6 3.58 9.14 8.38 9.86 15a41.64 41.64 0 0 1-3.64 22 17.28 17.28 0 0 1-6.33 6.85c-5.67 3.61-11.48 7.28-17.7 9.7a147.6 147.6 0 0 1-25.37 7.57c-10.44 2-14.61 5-16.22 15.62-1.18 7.85-1.48 15.84-2.39 23.75-.44 3.79-1.49 7.51-2 11.3-.38 2.55-1.05 5.35-.39 7.69s2.43 5.41 4.43 6.11c2.25.79 6.11.18 7.84-1.39 3.68-3.34 6.53-7.63 9.54-11.66 3.29-4.41 6.59-8.83 9.48-13.49 2.57-4.13 4.43-8.68 6.88-12.88a91.91 91.91 0 0 1 7.47-11.39c7.71-9.63 15.66-19.07 23.6-28.53a25.5 25.5 0 0 1 4.68-4.3c4.93-3.52 9.95-6.94 15-10.3 3.06-2 6.25-3.86 9.38-5.78s6.45-3.55 9.32-5.79c11.11-8.64 22.42-5.08 26.15 8.42 1.43 5.16 3.51 10.27 4 15.52.34 4-1.06 8.24-2.33 12.16-1.67 5.17-4.72 10-5.85 15.21-1.91 9-4.59 17.22-9.76 25-3.44 5.19-5 11.79-6.52 18-.47 1.92 1.53 5.34 3.4 6.61 1.25.85 5.13-.14 6.31-1.56a111.74 111.74 0 0 0 11-15.62c3.57-6.2 7.57-11.06 15.42-11.26 5.09-.13 8.64 2.11 10.67 6.5a45.78 45.78 0 0 1 3.29 10 23.8 23.8 0 0 0 9.79 15c4.35 3.14 9 4.62 14.17 1.9a19.68 19.68 0 0 1 4.71-1.81c12.58-2.85 17.71-16.47 6.5-27.87-4.08-4.15-9.6-7.07-14.85-9.83-7.11-3.74-11.73-9.86-15.91-16.16-3.27-4.92-2-10.6 1.7-15 6.38-7.8 13-15.45 19.9-22.77 2.3-2.44 5.83-3.76 8.87-5.47 2.8-1.57 6.33-2.36 8.44-4.55 7.31-7.6 16.68-8.46 26.23-8.86 6.43-.27 12.88-.08 19.32-.18 3.46 0 6.54 1.36 7.11 4.57.39 2.21-1 5.16-2.46 7.16-1.66 2.29-4.29 3.87-6.47 5.8-2.47 2.19-2.63 4.21.24 6.36 6 4.47 17.9 4.59 23.51-.22 5.45-4.67 9.67-10.25 10.84-17.62 1.29-8.11 4.94-14.86 10.44-21.06 2.92-3.29 4.28-8 6-12.27 3.2-7.63 12.27-13.93 20.52-14 7.81-.07 13.45 7 9.55 13.58-6.71 11.3-9.29 24.59-18.18 34.85-6.37 7.34-7.13 15.89-1.59 24.66 5 7.91 3 13.55-5.93 16.82-6.81 2.49-10.52 7.11-11.52 14.11-.71 5-1.14 10-2 15-1.19 6.59-2.71 13.13-4.07 19.7-.49 2.39-1.71 5-1.2 7.16.62 2.74 2.14 5.91 4.3 7.45 1.47 1.06 5.12.33 7.06-.83 3-1.77 5.1-4.85 7.91-6.93 3.38-2.52 6.87-5.17 10.74-6.69 6-2.34 9.27-6.25 10.09-12.45.42-3.19.71-6.39 1-9.59a37.46 37.46 0 0 1 6.35-17.93 44.65 44.65 0 0 0 6.35-15.06c1.78-7.65 4.63-14.47 9.67-20.54 2.41-2.91 3.61-6.86 6.09-9.68 2.33-2.65 5.33-5.42 8.56-6.39 8.19-2.48 13.27 3 13.14 13.17s-2.27 19.36-9.15 27.25a17.75 17.75 0 0 0-3.79 8.26c-2.32 13.11-7.31 25.2-13 37.14-2.69 5.67-4.32 11.77-3.12 18.3 1.56 8.55 6.63 10.7 13.83 5.93 3.53-2.33 7.73-3.72 11-6.32a67 67 0 0 0 9.73-10.11c2.4-2.94 3.9-6.62 6.37-9.49 4.78-5.57 5.17-12.63 7.4-19.09 1.56-4.53 4-8.77 6.06-13.12 2.15-4.51 5-8.82 6.36-13.54a49.91 49.91 0 0 1 8.28-16.71c3.4-4.43 5.59-9.8 8.27-14.78 3.48-6.45 9.48-9.37 16.49-8 5.06 1 8.06 4.49 7.21 9.51-1.93 11.31-3.68 22.62-11.39 32.1-2.86 3.5-4.28 8.44-5.49 13a66.07 66.07 0 0 1-8.81 19.56c-2.63 4-4.16 8.85-5.43 13.53-2.06 7.61-4.58 14.77-9.72 21.07s-5.47 14.55-5.75 22.34a50.68 50.68 0 0 1-7.27 24.77c-3.09 5.24-4.37 11.71-5.63 17.8-1.41 6.83-3.07 13.21-7.39 19-3 4.07-4.24 9.45-6.75 14-2.32 4.2-5.28 8-8 12-.25.37-.79.55-1 .92-5.69 9.68-15 15.43-23.38 22.37-5.62 4.68-11.55 7.64-18.61 7.84a174.06 174.06 0 0 1-23.85-.71c-3.86-.42-7.69-2.57-11.19-4.54-4.39-2.47-8.87-5.08-12.52-8.48a274.89 274.89 0 0 1-19.69-20.41 39.26 39.26 0 0 1-6.83-11.92c-1.06-2.84-1.38-6.82-.18-9.44 1.72-3.76 5.93-4.51 10-3.69 7.07 1.41 13.19 4.64 16.79 11 4 7.14 9.52 12.12 17.26 14.92 4.16 1.5 8 3.88 12 5.7 6.34 2.84 12.36 2.6 18.27-1.54 3-2.07 6.73-2.94 9.71-5a43.18 43.18 0 0 0 7.12-6.87 52.23 52.23 0 0 0 5.7-7.18 115.24 115.24 0 0 0 6.85-12.22c3.24-6.88 6.5-13.79 9-20.93a133.17 133.17 0 0 0 6.08-21.89c.89-5.09-1.78-7.06-7.17-7.08a57.92 57.92 0 0 0-7.34.35c-10.35 1.3-19-3.12-24.07-12.34-1.54-2.82-3.07-5.66-4.73-8.41-1.46-2.4-3.67-3-5.83-1.21-5.8 4.92-11.92 9.59-17 15.19-7.15 7.86-21.68 9.57-29.43 2.15-9.74-9.33-17.35-19.73-15.69-34.52.86-7.75.5-15.62 1.13-23.4.26-3.13 1.61-6.19 2.64-9.22 3.71-10.83 1-16.19-9.9-19.38-3.53-1-7.08-2-10.64-2.89-6.39-1.64-10.77-5.68-13.48-11.53-2.78-6-5.55-7.8-11.94-6.1-4.25 1.13-8.75 2.52-12.19 5.08-2.79 2.06-4.77 5.81-6 9.21a5.58 5.58 0 0 0 4.15 7.23c14 3.57 21.79 14 29.34 25 6 8.64 6.19 17-.63 25.3a16.13 16.13 0 0 0-2.82 4.72c-5.23 15-18 23-30.08 31.2-10.79 7.31-27.06 5.19-36.53-3.77a184.93 184.93 0 0 1-13.64-14.76c-3.3-3.88-6.41-4.63-10.09-1s-7 7.73-10.31 11.71c-5 6-10.24 11.16-19.17 10.73-6.21-.31-10.87-2.63-13.55-7.86-3.93-7.68-9.36-6.89-16.71-3.41a19.59 19.59 0 0 0-6 4.91c-7.26 8.33-16.56 8.94-26.1 6.23-3.44-1-6.88-4.27-8.91-7.41-5.9-9.14-18-8.26-22.11.37-5.84 12.13-27.64 10.32-33.06-.25-1.71-3.34-5-5.86-6.77-9.18-2.25-4.22-4.92-8.81-5.18-13.37a203.47 203.47 0 0 1 .72-29.82c.41-4.56 2.46-9.13 4.46-13.37 3.89-8.24.72-16.06-8.08-18.31-4.44-1.14-9.06-1.59-13.49-2.77-5.14-1.38-10.44-2.63-15.14-5-8.58-4.33-16.81-9.37-25.09-14.27-3.09-1.83-5.47-1.4-8.37.65-3.71 2.62-8 4.45-11.88 6.75-3.4 2-7.15 3.69-9.84 6.41-1.59 1.6-2.62 5.53-1.73 7.36 1 2.14 4.34 3.33 6.85 4.54 1.13.54 2.72.12 4.1.12 13.15 0 26.3.14 39.45 0 9-.09 17.15 9.05 14.81 18.42-1.93 7.7-9.18 10.74-15.51 5.92a14.71 14.71 0 0 1-3-2.81c-3.11-4.28-7.61-5.37-12.46-5.78-3.76-.33-6.76.6-7.65 4.79-1.16 5.4.6 9 5.23 10.19 3.11.78 6.36 1 9.5 1.66 5.59 1.24 6.6 3.17 6.31 11.26-.2 5.59-1.46 7.09-6.81 7.95-2.42.38-4.87.6-7.29 1-4.34.68-8.07 5.52-7.77 10 .33 4.87 3.28 7.06 8.55 7.54 6.11.56 10.12-2 13.53-6.75 4.3-5.92 6.89-6.9 11.38-5.15 4.15 1.61 7.12 7.26 6.66 12.62-.94 10.76-6.29 16.54-17.1 16.43-15.76-.15-31.5-1.32-47.26-1.94-3.64-.14-7.3.2-11 .26-17.75.31-35.49.64-53.24.85a31.33 31.33 0 0 1-8.21-.81c-10.13-2.68-20-.48-30 .85-5.86.78-12.17-.22-18-1.49s-11.11-2.37-17-.16c-8 3-16.24 2-24.47.08a26 26 0 0 0-11.26-.42 112.87 112.87 0 0 1-49.68.3c-6.28-1.33-12.33-1.72-18.46.81-13.86 5.7-28.12 5.23-42.51 2.4-4.36-.85-8.82-1.21-13.14-2.19-5.35-1.21-7.64-4.76-6.88-10.16 1-6.81 2.08-13.6 3-20.41a9.15 9.15 0 0 0-.19-3.65c-.31-1.1-1-2.82-1.72-2.89a4.35 4.35 0 0 0-3.39 1.52 81.6 81.6 0 0 0-6.38 10.09c-4.67 9-11.27 16.46-18.89 23-8.08 6.9-17.59 6-27.08 3.7a21.16 21.16 0 0 1-6.35-2.65c-7.44-4.83-14.89-4.35-22.12 0-7.45 4.5-15.44 4.14-23.62 3.78-7.93-.35-15.9-.25-23.85-.16-10.24.1-19.88-1.39-27.43-9.22a49.64 49.64 0 0 0-4.26-4.2c-6.94-5.65-10.27-13.07-11.56-21.78-.46-3.08-.42-8.1-4.47-7.85-2.22.14-5.11 4.48-6 7.44a129.51 129.51 0 0 0-4.06 19.26c-1.32 8.76-5.25 13.39-14.1 14.1-3 .24-6.49-1.33-9.21-3-5.67-3.42-7.91-3.57-12.66.61a20.39 20.39 0 0 1-29.79-2.56c-6.17-7.65-13-8.44-19.72-1.1-7.56 8.23-16.79 9.27-26.9 8.54-8-.58-12.32-6.09-16.53-11.9a42.33 42.33 0 0 0-5.23-6.37c-3.7-3.41-8-3.4-11.54-.07-4.9 4.61-9.75 9.28-14.44 14.11-7.22 7.44-23.91 6.2-30.79-3.17-6-8.14-11.68-17-12-27.45-.2-7.85 1.63-15.78 2.91-23.62 1-6.32 3.31-12.51 3.78-18.84.71-9.41-2.85-12.63-12.08-13.68-3.87-.44-7.61-2-11.41-3-4.09-1.13-8.11-2.67-12.27-3.32-4.68-.74-7.62 2.09-8.66 6.44-1.29 5.36-1.74 10.94-3.29 16.21-1.32 4.46-3.65 8.62-5.6 12.89-2.6 5.69-5.67 11.21-7.71 17.09-.7 2 .28 5.89 1.89 7.21 2.63 2.17 5.49 0 7.5-2.33q6.81-7.77 13.45-15.7c3.44-4.11 8.08-5.93 12.13-4.57s5.91 4.82 5.94 10.85-2.6 11.25-6.48 15.8c-1 1.17-2.38 2.11-3 3.43-5.09 10.17-14.61 16.4-21.87 24.62-6.85 7.77-20.13 6.87-26.3-1-7.22-9.26-13.64-9.94-22.11-1.24-5.89 6-12.58 8.08-20.66 8a19.64 19.64 0 0 1-15.62-7.37c-6.76-7.93-14.24-8-20.93-.36-6.26 7.16-17.52 7.51-25.22 1.37-11-8.78-14.69-19.87-12-33.46 1.14-5.71 1.47-11.63 3.07-17.19s4.25-10.66 6.5-15.95c1.49-3.5 3.85-6.83 4.47-10.47 1.5-8.87 5.46-16.48 10.13-23.94a25.26 25.26 0 0 0 3-7.6 4.49 4.49 0 0 0-1.49-3.89c-.92-.58-3.07-.27-4.08.47-10.83 7.91-21.68 15.79-32.16 24.15-2.69 2.14-4.24 5.82-6 9q-4.73 8.34-9 16.89a78.15 78.15 0 0 0-5.34 12.09c-2.41 8-5.14 15.51-10.27 22.38-3.15 4.22-4.2 10.08-5.89 15.3-2.85 8.8-7.17 12.27-15.56 12-6.63-.18-10.91-5.09-9.4-11.67 2.42-10.6 5.35-21.09 8.16-31.61a9.35 9.35 0 0 1 2-4.08c6.2-6.25 7.76-14.36 9.76-22.44.77-3.13 2.92-5.93 4.53-8.83 2.5-4.49 5.61-8.74 7.48-13.47 2.25-5.71 4.1-11.27 8.58-16 3.13-3.28 5.08-8 6.67-12.39 4.37-12.17 6.74-14.64 19.46-14.61a59 59 0 0 0 26.5-6.47c7.06-3.43 14.32-5.56 22.06-1.76 9.41 4.62 15.27 17.31 12.64 27.62-2 7.72-3.78 15.49-6.05 23.13-1 3.46-2.39 7.18-4.7 9.83-5.15 5.92-6.74 13-7.94 20.25-1.23 7.52-3.26 14.64-8.8 20.3a15.29 15.29 0 0 0-2.46 3.86c-2.53 5-1.67 11.11 1.74 12.92 3.14 1.65 11.46-.78 13.55-4.41 2-3.43 3.19-7.29 5-10.84 1.57-3.11 3.47-6.07 5.27-9.06.63-1 1.8-1.91 2.05-3 2.48-10.93 9.09-19.47 15.45-28.35A153.93 153.93 0 0 1 347.79 966c7.26-5.74 15.61-10.1 23.43-15.16a76.86 76.86 0 0 0 7.43-5.35c6.58-5.49 15.54-4.62 20.68 2.24a40.2 40.2 0 0 1 4.17 6.59c3 6.28 8.09 9.52 14.77 10.24q15.08 1.63 30.2 2.79c4.58.35 6.86-3 8.4-6.6.88-2.08.76-4.57 1.58-6.69 1.95-5.06 4.05-10.07 6.35-15 1.74-3.71 4.59-7 5.71-10.87 3.3-11.21 11.81-18.48 19.36-26.37 3.31-3.45 8.36-3.72 12.95-1.61 4.18 1.92 5.2 5.6 5.19 9.92a28.11 28.11 0 0 1-7.81 20c-3.06 3.32-4.53 8.12-6.61 12.31-2.27 4.59-4 9.51-6.72 13.8-3.38 5.3-4.31 8.77-.37 13.85 6.23 8 4.08 14.32-3.18 20.69a68.21 68.21 0 0 1-5.66 4.68 24 24 0 0 0-10.3 17.28c-1.22 10-2.11 20.11-2.33 30.19-.07 3.46 2.31 7 3.56 10.46 3.24-1.33 6.7-2.28 9.66-4.07 4.85-2.92 9.29-6.52 14.07-9.57a17 17 0 0 0 8.28-13.11c.92-8.83 3.79-16.82 7.91-24.73 3-5.85 3.81-12.85 5.86-19.25a66 66 0 0 1 4.11-9.61c3-6 6.63-11.67 9.33-17.78 3.21-7.25 7.86-10.84 15.46-10.69 6.13.12 9.65 3.14 9.63 9.25a59 59 0 0 1-1.78 12.7c-2.32 10.32-5.25 20.19-11.37 29.32-3.62 5.4-4 13-5.68 19.64s-2.85 13.46-4.82 20c-1.79 6-1.08 11.11 2.76 16 2.42 3.06 5.12 3.67 8.9 2.55 11-3.25 18.64-10.88 25.35-19.51 2.16-2.78 3.11-6.56 4.38-10 1.64-4.4 3-8.9 4.58-13.33 2.06-5.9 4.65-11.66 6.17-17.69 2-7.79 4.15-15.07 9.46-21.6 3.64-4.47 5.1-10.7 7.61-16.11a28.38 28.38 0 0 1 3.06-5.64c4.3-5.49 5.5-11.89 5.75-18.56.22-6 .06-11.93.2-17.89.1-4.4-1.14-8.16-4.63-11-6.15-5-8-11.68-7.46-19.32.47-7.11 4.69-12.14 11.78-12.29 15.72-.33 31.46-.63 47.15 0 4.41.19 8.86 3.52 13 6 3.51 2.12 6.19 5.74 9.82 7.49 10.21 4.92 11.77 15.67 9.62 25.31a31.77 31.77 0 0 1-4 9.18c-2.42 4-2.5 8 0 11.67 3.13 4.63 6 9.84 13.08 9.19 4.52-.42 7.1-2.66 7.33-7.17.37-7 .57-14 .93-21 .23-4.65-1.85-8.08-4.88-11.45-5.71-6.32-9.06-13.46-5.74-22.26 1.66-4.4 5-6.86 9.36-7 9-.29 18-.34 27.06.07 6.16.29 10 4.2 11.3 10.31a20.72 20.72 0 0 1-5.66 19.9c-4 4.12-5 8.88-4.74 14.32q.57 10.54.81 21.1c.18 8.44 3.93 13.65 12.15 15.42a35.91 35.91 0 0 0 11 .34c4-.38 7.16-4.78 7.26-10 .19-10.42.49-20.88-.19-31.27-.3-4.55-2.88-9-4.43-13.42-1.39-4-3.19-8-4.07-12.12-1.38-6.56 2.3-12.51 8.93-13.12a234.1 234.1 0 0 1 28.78-.57c6.28.2 9.7 4.58 11.22 10.49 1.86 7.25 3.4 8 9.66 3.87a75 75 0 0 0 11.67-9.59c4-4 8.69-6.55 14.21-6.64a167.25 167.25 0 0 1 23.27 1c3.36.42 6.49 3 9.62 4.82a28.18 28.18 0 0 1 3.1 2.73c6.83 5.48 9.11 5.06 13.62-2.45 4.74-7.91 8-9.21 17.17-7.57 5.55 1 11.31 1 16.74 2.42a69.31 69.31 0 0 1 16 6.23c3.6 2 5.89 3 9.65 0 14-11.23 32.71-8.13 43.12 6.33 8.47 11.77 17.41 23.19 26.18 34.74a14.17 14.17 0 0 0 2.62 2.57c3.18 2.44 6.55 1.52 6.68-2.37a27.79 27.79 0 0 0-2.33-10.95c-1.16-2.9-3.88-5.15-5.27-8-2.37-4.87-5.24-9.82-6.11-15-1.31-8 3.77-13.34 11.85-13.64a173 173 0 0 1 22.43.15c3.75.35 7.68 2.25 10.84 4.44 4.48 3.11 8.38 3.14 12.65.09 7.29-5.19 15.5-5.68 24.12-5.2 8.09.46 16.26-.37 24.35.06a146.29 146.29 0 0 1 24 2.86c7 1.58 11.31 6.91 13 14.09.62 2.95 1.63 5.79 2.72 9.39zm-244.52 83.44l-.12-.8h-11c-7.35 0-10.26-2.21-12.35-9.13-1.66-5.53-.15-10 3.58-14.37 2.75-3.25 5.91-7.29 6.28-11.22.93-9.7.46-19.54.26-29.32 0-1.47-1.61-2.9-2.47-4.35-1.16 1.08-2.75 2-3.39 3.29-1.77 3.72-2.56 8-4.8 11.39-4.39 6.61-5.87 13.87-5.58 21.43a34.37 34.37 0 0 1-5.58 20.47c-7.37 11.5-10.85 24.2-12.32 37.63-1.29 11.72-3.07 23.39-4.14 35.12a42.27 42.27 0 0 0 1.08 13.63c1.49 6 7.82 7.68 12.22 3.3a30.87 30.87 0 0 1 15.49-8.41 13 13 0 0 0 9.93-8.73c2.56-7.59 3.64-15.2-.16-22.8a72 72 0 0 1-3.06-7.69 8.75 8.75 0 0 1 2.44-10c6-5.7 13.11-5.26 20.29-3.49 8.89 2.19 11.88 9.25 7.66 17.35-1.13 2.17-3 4.3-3.18 6.55-.93 11.89-2.11 23.83-1.85 35.72.2 8.84 10.22 12.47 17.3 7a52.52 52.52 0 0 0 4.84-4.23c6-5.83 9.16-6.1 16.06-1.21 5.85 4.14 9.75 3 12.32-3.74a10.25 10.25 0 0 0 .63-5c-1.79-11.94-3.51-23.9-5.72-35.77-1.73-9.33.3-12.87 8.87-17 5-2.41 10.22-5.65 13.33-10 4.73-6.56 9.47-12.47 16.54-16.72 5.14-3.08 6.66-10 3.53-14.58-5-7.32-10.53-14.3-16.16-21.16a5.86 5.86 0 0 0-5.27-1.34c-1.39.5-3.1 3-2.91 4.41a59.8 59.8 0 0 0 3.29 13c1.51 3.95 4.36 7.41 5.84 11.38 2.48 6.67-.35 13.07-6.21 15.34a43.91 43.91 0 0 1-5.23 1.74c-13.56 3.29-26.89 5.29-38.63-5.35-1-.9-3.94-.41-5.56.34-2.43 1.13-4.3 4-6.75 4.49-6.38 1.42-12.9 1.96-19.34 2.83zm-323.4 67.58c1.37 2.69 2 5.79 3.78 6.81 1.45.83 4.79-.26 6.48-1.55 3.81-2.91 7.14-6.46 10.64-9.77 2-1.88 3.67-4.23 6-5.61 4.83-2.93 7.7-6.94 8.26-12.5.6-6 3.57-10.75 6.55-15.85 3.22-5.53 5.19-12 6.62-18.29a8.94 8.94 0 0 0-5.22-10.33c-4-1.71-9-3-12 .77-7.94 9.94-16.9 19.39-17.43 33.46-.3 8.13-2.32 15.84-8.67 22.07-2.64 2.54-3.35 6.97-5.01 10.79zm708.63-2.59c-.15 7.67 4.4 10.53 10.18 7.89 7.83-3.58 15.49-7.48 19.52-15.91a23.61 23.61 0 0 1 5.07-7.07c5.51-5.08 7.32-11.72 9.4-18.55 1.37-4.5 4.5-8.45 6.72-12.71 3-5.66 6.27-11.21 8.54-17.14 1.58-4.13-2.17-7.25-6.46-5.71-1.74.63-3.18 2.25-4.6 3.59-2.53 2.42-5 4.9-7.39 7.47-6.2 6.71-12.83 13.09-18.36 20.32-6 7.8-12.89 15.21-15 25.44-.36 1.76-2.42 3.11-3.44 4.8-1.77 2.96-3.34 6.03-4.18 7.58zM380 980.12c-1.22-1.66-2-3.71-2.89-3.75-2.14-.09-4.94.07-6.36 1.35-5.95 5.4-11.54 11.2-17.17 16.94-6.18 6.3-12.75 12.31-16.35 20.67-.23.53-.9.85-1.21 1.36-2.48 4-5.14 7.85-7.32 12a104.29 104.29 0 0 0-4.65 11 31 31 0 0 0-2.2 7c-.66 5 2.83 8 7.6 6.45 7.49-2.48 14.62-5.58 18.53-13.25a20.08 20.08 0 0 1 4.55-6.31c5.39-4.54 7.62-10.62 9.16-17.1s5-11.59 8.74-17c3.98-5.81 6.35-12.75 9.57-19.36zm817.94-24.76c2-1.42 4.79-2.46 5.63-4.38.73-1.65 0-5.35-1.44-6.32a87.88 87.88 0 0 0-15.44-8.72c-12.74-5.48-24.42-11.76-27.53-27-.74-3.6-2.61-4.56-5.89-2.3-7.43 5.13-14.58 5.24-21.86-.76-2.33-1.93-5.76-2.72-8.83-3.5-2.69-.68-5.48-.1-6 3.27-.5 3.17 1 5.29 4.37 5.84 3.78.62 7.55 1.24 11.32 1.93 4.79.87 7 3.28 7 8.15a51.2 51.2 0 0 1-1.25 10.46c-1 4.53.76 7 5 8.32 3.8 1.15 7.74 2 11.33 3.61 3.19 1.45 6 1.85 9.16.25 6.73-3.39 12.8-2.19 17.95 3.24 4.22 4.61 9.54 6.83 16.43 7.91zm-265.43-23.19h-.35a79.22 79.22 0 0 1-.06 8.72c-.81 7.51 3.32 13.16 6.92 19 1.29 2.08 3.57 4.14 6.09 1.8 5.64-5.24 11-10.58 10.32-19.47-.52-7-1.18-14.32.28-21.06 2.65-12.22-2.64-21.45-9-30.58-2.52-3.6-5.06-3.52-6.87.52-3 6.66-5.35 13.62-7.86 20.5a9.75 9.75 0 0 0-.29 3.63c.22 5.64.53 11.29.82 16.94zm-198.07 54.14c0-4.72-2.33-7.54-8-8.42-6.92-1.09-13.21-3-18.88-7.54-2-1.56-6.16-1.33-9-.55-4.52 1.25-9.24 2.94-12.95 5.7-4.77 3.55-8.81 8.16-12.82 12.63a125.33 125.33 0 0 0-8.22 10.9c-1.38 2-3.26 4-3.58 6.15s1 4.65 1.63 7c1.86-1.28 3.79-2.48 5.57-3.87.69-.53.9-1.64 1.55-2.24 3-2.73 5.68-6 9.11-7.89a65.31 65.31 0 0 1 13.66-5.29c4.68-1.38 10-3.13 14.19.22 7.17 5.78 14.54 3.37 21.84 1.57 3.87-.93 6.07-4.11 5.9-8.37zm-25.69 37.33c-.92-6.44-2.21-9.41-5.41-10.52-4.29-1.48-14 1.51-17.11 5a95.78 95.78 0 0 1-9.57 9.85c-6.54 5.49-7.55 12.8-1.79 19.24 4.27 4.77 8.94 9.19 13.57 13.62a12.25 12.25 0 0 0 4.34 2.45c4.2 1.47 7.74-.73 8.3-5.13a14.33 14.33 0 0 0-.16-5c-1.21-5.09.17-9.57 2.24-14.19 2.23-4.96 3.76-10.2 5.59-15.32zm138-69.6l5.73-3.45c-1.39-2.18-2.74-4.37-4.19-6.5a4 4 0 0 0-1.51-1c-7.33-3.79-14.67-7.55-22-11.37a28.7 28.7 0 0 1-5.51-3.22c-8.27-7.1-16.72-14.18-17.07-26.5a2.64 2.64 0 0 0-5-1.16c-1.7 3.19-4.35 6.58-4.29 9.86a166.23 166.23 0 0 0 2.61 25.45c.91 5.23 4.62 7 10 6 7-1.25 13.21-.19 18.94 4.48s13.07 6.49 22.29 7.37zm-28.21 24.73c-.13-.32-.27-.64-.41-1-2 1.18-4.44 2-5.9 3.62-5.38 6.07-6.07 22.75-.83 29.07 3.67 4.41 8.26 8.13 12.74 11.78 2.61 2.13 4.79 1 4.93-2.33a58.2 58.2 0 0 0-.68-9.11c-1-8.74 1.73-12.78 9.54-15.92 2.15-.86 4.21-3.88 4.77-6.26.75-3.24-1.44-6.13-4.79-6.8-6.4-1.26-12.91-2.05-19.37-3.05zm234.21 12.57a62.46 62.46 0 0 0 0-6.42c-.38-3.71-1.13-7.47-5-9.21s-7 .51-10 2.69c-3.59 2.53-7.31 4.92-11.13 7.09-5.38 3.07-6.29 7.11-2.41 12s8.9 9 8.92 16c0 .76 2.82 2.38 4 2.12 10-2.22 15.4-9.08 15.7-19.24-.03-1.66-.08-3.37-.08-5.03zm64.15 53.18c.47 3.94.51 8 1.54 11.78a20.42 20.42 0 0 0 4.47 8.23c3.41 3.67 8 2.8 10-1.82a34.72 34.72 0 0 0 2.6-10.57c.62-7.3.76-14.64 1-22 .08-3.19.3-6.53-.49-9.55a8 8 0 0 0-4.34-4.7c-1.16-.45-4.05 1.08-4.77 2.46-4.38 8.29-11.06 15.76-10.01 26.17zm-88.27 5.8c8.65 1 10.67-6.54 8.87-11.86-1.57-4.64-3.29-9.23-4.77-13.89-.94-2.93-2.63-3.75-5.76-3.94s-6.23-1.76-9.15-3.14c-1.75-.82-3-2.62-4.69-3.64-3.83-2.34-7.39-.63-8.14 3.8s.49 8.4 3.09 12.11c3.13 4.48 6.14 9.07 9 13.76s6.25 7.48 11.55 6.8zm-238-73.93c-1-4.56-3.14-6.49-6.57-5.18a30.51 30.51 0 0 0-9 5.07 140.46 140.46 0 0 0-12.22 12.3c-1.48 1.64-2.92 3.85-3.13 5.93a7.58 7.58 0 0 0 2.16 5.85c1.22 1 4 .54 5.84-.05 1.45-.47 2.53-2.11 3.74-3.26 4-3.75 8.12-7.34 11.87-11.31 2.68-2.86 4.84-6.22 7.27-9.35zm285.11 62.46c-.08-.42-.2-1.49-.46-2.52-1.18-4.62-7.83-11.66-11.5-11.47-6.08.31-6 6-7.88 9.94a11.12 11.12 0 0 0-.77 2.16c-.78 3.44-.88 6.73 2.4 9.11 4.09 3 8.44 4.28 13.32 2 3.62-1.69 4.95-4.73 4.85-9.22zm18.76-60.33c-7.67-1.06-12.57 6.2-9.48 12.35 3.66 7.3 13.85 9.64 20.31 4.59 3.87-3 4.48-5.74 2-9.93a13.23 13.23 0 0 0-12.87-7.01zM646.73 938.9c-.13.28-.25.57-.37.85-2 .12-4.4-.43-5.86.5a13.83 13.83 0 0 0-5.44 6c-.54 1.36 1.14 5 2.51 5.45 6 1.88 12.28 3.14 18.21-.26 3.78-2.17 4.3-6.15.77-8.61-2.82-1.97-6.55-2.67-9.82-3.93zm199.88-40.3c-4.72-.11-6.56 1.87-7.14 5.11-.65 3.62 1.23 5.95 4.44 7.08a132 132 0 0 0 12.72 3.85 9.71 9.71 0 0 0 5.32-.49c2.65-1 3.53-3.17 1.52-5.44a33.47 33.47 0 0 0-16.86-10.11zm-98.44 134.83c.57.77 1.6 3.64 3.31 4.13 2 .56 5.75-.24 6.68-1.73a57.1 57.1 0 0 0 6.23-14c.9-3-1.44-4.66-4.74-4.25-7.06.89-11.12 5.91-11.48 15.85zm369.75-92.83v.23c-1.53 0-3.06-.06-4.58 0-3.23.16-6.35.88-7 4.62-.69 4.07 2.07 6.17 5.41 7.45 5.16 2 13-.45 16.13-4.87 2.18-3 1.38-5.7-2.25-6.58a58.07 58.07 0 0 0-7.71-.85zm-314.56 94.85c-1.06-2.18-2.13-4.37-3.19-6.56-2.28 1.22-5.17 1.93-6.71 3.76a30.17 30.17 0 0 0-5.29 9.54c-1.44 4.28 1.33 6.82 5.74 5.9 5.84-1.21 8.6-5.09 9.45-12.64zm475.24-81.68c5.54 0 10.5-3 10.27-6.26-.19-2.58-4.52-5.75-7.85-5.75-5.47 0-9.13 2.69-9.21 6.77-.07 3.76 1.87 5.25 6.79 5.24zM643.21 911.4v.26c1.94-.31 4.12-.19 5.77-1.06s3.69-2.84 3.54-4.09c-.2-1.72-2.09-4.26-3.65-4.59a22.76 22.76 0 0 0-10.32.05c-1.55.42-3.22 3.67-3.17 5.6 0 1.32 2.85 2.73 4.62 3.75.85.47 2.14.08 3.21.08zm436.33 5.69c0-3.26-.34-6.35-4.61-6.53-4-.17-7.36 4.29-7.46 9.46-.07 3.53 1 6.08 5.06 6.11 4.25.02 6.98-3.51 7.01-9.04zM737 1038.52a8.57 8.57 0 0 0-9 8.43c0 3 .78 5.6 4.34 5.92 2.42.21 8.6-6.66 8-9.58-.34-2.04-2.55-3.73-3.34-4.77zM902.45 471.46h42.33c15.93 0 21.12 3.74 22.64 19.44a203.62 203.62 0 0 1-.15 35.78c-.9 11.19-7.7 17.24-19 18.21-5.93.52-10.26 2.92-14.37 7.05-7 7-14.64 13.48-21.83 20.35-6.64 6.34-13 12.94-19.57 19.36-2.73 2.68-5.54 5.29-8.45 7.76-7.55 6.4-8.49 14.61-1.43 21.53a49 49 0 0 1 12.64 19.39c.62 1.82 2.13 3.33 3.17 5 2.88 4.68 5.68 9.41 8.61 14 2.36 3.73 5 7.27 7.27 11.07 2.54 4.34 4.35 9.14 7.18 13.26a253.89 253.89 0 0 0 16.78 22.21c1.76 2 5.78 2.53 8.87 2.88 14.43 1.64 20.89 8.38 20.85 22.87 0 11.15 0 22.33-1 33.42-.84 9.77-5.79 14.43-15.69 14.6-26 .46-52 .33-78.05.39-5.95 0-11.92 0-17.85-.32-10.94-.63-17.61-7.26-17.91-18.23-.32-11.19-.14-22.39-.08-33.59 0-5.34 2.82-9.27 7-12.29 2-1.43 4.23-2.51 6.17-4 3.79-2.88 4.78-7 2.11-10.94-5.37-7.81-11.17-15.31-16.58-23.08a58.1 58.1 0 0 1-4.14-8.09c-.94-1.92-1.51-4.07-2.7-5.8-2.8-4.1-6.23-4.71-10.21-1.72a63.87 63.87 0 0 0-6.68 6.29c-7.64 7.69-15.28 15.39-22.83 23.18a17.52 17.52 0 0 0-4 5.47c-2.66 6.86.52 11.64 7.84 11.91 7.15.26 14 1.63 18.52 7.51 2.46 3.21 4.72 7.44 5 11.33.66 10.85.45 21.77.16 32.66-.35 12.79-5.28 18.24-18 19.41-8.35.78-16.78.81-25.17.79-18.09 0-36.18-.31-54.26-.5-5.34-.06-10.72.17-16-.34-10.72-1-15.69-5.86-16.09-16.46-.47-12.25-.43-24.54 0-36.8.29-9 7.56-16.31 17.42-17.28 10.26-1 14.7-3.46 12.84-17.6-1-7.37-.78-14.89-1.07-22.34s-.75-14.7-.7-22c.13-20.69.85-41.39.57-62.07-.13-9.82-.42-19.5 1.34-29.26 1.24-6.92-1.7-10.15-8.76-11.28-2.72-.44-5.49-.62-8.19-1.15-7.85-1.51-14.33-7.86-15.32-15.71-.63-5-.29-10-.38-15.06-.08-3.66-.3-7.34-.19-11 .16-5-.1-10.19 1-15 2.28-9.66 9.37-15.08 19.4-15.13q45.33-.22 90.65 0c9 0 15.13 3.92 15.66 12.32a460.75 460.75 0 0 1 .1 48c-.31 7.13-5.69 11.25-13 12.16a36.1 36.1 0 0 1-5 .73c-7.06-.09-9.32 3.62-8.31 10.72 1.38 9.59 1.56 18.9-1.3 28.2a4.42 4.42 0 0 0-.17 2.72c1 2.58 1.75 6.32 3.69 7.23s5.89-.38 7.7-2.06c4.23-3.94 7.47-8.92 11.54-13.05 8.38-8.51 17-16.74 25.58-25.07 1.87-1.81 4-3.41 5.65-5.38 3.37-3.93 3.85-8 1.05-12.27a35.32 35.32 0 0 1-5.81-22.24c.41-6.41.05-12.87.08-19.32.08-14.88 7.38-22.51 22.25-22.71 15.49-.21 31-.05 46.47-.05zM1304.79 471.49c20.09 0 40.18.1 60.27 0 11.73-.09 22.76 2.15 33.08 8 3.84 2.17 8.21 3.36 12.26 5.19a48.45 48.45 0 0 1 7.63 4.14c16.61 11.52 28 27.6 38.67 44.36a6.69 6.69 0 0 1 1 2.06c3.68 17.71 10.83 35.08 5 53.72-1.22 3.93-1.69 8.1-2.52 12.15-1.45 7.16-4 13.76-8.63 19.58-2.75 3.45-4.78 7.48-7.41 11a49.71 49.71 0 0 1-7.39 8.56c-6.63 5.66-7.57 13.28-1.84 19.73a71.09 71.09 0 0 1 12.48 19.02c3.56 8.2 8.71 15.75 13.71 23.22 1.53 2.29 4.67 3.82 7.38 4.91 5 2 10.32 3.05 15.21 5.18 9 3.91 12.94 10.9 12.56 20.49-.33 8.41-.64 16.83-.76 25.25-.21 14.33-5.56 20.81-19.81 21.71-13.73.87-27.54.84-41.31.81-17.89 0-35.8-.24-53.69-.85-9.41-.32-14.49-5.84-14.92-15.33-.32-7.17-.13-14.37-.15-21.55 0-5.49-.12-11 .06-16.46s3.18-9 7.75-11.7c12.52-7.29 12.81-11.84 2.15-21.57a28.62 28.62 0 0 1-6.11-9c-3.28-7-8.58-10.67-16.19-10.87-8-.2-15.94-.22-23.92-.13-4.7 0-8.28 2.64-8.95 7.12a79.5 79.5 0 0 0-.82 18.67c.63 7.06 4.26 9.92 11.42 11 12.81 2 15.51 4.74 17.53 17.81a34.92 34.92 0 0 1 .49 5.94c-.21 9.93-.41 19.85-.84 29.76-.48 10.82-6 16.2-17 16.36q-39.32.54-78.63.81c-6.12 0-12.25-.44-18.36-.88-9.37-.68-15.16-6.19-15.58-16.08-.52-12.53-.46-25.1-.09-37.64.26-8.64 5.65-14 14.21-15.4 12.8-2.16 16.5-7.34 14.65-20.32a59.79 59.79 0 0 1-.38-8.26V568.82c0-4.12.73-8.23.85-12.36.21-7.68-2.86-11.23-10.43-12.45-14.32-2.32-17.17-5.27-19.23-19.95a26.06 26.06 0 0 1-.49-4.1c.21-10 .4-19.91.78-29.86.41-10.52 5.6-16.32 16-18a50.45 50.45 0 0 1 7.77-.6q31.26-.04 62.54-.01zm41.21 72.33v.38h-14.25c-9.71 0-13.72 4.89-12.67 14.54.65 5.88.55 11.85.66 17.78.09 5.05-.22 10.12 0 15.16.38 8.53 4.7 12.52 13.2 12.31 6.72-.16 13.46-1 20.16-.74 15.73.7 28.25-4.71 37.83-17.44 5.85-7.79 6.49-17.12.56-25-2.12-2.81-4.45-5.46-6.58-8.26a18.52 18.52 0 0 0-14.17-7.45c-8.23-.47-16.47-.84-24.74-1.28zM198.54 471.48h66.7c10.41 0 20.45 1.33 29.41 7.37a30.28 30.28 0 0 0 8.31 3.87c8.27 2.39 14.75 7.33 20.42 13.52 5.38 5.85 11.18 11.42 15.84 17.81a108.17 108.17 0 0 1 12.2 21c2.35 5.48 3.28 11.85 3.55 17.89.41 9.15-.27 18.35-.55 27.53a33 33 0 0 1-7 19.14 61.79 61.79 0 0 0-4.25 6.56c-5.59 9.82-4.9 18.31 2.66 26.59a39.53 39.53 0 0 1 10.25 19.65c1.05 5.55 2.73 11 4.25 16.46 2 7 3.16 14.15 1.17 21.32-3.06 11.06-4.9 22.8-10 32.83-5.65 11-12.39 21.55-22 30.54-10.32 9.65-22.42 15.31-34.3 21.75a39.28 39.28 0 0 1-15.36 4.29c-11 .88-22 1-33.05 1q-47.38.18-94.76 0c-9 0-18-.16-27-.84-9.35-.7-14.24-4.74-14.88-13.82a299.34 299.34 0 0 1-.45-39.39c.71-11.39 7.89-17 19.26-17.6 8.5-.41 11-3 11-11.79q0-63.24-.14-126.49a122.16 122.16 0 0 1 .74-12.83c1-9.44-2.37-13.44-11.69-13.61-12.19-.23-18.57-5.52-19.17-17.57-.63-12.65-.57-25.39.05-38 .54-10.88 7.87-17.08 18.86-17.11 23.32-.12 46.62-.07 69.93-.07zM240.65 709c5.21 0 10.42-.11 15.63 0 12 .29 22-3.22 30.23-12.54 7.5-8.54 8-18.89.11-27.18-2.43-2.56-4.63-5.55-7.55-7.36-3.77-2.33-8.07-4.92-12.29-5.2-13.55-.91-27.17-.84-40.77-1.05a34.29 34.29 0 0 0-6.38.6c-8.73 1.51-11.87 4.84-10.57 13.41a79.56 79.56 0 0 1-.59 26c-1.31 7.53 3.89 13.19 11.49 13.32 6.9.07 13.79 0 20.69 0zm.63-165.14c-8.63.4-16.75.45-24.79 1.26-5.14.52-7.59 4-7.64 9.22-.07 6 0 11.94 0 17.91 0 7.11 2.83 11.12 9.82 11.2 17.25.21 34.58 2 51.72-1.53 8.18-1.66 14.46-10 13.92-18.51-.65-10.14-7.12-17.62-16.05-18.2-9.17-.61-18.33-.95-26.98-1.37zM519.16 471.51c10.74 0 21.48-.28 32.2.1 8.19.29 16 2.55 20.5 10.16 2 3.34 2.78 7.4 4 11.16 2.58 7.83 5.17 15.65 7.61 23.51 2.18 7 4.12 14.09 6.25 21.11 2.42 8 5 16 7.38 24 2.49 8.5 4.68 17.09 7.15 25.59 1.84 6.29 4 12.49 5.89 18.78 2.53 8.48 4.94 17 7.34 25.52 1.37 4.86 1.88 10.12 4.08 14.55 6.37 12.83 9.13 26.57 11.85 40.42a49 49 0 0 0 5.21 13.59c4.06 7.48 11.4 9.63 19.29 10.7 7.57 1 13.14 5.8 13.45 13.36a379.67 379.67 0 0 1-.32 41.32c-.65 9.48-6 14.07-15.59 14.21-28.33.43-56.68.31-85 .39-4.14 0-8.28 0-12.41-.2-9.9-.41-15.38-4.36-16.07-14.06a364 364 0 0 1-.36-40.86c.33-7.88 5.5-12.19 13.28-13.57 1.35-.24 2.73-.37 4.1-.5 5.89-.57 8.22-2.45 8.63-7a10.24 10.24 0 0 0-7.1-10.15c-6.68-2-13.41-2-20.41-1.74-14.53.59-29.1 0-43.65-.09-3.36 0-6.74-.44-10.09-.27-5 .25-9.6 4.94-10.34 10.2-.57 4.06 1.49 6.65 7 8.86l4.27 1.69c9.13 3.58 14 9.81 13.42 20.08-.44 8.41-.07 16.87-.11 25.3-.06 14.58-5.55 21.23-20 22.14-14.19.89-28.44.83-42.67.79-17.44-.05-34.89-.2-52.31-.88-10.78-.42-17.38-7.84-17.54-18.6q-.22-14 0-28.06c.2-12.51 8.36-21.91 20.6-24 11.9-2.06 12.76-3.42 15.58-15.2 2.05-8.56 5.62-16.76 8.07-25.24 2.12-7.33 3.49-14.88 5.46-22.26 1.54-5.74 3.51-11.38 5.29-17.06 2.56-8.15 5.19-16.28 7.69-24.45 2.28-7.44 4.4-14.94 6.64-22.4q3.76-12.51 7.59-25c2.36-7.73 4.84-15.42 7.1-23.18 2.42-8.34 5.37-16.63 6.78-25.16 1.94-11.76 7.35-21.69 13.95-31.16 3.33-4.77 8.4-6.44 14.07-6.45h32.2zM523 621.89v-.45c3.22 0 6.45.14 9.66 0 5.06-.27 8.08-3 7.36-7.9a40 40 0 0 0-4.41-12.79c-4-7.52-7.25-15.1-7.61-23.8a80 80 0 0 0-2-14.54c-.44-1.9-2.51-4.66-4-4.76-1.87-.13-4.63 1.61-5.69 3.35a38.21 38.21 0 0 0-3.71 9.82c-3.65 13.27-7.09 26.59-10.71 39.86-1.35 5 .43 8.77 5.52 9.69s10.46 1.03 15.59 1.52zM1094.22 471.47h87.86c6.56 0 12.73 1.51 16 7.23 2.36 4.18 3.41 9.5 3.66 14.39.52 10.09-.08 20.24.16 30.35.17 6.88 1.19 13.73 1.44 20.6.18 4.86.37 9.88-.59 14.59-1.78 8.7-7.62 13.71-16.49 14q-19.29.6-38.62 0c-9.12-.28-12.77-4.65-12.92-13.77a40.4 40.4 0 0 0-.32-5.5c-1.11-7.19-3.32-9.06-10.62-9.08-9.5 0-19-.07-28.52 0-7.29.06-11.1 3.83-11.14 11.07q-.06 12.59.16 25.19c.15 7.62 4 11.49 11.91 11.51 8.11 0 16.22-.65 24.33-.77a48.17 48.17 0 0 1 9.57 1c7.42 1.41 12 5.29 12.46 12.75.88 12.78 1.59 25.7.68 38.45-1 14-7.69 19.27-21.82 19.38a149.35 149.35 0 0 1-20.14-1.38c-10.88-1.4-15.68 2.15-16.3 12.93-.39 6.86-.74 13.73-.79 20.6-.08 11.31 4.86 15.32 16 14.37 7.62-.64 15.32-.22 23-.33 7.08-.1 9.55-2.17 10.89-9.2.64-3.3 1-6.66 1.55-10a12 12 0 0 1 9.75-10.26 32.89 32.89 0 0 1 6.36-.88c10.43-.09 20.86-.21 31.28 0 12.29.26 20.3 8.4 20.73 20.67.08 2.45 0 4.91 0 7.36-.58 16.83-1.14 33.65-1.8 50.47a83.85 83.85 0 0 1-1 10.5c-1.09 6.48-5.28 10.56-11.49 11.61-5.67 1-11.55.68-17.34.93-3.81.16-7.63.43-11.45.43h-142.15c-6.42 0-12.86-.4-19.27-.93-9-.74-14.42-4.81-14.94-13.33a364.64 364.64 0 0 1-.31-41.16c.5-9.71 4.78-13.13 14.46-14.82 12.92-2.26 16-6.6 14.26-19.89a70.57 70.57 0 0 1-.35-8.73v-112.7c0-3.51.5-7 .81-10.53.78-8.85-2.63-13.25-11.24-14.49-14-2-17.88-5.89-18.7-21.26a244.87 244.87 0 0 1 .61-32.95c1-12.67 7.43-18.05 20.27-18.24 11.19-.17 22.39-.06 33.58-.07h56.59zM1703.34 471.48c14.88 0 29.76-.06 44.63 0 10.76.06 18 6.09 18.67 16.81a277.28 277.28 0 0 1 .24 35.77c-1 15-7.2 20.39-22.42 20.91a11 11 0 0 0-9.24 5c-8.41 11.82-16.89 23.59-25.17 35.52-7.65 11-15.11 22.21-22.59 33.37-3 4.43-5.69 9-8.59 13.47a22.32 22.32 0 0 1-3.56 4.76c-6.88 6.08-10.6 14.15-14.61 22.1-3.24 6.41-2.21 13.15-2.34 19.85a110 110 0 0 1-.73 13.22c-1.15 8.23.42 14.88 11.81 17.13a41.93 41.93 0 0 1 12.74 5c6.1 3.58 8.28 9.75 8.24 16.51-.06 10.38-.25 20.78-.84 31.14-.57 9.93-5.13 15.07-14.95 17a81.8 81.8 0 0 1-15.06 1.49q-29.67.24-59.35 0c-8.85-.05-17.71-.3-26.54-.85-8.24-.52-13.94-5.09-14.53-13.32a307.18 307.18 0 0 1-.62-39.9c.63-10.74 8.33-16.84 19.08-17.58 9.6-.65 11.73-2.9 11.74-12.53 0-8.7-.27-17.41 0-26.11.23-6.79-2.46-12.12-6.62-17.12-2-2.45-3.69-5.22-5.52-7.85-8.19-11.77-16.45-23.5-24.55-35.33-6.12-9-11.76-18.22-18.11-27-8.23-11.36-14.57-24.12-25.16-33.76-3.33-3-6.75-4.9-11.36-5.16-12.55-.71-18-6.32-18.22-19q-.36-17.25 0-34.5c.27-12.79 6.4-19 19.14-19.05 29.9-.16 59.81-.09 89.71 0a38.91 38.91 0 0 1 9.09 1.27c7.55 1.86 12.27 7.51 12.53 16.19.39 12.56.28 25.15 0 37.72-.12 5.65-3 10-7.81 13.34-8.4 5.83-8.84 11.1-1.32 18.21 5.07 4.8 8 10.66 11 16.77 1.48 3 4.13 6.39 7.08 7.66 6.38 2.75 8.53 1 12.25-4.84 3.82-6 8.5-11.54 12.76-17.31 2-2.71 4-5.41 5.84-8.25 2.84-4.47 2.11-7.49-2.28-10.52a4.63 4.63 0 0 0-.79-.48c-12.74-5-12.92-15.65-12.34-26.79.26-5 .24-10.08 0-15.11-.7-17.12 5.2-27.71 24-27.91 14.87-.17 29.75 0 44.62 0zM786.41 1372.05c1.29-1.82 2.66-3.59 3.86-5.47a21.35 21.35 0 0 1 11.36-8.88c8.36-2.89 12.51-9.27 14.78-17.38 1.92-6.82 4.73-8.86 10.8-7.12 2.06.59 4.8 3.12 5 5 .54 5.15-.07 10.13-5.35 13.64-2.91 1.93-5.1 5.43-6.63 8.68-.62 1.33.85 4.89 2.27 5.59s4.11-.71 5.88-1.8c1.33-.83 2.16-2.55 3-4 4.23-6.81 14.13-9.51 19.91-4.07 6.27 5.9 11.44 4.73 18 1.16 8.8-4.81 14.9-3.63 22 3 3.52 3.31 7.54 3.84 11.72 1.37 2.37-1.41 4.62-3 6.9-4.58 7.26-5 14.88-6 22.28-.81s14.32 4.53 21.8.22c9.1-5.24 19.69-3.89 26.26 1.43 5.78 4.68 4.33 17.93-3.47 20.47-6.93 2.25-12.28 6.59-17.6 11.3-8.14 7.22-24 7.63-30.09-6.2a5.35 5.35 0 0 0-.84-1.63c-1.34-1.33-2.92-3.71-4.15-3.56-1.66.21-3.2 2.27-4.56 3.75a14.15 14.15 0 0 0-1.69 3.26c-4.45 8.77-13.51 12.56-21.89 7.66-8.11-4.75-14.88-6.56-22.54.6-3.39 3.17-7.91 2.08-11.08-1.52a59.18 59.18 0 0 1-5.34-7.4c-1.94-3.06-3.82-3.64-7.13-1.49a157.26 157.26 0 0 1-16.39 9.16c-5.53 2.71-10 1.26-13.63-3.73-4.9-6.78-5.27-6.83-11.27-.74-4.38 4.45-8.91 8.44-15.73 8.35-7-.1-10.43-3.33-10.61-10.38a18 18 0 0 0 0-2.75c-.41-2.16-1-4.29-1.46-6.43a52.1 52.1 0 0 0-6.91 2.76c-7.68 4.37-15 9.48-22.93 13.26s-13.39 1.46-14.91-5.41a15.13 15.13 0 0 1 .31-5.38c.5-3.17 1.78-6.33 1.61-9.44a15.36 15.36 0 0 0-2.94-8.18c-3.65-4.64-4.41-9.26-1.93-14.51 3.17-6.7 10.15-8.25 15.93-3.51 1.18 1 2.14 2.2 3.31 3.18 2.47 2.07 5 2.21 7.38-.16 3.8-3.79 8-7.28 11.25-11.5 9.65-12.54 21.5-22.56 34.6-31.19 2.8-1.85 6.06-3.6 9.3-4a5.8 5.8 0 0 1 6.82 6.34 160.62 160.62 0 0 1-3.34 21.68c-.33 1.58-2.9 3.1-4.76 3.86-8.41 3.44-14.18 9.05-17.46 17.75-1.31 3.48-4.78 6.21-7.47 9.1-2.51 2.69-4.7 5.35-4 9.13zM1047.28 1340c3.79.51 7.56 1.22 11.37 1.48s7.71.62 11.38-.07c10.3-1.92 18.87 0 26 8.34 5.56 6.43 8 5.65 13.23-1.08 2.91-3.73 6.83-6.76 10.63-9.67 3.39-2.59 7.27-4.53 10.87-6.86 5-3.22 10.41-3.65 15.92-2.3 6.35 1.55 7.55 6.42 3.32 11.3a56.83 56.83 0 0 0-7.78 10.58c-2 3.94-1.08 8.15 2.08 11.46s6.81 4.76 11.59 3.66c9.4-2.18 15.52-7.06 17.3-17.13 1.36-7.63 4.84-10.45 11.44-11.16 8.16-.88 16.84 2.47 18.82 8.46a20.86 20.86 0 0 1-.17 12 23.34 23.34 0 0 1-10.94 13.69 19 19 0 0 0-9.28 11.52c-3.85 13.32-20.94 16.61-30.23 7.7-4.87-4.67-10-5.82-16.3-3.21a106.29 106.29 0 0 1-14.45 4.55c-9.71 2.48-17.7-1.4-24.94-7.37-6.08-5-6.74-4.92-12.57.33-6.8 6.14-13.89 12-20.8 18-.75.65-1.65 1.74-1.61 2.58.28 5-2.78 5.3-6.53 5.2q-8.75-.21-17.48 0c-3.27.07-4.65-1.15-4.71-4.56-.07-4.18 1.49-7.18 4.5-10a178.53 178.53 0 0 0 15.48-16.25c1.45-1.77 1.86-5.8.81-7.75-.8-1.48-4.76-2-7.16-1.72-7.85.93-12.7 5.76-15.89 12.91-3.65 8.2-10.69 11.92-19.38 12.65a8.47 8.47 0 0 1-9.28-9.89 46.56 46.56 0 0 1 11.71-24.52c3.69-4.09 7.76-7.88 11.11-12.22 5.66-7.43 12.8-10.85 21.94-10.65zM696.79 1398.19c-10.47 0-16-3.8-19.19-13.68a64.86 64.86 0 0 1-2.74-11.61c-1.19-9.67 2-17.65 10.54-22.75a69.49 69.49 0 0 1 14.79-6.81c4-1.26 8.5-.51 10.67 4 2.07 4.36 1.08 8.29-2.58 11.6-2.23 2-3.57 4.67-1.17 7.22 2.71 2.89 4.87.54 6.95-1.43 4.06-3.82 7.27-4.1 10.9-.9s2.1 6.6 0 9.52c-4.75 6.75-9.34 13.75-15 19.64-3.09 3.19-8.32 4.33-12.58 6.39-.2-.38-.38-.78-.59-1.19z"/></svg>