<svg id="Слой_1" xmlns="http://www.w3.org/2000/svg" viewBox="0 0 2280 730"><title>logo</title><path d="M782.73,28.59c-.44,3.42,1.09,4.94,4.49,5.6,6,1.18,12.27,2.14,17.88,4.5a98.81,98.81,0,0,1,20.06,11.09,163.65,163.65,0,0,1,22.65,19.53c14.49,15.47,22.49,34.29,25.38,55.23a94.74,94.74,0,0,1-.66,32.17c-1.31,6.4,1,8.8,6.93,11.75,7,3.46,14.62,6.69,20,12,7.59,7.59,10.67,18,9.45,28.94a140.67,140.67,0,0,1-3.52,17.13c-1.29,5.39-2.72,10.76-4.45,16-1.43,4.35-3.36,8.53-5.13,12.76-.88,2.13-1.94,4.18-2.85,6.3-2.06,4.78-4.18,9.53-6.07,14.38a54.25,54.25,0,0,0-3,9.66c-.78,4.28,1.62,6.18,5.72,4.76,3.77-1.32,7.41-3,11.16-4.38,6.19-2.28,12.3-5.78,18.66-6.38,11.53-1.09,23.83-2.7,34.68.17,10.46,2.76,20.66,9.36,26.56,20,4.57,8.26,5.93,17.14,5.21,26.33-.91,11.51-2.66,22.69-7.85,33.45-5.51,11.43-9,23.83-13.69,35.66-4.31,10.81-9.11,21.43-13.69,32.12-.31.71-.69,1.38-1,2.09-5.74,14.23-11.56,28.43-17.19,42.7-3.72,9.45,2,17.47,12.13,18.52,16.32,1.7,28.55-5.88,39-16.78,6.33-6.58,11.47-14.34,16.83-21.79a13.23,13.23,0,0,0,2.18-6.93c.59-14.53,6.44-27.57,11.85-40.58a309.12,309.12,0,0,1,17.49-35.5,206.51,206.51,0,0,1,45.19-54.94,158.79,158.79,0,0,1,35.93-23.15c9-4.19,19.07-5.94,28.45-9.36,15.62-5.7,31.66-3.51,47.57-3,3.92.13,7.79,2.52,11.63,4,2,.78,3.79,2.14,5.82,2.75,14,4.24,22.4,14.23,28.66,26.81,11.93,24,10.58,48.65,3.24,73.28A300.4,300.4,0,0,1,1223.27,426c-6.3,13.6-14.71,26.1-23.47,38.39-11.31,15.89-25.28,29-40.07,41.27-6.64,5.51-14.72,9.3-22.21,13.77a102.46,102.46,0,0,1-25,10.3c-11.75,3.31-23,8.55-35.78,7.16a70.65,70.65,0,0,0-11.08,0c-8.29.41-16.34.11-23.14-5.62a6.68,6.68,0,0,0-2.51-1.14c-15-4.11-24.74-14.13-31.07-27.94a22.6,22.6,0,0,0-3.25-5c-3.13-3.75-6.86-4-10.33-.57-2.41,2.37-4.33,5.24-6.77,7.56-7.49,7.08-14.57,14.77-22.86,20.77-7.22,5.21-15.72,8.76-23.92,12.46-6.55,3-13.36,6.52-20.31,7.21-11.83,1.18-24.51,2.73-35.66-.27-15.48-4.15-32.6-17.87-31.07-38.54.5-6.74.21-13.57,1.07-20.26a61.49,61.49,0,0,1,4-14.1c4.49-11.59,9.24-23.08,14-34.55,4.68-11.2,9.62-22.29,14.29-33.49,4.49-10.75,8.76-21.59,13.18-32.36,1.57-3.83,3.09-7.71,5-11.36,4.76-9,3.95-15-3.07-21.52a12.5,12.5,0,0,0-11.5-3.38c-13.11,2.69-25.32,7.69-33.75,18.38-4.27,5.41-6.68,12.4-9.35,18.92-4.89,11.94-9.22,24.11-14,36.09-4,10-8.48,19.76-12.57,29.71-4.9,11.91-9.59,23.9-14.42,35.84-1.09,2.71-2.32,5.35-3.53,8-.63,1.4-1.42,2.73-2,4.15-5,12-.48,21.78,11.9,25.78a31.32,31.32,0,0,1,5.24,1.76c3.22,1.73,4.8,4.33,3.09,8q-2.13,4.6-4.4,9.15c-2.05,4.1-5.53,5.58-10,6.45-4.2.83-8.13,3.1-12.16,4.77-3.22,1.35-6.34,3.7-9.64,4-7.49.56-15.19,1-22.58-.12-14.65-2.15-26.86-8.57-33.23-23.07-4.21-9.61-2.78-19.28-.46-29,1.58-6.59,3.09-13.2,5-19.7,1.36-4.71,3.16-9.29,5-13.86,4.75-12.14,9.5-24.28,14.44-36.34,4.48-10.93,9.22-21.76,13.85-32.62.43-1,1-1.9,1.41-2.91,4.12-11.25,8-22.58,12.36-33.74,4.49-11.58,9.46-23,14.09-34.49s9-23.5,13.84-35.09c4.61-11,9.7-21.85,14.6-32.75.25-.56.82-1.1.8-1.64-.07-2.9.83-6.87-.69-8.44-2.65-2.71-5.73-.18-8.42,1.92-9.62,7.48-19.68,14.22-31.77,17.14a6.35,6.35,0,0,0-1.79.45c-9.93,6.16-21.3,7.26-32.41,9.32-3.17.59-6.3,1.92-9.46,2-16.31.21-32.67.87-48.92-.17-10.32-.67-20.54-3.69-29-10.67-3-2.51-7.16-3.81-10-6.48C637.11,241,630.6,222.89,635.32,202a87.45,87.45,0,0,1,15.38-32.8,37.88,37.88,0,0,0,2.46-3.35c1.73-2.91.8-5.07-2.53-4.92a51.35,51.35,0,0,0-11.74,1.94c-7.51,2.15-15,4.5-22.31,7.2-5.43,2-11,4.12-15.77,7.26a11.84,11.84,0,0,0-4.59,8.42c-.29,18-1.65,36.21.67,53.92a175.36,175.36,0,0,0,14.35,50.42c4.94,10.73,9.56,21.61,14.54,32.32,4.52,9.71,9.77,19.1,13.91,29s8.1,19.76,10.53,30c3.75,15.86,7.43,31.93,8.78,48.11,1.78,21.42,1.86,42.95-1.69,64.46-3.33,20.22-9.42,39.54-17.19,58.26-5.87,14.13-13.69,27.36-22.54,40.07a255,255,0,0,1-33.89,39.5c-10.46,9.93-21.25,19.52-34.16,26.47-7.66,4.14-14.54,9.72-22.17,13.93a165.43,165.43,0,0,1-24.15,11.35c-13.44,4.78-27.22,8.61-40.9,12.72-2.78.83-5.8.89-8.57,1.76-1.72.54-3.1,2.06-4.76,2.92-1.5.79-3.16,1.8-4.76,1.82q-31.65.32-63.3.35c-14.32,0-28.65,0-43-.32-1.86,0-3.68-1.79-5.52-2.75-1.44-.73-2.82-1.93-4.32-2.1-14.89-1.77-29.17-5.68-43.27-10.75-29.66-10.65-51.81-30.36-69.73-55.7C205,617.24,200,601.36,196.69,584.36c-4.31-22.4-1.62-44.31,3.53-65.88,2.77-11.62,8.84-22.45,13.45-33.62.52-1.28,1.35-2.44,1.84-3.72,6.74-17.6,18.32-32,31.25-45.17A202.74,202.74,0,0,1,276,410.73c7.41-5.1,14.18-12,23.76-13.66a4.62,4.62,0,0,0,2.48-1.16c6-6.52,14.37-7.09,22.24-9,6.57-1.62,13-3.76,19.59-5.39A55,55,0,0,1,355,379.84c6.3-.27,12.67.4,18.93-.18,12.31-1.15,21.65,4.48,30.33,12.1,6.25,5.5,8.52,12.9,8.7,20.71.26,11.43-1.3,22.42-7,33-6,11.11-12.81,21.45-22.35,29.59-8.1,6.92-16.14,14.13-26.89,17.22-4.53,1.29-8.53,5.13-13,5.67-10.32,1.24-20.8,1.3-31.21,1.48-1.95,0-4.19-1.25-5.83-2.52-9.25-7.25-16.13-15.67-16.39-28.44-.23-11.42-3-12.75-12.12-6.07a94.6,94.6,0,0,0-26.66,29.57c-7.87,13.8-13.71,28.26-15.25,44.06-1.7,17.6-.18,34.76,6,51.79A108.57,108.57,0,0,0,274.67,634c7.12,6.06,16.34,9.57,24,15.11,8.28,6,17.67,8.17,27.28,10.1q8.3,1.66,16.62,3.13c1.81.33,3.76.07,5.49.61,15.62,4.86,31.11,4.37,46.81-.05,8.67-2.44,17.91-2.93,26.49-5.61a259.94,259.94,0,0,0,33.87-12.94,124.66,124.66,0,0,0,35.07-25.12,333.42,333.42,0,0,0,24.24-27.65c8.51-10.75,13.86-23.28,19.38-35.86,11.39-26,16.37-52.88,16.06-81.12-.18-17.13,0-34.32-4-51-3.56-14.91-6.1-30.12-12.69-44.3-4.89-10.54-8.12-21.84-12.42-32.67-3.16-8-7-15.66-10.27-23.6a145.67,145.67,0,0,1-6.31-17.78c-3.34-12.63-7.32-25.24-9-38.12-2.66-20.78-2.84-41.78.93-62.57,2.32-12.76-5.19-17.46-16.93-18.71-7.16-.76-14.49.16-21.69-.32-3.86-.26-7.61-1.94-11.43-2.87-3.65-.88-7.32-2.28-11-2.31q-28.17-.25-56.32.19c-3.58.05-7.15,1.34-10.71,2.11-4.44,1-8.91,3-13.31,2.83-13.06-.49-25.3,2.82-37.51,6.62-13.6,4.24-27.31,8.22-40.64,13.2A115.65,115.65,0,0,0,253.78,217a321.72,321.72,0,0,0-29.56,21.87c-23,19.21-36.87,43.74-41.12,73.55-2.07,14.56-.5,28.57,3.73,42.8,4.18,14,11.53,25.7,20.87,36.46,2.08,2.38,4.94,4.09,7.48,6.07,5,3.87,4.55,7.74-1.14,10.48-4.14,2-8.17,4.26-12.41,6-9.3,3.88-18.73,3.94-27.53-1.17-8.33-4.84-16.78-9.76-24.17-15.86A194.44,194.44,0,0,1,126,373.78c-9.41-11-15.83-24-22.69-36.74-4.85-9-6.3-18.52-9.25-27.83-.65-2-2.75-3.61-4-5.5-.78-1.16-1.8-2.52-1.81-3.79-.12-16.17-.1-32.34,0-48.51,0-1.11.51-3,1.15-3.19,4.82-1.3,4.32-5.92,6-9.12q8.44-15.76,16.92-31.5c6-11.09,15.2-19.38,24.86-27,6.69-5.25,14.42-9.17,21.75-13.59,1.83-1.11,4.24-1.49,5.74-2.89,5-4.68,11.36-5.78,17.61-7.48,5.44-1.48,10.66-3.73,16-5.63a27.14,27.14,0,0,1,5.23-1.78c18.82-2.53,37.44-7.35,56.75-4.47a15.69,15.69,0,0,0,9.57-2.1c6-3.58,12-4.21,18.07-1.37,6.81,3.17,13.7,3.62,21.12,3.22,12.59-.68,25.25-.34,37.87-.38a7.43,7.43,0,0,1,3.61.62c8.48,5.09,17.84,4,27,3.88a57.67,57.67,0,0,1,21.67,3.52c4.56,1.7,10,1.08,15,1.63s9.91,1.17,14.84,1.9c4.38.65,8.72,2,13.09,2.14,11.67.3,23.09.4,34.65,3.84,8.38,2.5,17.94,1.24,27,1.25,4.83,0,7.56-3.55,9.88-7.4,5.08-8.42,10.33-16.73,15.4-25.15,9-15,21.51-27,34.31-38.44a246.32,246.32,0,0,1,31.48-23.91c8.42-5.41,18.11-8.85,27.25-13.14,1.67-.79,3.7-1.07,5.05-2.2,6.53-5.48,14.81-6.57,22.45-9.29,3.32-1.18,6.65-2.34,10-3.53a13.82,13.82,0,0,1,2.13-.87c10.35-2,20.66-4.09,31.06-5.65,3.3-.5,5.36-1,5-4.78ZM738.94,56.33c-9.83-.09-19.62-.57-29.12,3.23-9.93,4-20.16,7.18-30.18,10.92-11.86,4.43-21.21,12.71-31.15,20.21-13.82,10.44-23.08,24.58-32.93,38.28-1.12,1.56-1.63,5.08-.67,6.25,1.39,1.69,4.33,2.66,6.7,2.84,1.93.14,4-1.28,6-2.1,5.33-2.21,10.62-4.54,16-6.71,10.64-4.31,21.31-8.53,32-12.8,2.84-1.14,5.64-2.4,8.5-3.5,3.88-1.48,7.92-2.59,11.67-4.33q19.61-9.11,39-18.56c3.91-1.91,7-1.1,9.24,2.27a62.45,62.45,0,0,1,6.25,11.27c2.85,7.24.33,11.92-7.22,14a84.78,84.78,0,0,0-37.92,21.74c-3.82,3.74-7,8.08-10.58,12.12a92.46,92.46,0,0,0-21,42.06c-2.92,13.6.09,26.76,10.61,36,8.57,7.49,20,11.26,31.53,11.44,8,.13,16.07-1.83,24-3.55,10.16-2.23,20.17-5.13,30.23-7.81a12.24,12.24,0,0,0,3.29-1.65c6.32-4.08,12.67-8.1,18.89-12.32,8.67-5.89,16.26-12.65,18.25-23.77.31-1.72,1.66-3.26,2.51-4.88,1.63-3.11,3.11-6.32,4.93-9.32,2-3.34,3.88-7,6.67-9.61,4.25-4,7.06-8.41,7.75-14.21,3.48-29.36-2.61-55.49-26.21-75.29a83.09,83.09,0,0,0-18.81-12.2c-8.48-3.81-17.65-6.12-26.57-8.93a23.4,23.4,0,0,0-6.34-1C749.1,56.23,744,56.33,738.94,56.33Zm438.79,272.73c-.66-4-1.06-8.16-2-12.16-2.8-11.31-14.72-15.07-23.19-6.93-9.27,8.9-18.1,18.29-26.69,27.88a84.65,84.65,0,0,0-10.49,15.1c-4.94,8.8-9,18.09-14,26.9a192.81,192.81,0,0,0-16.81,38.22c-.49,1.61-1.33,3.12-1.79,4.74C1078,439.17,1072.51,455.37,1069,472c-1.75,8.16-.86,17.27.6,25.63,1.79,10.23,12,14.71,20.49,9.65a59.83,59.83,0,0,0,14.12-11,320.32,320.32,0,0,0,20.6-25.95,175.22,175.22,0,0,0,11.37-18.92c5-9.14,10.1-18.26,14.3-27.77a326.06,326.06,0,0,0,12.69-33c4.37-13.74,8-27.73,11.47-41.73C1176.18,342.45,1176.7,335.8,1177.73,329.06Z"/><path d="M1618.51,167.87c8.3,0,17.07-1.74,24.82.34,20.64,5.52,33.82,17,32.51,41.31-.31,5.76-2.13,11.46-3.5,17.13-1.26,5.23-2.65,10.45-4.34,15.56-1.49,4.48-3.45,8.82-5.25,13.2-.88,2.12-1.93,4.18-2.84,6.3-2.06,4.78-4.21,9.53-6.08,14.38a53.41,53.41,0,0,0-3,10.12c-.6,3.74,1.77,5.54,5.41,4.32,3.93-1.32,7.7-3.08,11.6-4.51,6.19-2.28,12.39-4.56,18.65-6.61a25.16,25.16,0,0,1,7.24-1.23c6.78-.16,13.55-.09,20.33,0,5.23,0,10,1.3,14,5a15.6,15.6,0,0,0,3,2.07c17.1,9.62,23.83,23.27,21.64,42.93-1.23,11.06-3.14,21.69-8,32-5.46,11.63-9,24.14-13.8,36.11-4.25,10.66-9,21.11-13.6,31.65-.18.43-.41.83-.58,1.26-5.8,14.37-11.69,28.71-17.36,43.13-3.71,9.44,2.12,17.41,12.22,18.44,16.52,1.69,28.44-6.38,39.48-17,4.39-4.23,8.13-8.79,9.72-14.84a5.93,5.93,0,0,1,1.66-2.74c9.64-8.54,13.36-20.18,17.49-31.83,3.78-10.67,8.9-20.86,13.45-31.25.43-1,1-1.89,1.42-2.9,3.88-10.51,7.66-21.06,11.61-31.55,1.4-3.74,3.49-7.23,4.7-11,1.8-5.67,3.88-11.42,4.44-17.28.85-8.79-2.66-12.93-11.19-15.48-1.18-.35-2.39-.57-3.59-.86-7.95-1.9-10.21-6.2-7.12-13.61,1.72-4.12,3.45-8.24,5.3-12.3,3-6.5,7.88-10,15.2-10,11.24.06,22.51-.42,33.73.1,26.36,1.23,45.37,19.54,40.28,47.19-2.68,14.53-8.22,28.58-13,42.66-3.9,11.5-8.6,22.73-12.93,34.08-.22.57-.29,1.2-.53,1.77-4.78,11.62-9.53,23.25-14.41,34.83-3.69,8.77-7.73,17.39-11.26,26.22a39.51,39.51,0,0,0-2.66,11.17c-.88,10.33,3.22,13.72,13.48,14.71,14.4,1.39,24.5-6.43,34.58-14.41,4.53-3.59,8.15-8.33,12.19-12.54,3.61-3.75,4.58-8.41,5.48-13.39,1.23-6.88,3.36-13.6,5.24-20.35a84.43,84.43,0,0,1,3-8.7c2-5.1,4.2-10.16,6.36-15.21.54-1.27,1.52-2.41,1.83-3.72,3.84-16.31,14.37-29.21,22.85-43,9.49-15.39,20.85-29.74,34.87-41.51a193.44,193.44,0,0,1,17.85-13c7.4-4.88,14.79-9.93,22.72-13.8,7-3.4,14.67-5.3,22.07-7.79,3.46-1.17,7-2.13,10.48-3.24,1.75-.56,3.47-1.8,5.19-1.79,11.83.08,23.69,0,35.47.9,3.81.3,7.69,3,11,5.34,6.57,4.58,9.09,4.74,16,1.18a24.86,24.86,0,0,1,10.48-2.84c16.93-.31,33.88-.21,50.82-.21,8.28,0,10.85,3.15,9.19,11.27a26,26,0,0,1-1.63,4.79c-5.56,13.43-11.08,26.88-16.75,40.27-4.53,10.72-9.24,21.37-13.89,32-.49,1.12-1.14,2.19-1.58,3.33-7.5,19.64-14.83,39.35-22.51,58.91-3.65,9.28-8.27,18.17-11.86,27.46-2.23,5.79-4.22,11.92-4.77,18-.68,7.55,3.48,11.25,11.17,11.65,8.83.46,16.8-.78,25-5.56,10.8-6.25,18.88-14.53,26.05-24.23,5.21-7.06,9-6.73,13.11,1,2.52,4.79,3,9.44.71,14.57-7.75,17.27-19.89,31-34.61,42.47-7,5.45-14.6,10.11-22,15a21.49,21.49,0,0,1-4.57,2.16c-8.53,3.07-17.06,6.15-25.65,9a23.28,23.28,0,0,1-6.81,1c-6,.13-12-.15-18,.11-5.82.25-11-1-15.41-4.92a11.15,11.15,0,0,0-3.62-2c-10.06-3.45-16.18-10.68-19.8-20.38-2.35-6.28-4.76-7.25-10.38-3.67-8.4,5.36-16.52,11.15-24.93,16.49-19,12-39.41,17.73-61.91,13.33-2.77-.54-5.34-2.22-7.93-3.53-2.19-1.09-4.16-2.69-6.42-3.57-8.5-3.29-14.28-9.42-18.45-17.24-2.68-5-5.08-10.18-7.71-15.22-2.35-4.51-6-4.93-9.71-1.41-7,6.69-13.34,14.28-21.2,19.68-10,6.87-20.14,14.28-32.84,16-2,.27-4.18.62-5.68,1.74-6.14,4.53-13.06,5-20.25,4.65a105.19,105.19,0,0,0-11.09,0,26.57,26.57,0,0,1-16.56-4.66c-5.23-3.38-11.28-5.7-15.9-9.71-3.37-2.92-5.65-7.59-7.29-11.91-3-7.94-7.49-9.75-14.36-4.87a49.71,49.71,0,0,0-4.33,3.46c-10.08,8.94-21.25,15.94-34.26,19.89-3.21,1-6.12,2.92-9.28,4.11a70.57,70.57,0,0,1-44.1,1.94c-15.54-4.42-32.48-17.95-30.94-38.72.5-6.74.21-13.57,1.08-20.26a61.51,61.51,0,0,1,4-14.09c4.44-11.45,9.15-22.79,13.87-34.12s9.57-22.31,14.26-33.5c4.43-10.6,8.7-21.28,13.09-31.9,1.69-4.11,3.27-8.3,5.33-12.22,4.78-9.14,4-15.61-3.68-21.67-2.44-1.92-6.28-3.52-9.2-3.13-14.48,1.93-27.39,7.79-36.49,19.49-3.86,5-5.84,11.48-8.25,17.46-4.82,12-9.22,24.12-14,36.1-3.94,9.84-8.29,19.51-12.33,29.31-5,12.05-9.76,24.16-14.67,36.24-1.15,2.84-2.44,5.63-3.7,8.43-.63,1.4-1.41,2.74-2,4.16-4.91,11.81-.52,21.47,11.62,25.57a39.87,39.87,0,0,1,5.26,1.7c3.43,1.74,5.17,4.37,3.36,8.3q-2,4.41-4.18,8.75c-2.09,4.24-5.59,5.91-10.24,6.77-4.2.78-8.11,3.14-12.14,4.82-3.22,1.34-6.36,3.65-9.66,3.89-7.5.55-15.19.94-22.58-.14-14.68-2.14-26.83-8.68-33.16-23.15-4.21-9.6-2.74-19.29-.4-29,1.55-6.43,3-12.89,4.86-19.24,1.41-4.85,3.23-9.6,5.07-14.31,4.74-12.14,9.48-24.28,14.43-36.34,4.48-10.93,9.23-21.75,13.87-32.61.36-.85.91-1.63,1.22-2.49,4.13-11.24,8.06-22.56,12.39-33.73,4.49-11.58,9.42-23,14-34.51,4.73-11.81,9.19-23.74,14-35.52,4.4-10.8,9.12-21.46,13.68-32.2,1-2.26,1.79-4.57,2.69-6.85,2-5.13,4.09-10.25,6.08-15.4,1-2.72,2.39-5.42,2.85-8.25,1.68-10.33-2.66-16.68-13.54-20.46-11.45-4-12.31-6.17-7-17a50,50,0,0,0,3.28-8.12c1.82-6.27,6.17-8.88,12.33-9.21.46,0,.92,0,1.38,0q9.93,0,19.87,0Zm347.21,305.24a40.81,40.81,0,0,0,0,6.45c1.31,8.09,4.68,16,12.23,18.93a29.57,29.57,0,0,0,25.89-2c8.56-5,17.86-8.92,25-16.13,3.18-3.23,7-6.39,8.76-10.37,6.17-14.06,11.66-28.43,17.21-42.76,4.37-11.28,8.44-22.67,12.67-34,.48-1.29,1.23-2.48,1.77-3.76,4.36-10.13,8.91-20.18,13-30.42,4.53-11.42,8.5-23.07,12.93-34.53,3.67-9.51-1-17.09-11.06-18.65-15.26-2.37-27.91,4-39.4,12.3-15.32,11-26,26.41-35.08,42.79-4.54,8.17-8.87,16.47-13.18,24.76s-9.09,16.74-12.81,25.46c-4.7,11-8.26,22.45-12.84,33.49C1967,453.87,1966.09,463.42,1965.72,473.11Z"/><path d="M1315.23,278.81c7.84,0,15.94-1.25,23.45.3a40.39,40.39,0,0,1,26.17,17.32c1.28,1.92,2.35,4,3.64,5.89,4,6,9.1,6.59,14.86,2.2q9.66-7.38,19.69-14.29a38.43,38.43,0,0,1,7.5-3.53c6.08-2.48,12.15-5,18.33-7.2a26.71,26.71,0,0,1,7.65-1.33c4.61-.21,9.25.15,13.85-.11,7.29-.43,14.13.39,20,5.25a9.18,9.18,0,0,0,2.9,1.4c16.39,5.72,25.81,17.58,29.56,34.13,1.85,8.21,4.41,16.62,4.21,24.87-.43,18-3.13,35.83-10.76,52.52-4.34,9.48-8,19.27-12.71,28.57s-10.52,18-15.27,27.31c-6,11.83-14.89,21.46-23.44,31.31-9.5,10.94-19.9,20.94-32.78,28-7.26,4-14.28,8.42-21.44,12.59a24,24,0,0,1-5,2.32c-10.74,3.28-21.34,7.94-32.34,9.3-15.67,1.94-31.94,4.49-46.88-4.22-.4-.23-.85-.36-1.27-.55-10.91-4.74-13.16-3.39-17.16,7.77-4.3,12-9.57,23.6-14.17,35.47-3.5,9-7,18.09-9.76,27.34-2.51,8.32,1.48,15.15,9.66,18.32,13.54,5.24,14.13,7.27,7.23,20.05a15.16,15.16,0,0,1-11.75,8.43c-3.77.67-7.22,3.07-10.91,4.44-4.26,1.57-8.59,3.88-13,4-8.08.28-16.44.24-24.28-1.5-19.65-4.35-29.16-17.4-28.84-36.12.25-15.31,3.85-29.67,10-43.65,5-11.24,9-22.9,13.41-34.35,4.29-11,8.55-22,13-32.94,4.73-11.65,9.6-23.23,14.49-34.8,5.08-12,10.38-23.9,15.38-35.93,4.24-10.22,8.2-20.56,12.26-30.85s8.1-20.91,12.38-31.28c4.16-10.08,8.69-20,12.93-30.05,4.58-10.88,3.3-19.54-4.35-26.08a19.53,19.53,0,0,0-9-4c-9.6-1.71-11.09-4.61-6.41-12.92a61.37,61.37,0,0,0,4.06-10.26c3.43-10,8.69-13.87,19.17-13.89h15.71Zm121.67,70.67c0-2.16.16-4.32,0-6.46-.59-6.89-7.55-17.25-13.24-18.11-9-1.37-18.37-1.7-26.6,2.93s-16.15,10.52-24.24,15.76c-4.66,3-7,7.39-8.79,12.53-3.89,11.16-8.1,22.21-12.49,33.18-5.19,12.95-10.75,25.75-16.1,38.63-4.18,10.05-8.24,20.15-12.45,30.19-4.69,11.14-9.71,22.14-14.17,33.37-3.92,9.86.78,16.54,11.23,17.63,14.67,1.54,27.67-3.26,39-11.5,12.87-9.37,22.61-22,31.16-35.47,5.42-8.54,10.84-17.09,15.91-25.84a200.09,200.09,0,0,0,11.51-22c4.83-11.44,8.33-23.46,13.39-34.78C1435.32,369.82,1436.76,359.85,1436.9,349.48Z"/><path d="M1900.39,167.21c20-2.15,39.47,21.45,40.53,39.55,1.26,21.32-20.52,45.35-42.06,44-20.29-1.28-40.42-20.05-40.44-42C1858.4,187.33,1878.47,166,1900.39,167.21Z"/></svg>